<?xml version="1.0" encoding="utf-8"?>
<!-- Generator: Adobe Illustrator 21.0.0, SVG Export Plug-In . SVG Version: 6.00 Build 0)  -->
<svg version="1.1" xmlns="http://www.w3.org/2000/svg" xmlns:xlink="http://www.w3.org/1999/xlink" x="0px" y="0px"
	 viewBox="0 0 161 373" style="enable-background:new 0 0 161 373;" xml:space="preserve">
<style type="text/css">
	.st0{fill:#C98B41;}
	.st1{fill:none;}
	.st2{fill:#FFF7E7;}
	.st3{fill:#00427B;}
	.st4{fill:#FFFFFF;}
	.st5{fill:#FFC805;}
</style>
<g id="body">
	<path class="st0" d="M146.1,247.1l-36.2-106.7c-1.7-5-6.4-8.4-11.8-8.4h-7.9c-0.4,0-0.5-0.6-0.1-0.7c24.8-5.1,43.2-27.4,42.2-53.9
		c-1-27.4-23.3-49.7-50.8-50.8c-30.2-1.2-55,22.9-55,52.9c0,23.3,15,43,35.9,50.1c1.3,0.4,1,2.4-0.4,2.4h0c-5.9,0-11,4.1-12.2,9.9
		L27.4,250.7c-0.7,3.3,1.1,6.7,4.2,7.7c3.8,1.3,7.7-1,8.5-4.8L52,196.5V237l3.7,118h-10c-2,0-3.9,0.7-5.2,2.2
		c-3.3,3.6-0.8,7.8,2.7,7.8H56h6h7l5-128h11l8.3,118h-4.6c-2,0-3.9,0.7-5.2,2.2c-3.3,3.6-0.8,7.8,2.7,7.8H94h11h2V237l-1.3-11
		c-1.8-15.9-1.6-32,0.6-47.8l0.6-4.5l28.5,82.8c1.2,3.6,6.5,2.7,6.5-1.1v0C145.4,254.2,147.2,250.5,146.1,247.1z"/>
</g>
<g id="clo">
	<polygon class="st1" points="51.9,196.9 52,197 52,196.5 	"/>
	<path class="st2" d="M109.9,140.4c-1.7-5-6.4-8.4-11.8-8.4H93c-7.3,8.1-20.3,17.1-33.6,0.3c-4.7,1-8.5,4.7-9.5,9.6l-7.2,35l9.2,20
		l0.1-0.3v0.5v25h53.3c-1.4-14.6-1-29.3,1-43.9l0.6-4.5l6.1,17.7l10.7-9.7L109.9,140.4z"/>
</g>
<g id="pan">
	<polygon class="st1" points="74,237 70,338.8 92.2,339.4 85,237 	"/>
	<g>
		<path class="st3" d="M107,237l-1.3-11c-0.2-1.3-0.3-2.6-0.4-4H52v15l-4,101.4l25,0.6l1-102h11l2,102.4l23,0.6L107,237z"/>
		<path class="st3" d="M93.2,353.1l0.1,1.9h-5.5c-3.2,0-5.8,2.6-5.8,5.8c0,2.3,1.9,4.2,4.2,4.2H94h11h4v-8.4
			C104.9,357.6,100.7,357.7,93.2,353.1z"/>
		<path class="st3" d="M55.6,353.4l0.1,1.6H44.8c-3.2,0-5.8,2.6-5.8,5.8c0,2.3,1.9,4.2,4.2,4.2H56h6h8.8l0.3-8.5
			C67.4,357.5,63.3,357.9,55.6,353.4z"/>
	</g>
</g>
<g id="exp">
	<g>
		<ellipse cx="54.5" cy="73.5" rx="3.5" ry="10.5"/>
		<ellipse cx="86.5" cy="73.5" rx="3.5" ry="10.5"/>
		<path class="st4" d="M51.2,96c0,0.1,0,0.3,0,0.4c0,11.2,9.1,20.3,20.3,20.3s20.3-9.1,20.3-20.3c0-0.1,0-0.3,0-0.4H51.2z"/>
	</g>
</g>
<g id="hair">
	<path class="st5" d="M31.8,29.4c-3.3,2.9-6.4,6.2-10,8.7s-8.1,4.2-12.5,3.5c6.4,1.1,13,1,19.3-0.2C24,52.1,15.1,60.9,4.3,65.2
		c7-0.3,14-1.7,20.6-4.2c13.7-5.2,25.4-14.8,39.2-19.7c8.8-3.1,18.3-4.2,27.5-3.2c3.5,0.4,7.1,1.1,10.6,0.9c1.1,0,2.2-0.2,3.1,0.3
		c1.5,0.7,2,2.4,2.4,4c2.3,9,3.1,18.5,2.5,27.8c4.4-2.9,7.3-7.8,7.8-13.1c3.4,4.4,3.6,10.6,6.5,15.4c3,4.8,8.8,7.7,14.4,7.1
		c-3.2-9.5-5.2-19.4-6-29.4c1.9,0.5,3.5,1.9,4.4,3.7c1.1-3.9,0.2-8.2-1.2-12c-1.6-4.6-3.9-8.9-6.8-12.9c-7.2-9.8-18.1-16.9-30-19.7
		C77.6,5.2,48.2,14.9,31.8,29.4z"/>
</g>
</svg>
