<?xml version="1.0" encoding="utf-8"?>
<!-- Generator: Adobe Illustrator 21.0.0, SVG Export Plug-In . SVG Version: 6.00 Build 0)  -->
<svg version="1.1" xmlns="http://www.w3.org/2000/svg" xmlns:xlink="http://www.w3.org/1999/xlink" x="0px" y="0px"
	 viewBox="0 0 161 373" style="enable-background:new 0 0 161 373;" xml:space="preserve">
<style type="text/css">
	.st0{fill:#C98B41;}
	.st1{fill:#FFFFFF;}
	.st2{fill:none;}
	.st3{fill:#FFF7E7;}
	.st4{fill:#003F8B;}
</style>
<g id="Layer_1">
	<g id="body">
		<path class="st0" d="M146.1,247.1l-36.2-106.7c-1.7-5-6.4-8.4-11.8-8.4h-7.9c-0.4,0-0.5-0.6-0.1-0.7c24.8-5.1,43.2-27.4,42.2-53.9
			c-1-27.4-23.3-49.7-50.8-50.8c-30.2-1.2-55,22.9-55,52.9c0,23.3,15,43,35.9,50.1c1.3,0.4,1,2.4-0.4,2.4l0,0
			c-5.9,0-11,4.1-12.2,9.9L27.4,250.7c-0.7,3.3,1.1,6.7,4.2,7.7c3.8,1.3,7.7-1,8.5-4.8L52,196.5V237l3.7,118h-10
			c-2,0-3.9,0.7-5.2,2.2c-3.3,3.6-0.8,7.8,2.7,7.8H56h6h7l5-128h11l8.3,118h-4.6c-2,0-3.9,0.7-5.2,2.2c-3.3,3.6-0.8,7.8,2.7,7.8H94
			h11h2V237l-1.3-11c-1.8-15.9-1.6-32,0.6-47.8l0.6-4.5l28.5,82.8c1.2,3.6,6.5,2.7,6.5-1.1l0,0C145.4,254.2,147.2,250.5,146.1,247.1
			z"/>
	</g>
</g>
<g id="Layer_2">
	<g id="exp">
		<g>
			<ellipse cx="54.5" cy="73.5" rx="3.5" ry="10.5"/>
			<ellipse cx="86.5" cy="73.5" rx="3.5" ry="10.5"/>
			<path class="st1" d="M51.2,96c0,0.1,0,0.3,0,0.4c0,11.2,9.1,20.3,20.3,20.3s20.3-9.1,20.3-20.3c0-0.1,0-0.3,0-0.4L51.2,96z"/>
		</g>
	</g>
</g>
<g id="Layer_3">
	<path d="M72.3,45.9c-10.2,1.2-20,4.8-30.2,6.7s-21.3,1.6-29.8-4.3c5.7,1.6,12,0.5,16.8-3C23.7,45.7,18,44,13.8,40.6
		c6.7,1.9,14-0.8,19.9-4.5c5.9-3.7,11.2-8.5,17.6-11.4c-5.3,0.2-10.7-0.3-15.9-1.3c6.1-0.6,11.8-3,17.7-4.6
		c12.3-3.4,25.6-3.6,38-0.4c7.3,1.9,14.5,5,20,10.1c3.8,3.6,7.4,8.4,12.6,9c-1.3,3-0.1,6.6,2,9.2c2.1,2.5,5,4.2,7.9,5.8
		c-1.1-0.6-5.7,0.6-7,0.7c-2.6,0.1-5.3,0-7.9-0.2c-5.4-0.5-10.4-1.9-15.5-3.7C93.4,45.8,82.6,44.7,72.3,45.9z"/>
</g>
<g id="Layer_4">
	<g id="clo">
		<polygon class="st2" points="51.9,196.9 52,197 52,196.5 		"/>
		<path class="st3" d="M109.9,140.4c1.5-11.5-19.7-8.4-19.7-8.4l-14.1,7.1L62,132c0,0-11.2-1.6-13.1,9.9L26.5,245.1l16.5,3.5l9-52
			v25.5h53.3c-1.4-14.6-1-29.3,1-43.9l0.6-4.5l25,76l14.6-8.7L109.9,140.4z"/>
	</g>
	<path d="M106.9,173.1l23,72.6l16.5-8l-36.5-97.9c-0.8-11.4-6.4-8.4-11.8-8.4l-4.8-0.9l-12.7,34l-4.3,6l-4.1-6.1l-12.1-34.2
		c0,0-2.1,0.8-5,0.7c-7-0.3-5.4,4.1-6.3,11l-24.2,98.8l18.7,4l8.6-48.1L50.3,222l26.4,0.8l0-0.2l31.2-0.6
		c-1.4-14.6-3.5-29.8-1.5-44.4L106.9,173.1z"/>
	<g>
		<circle class="st3" cx="79" cy="185.5" r="1.3"/>
		<circle class="st3" cx="79" cy="196.5" r="1.3"/>
		<circle class="st3" cx="79" cy="207.5" r="1.3"/>
		<polygon class="st4" points="83.5,137.7 78.1,140.7 76.4,139.5 73.9,141 69.4,138.6 73.2,144.1 71.5,145.3 72.2,164.4 76.3,170.5 
			80.7,164.6 81.1,145.3 79.2,143.9 		"/>
		<rect x="89.3" y="157.2" class="st4" width="11.1" height="2.3"/>
	</g>
</g>
<g id="Layer_5">
	<g>
		<path d="M107,237l-1.3-11c-0.2-1.3-0.3-2.6-0.1-12.9H52.3L52,237l-4.7,110.2l25,0.6L74,237h11l1.4,111.7l23,0.6L107,237z"/>
		<g>
			<g>
				<path d="M93.2,353.1l0.1,1.9h-5.5c-3.2,0-5.8,2.6-5.8,5.8c0,2.3,1.9,4.2,4.2,4.2H94h11h4v-8.4
					C104.9,357.6,100.7,357.7,93.2,353.1z"/>
				<path class="st1" d="M91.9,357.7h-6.2c-0.4,0-0.7-0.3-0.7-0.7l0,0c0-0.4,0.3-0.7,0.7-0.7h6.2c0.4,0,0.7,0.3,0.7,0.7l0,0
					C92.6,357.4,92.3,357.7,91.9,357.7z"/>
			</g>
			<g>
				<path d="M55.6,353.4l0.1,1.6H44.8c-3.2,0-5.8,2.6-5.8,5.8c0,2.3,1.9,4.2,4.2,4.2H56h6h8.8l0.3-8.5
					C67.4,357.5,63.3,357.9,55.6,353.4z"/>
				<path class="st1" d="M49,357.7h-6.2c-0.4,0-0.7-0.3-0.7-0.7l0,0c0-0.4,0.3-0.7,0.7-0.7H49c0.4,0,0.7,0.3,0.7,0.7l0,0
					C49.8,357.4,49.4,357.7,49,357.7z"/>
			</g>
		</g>
	</g>
</g>
</svg>
