<?xml version="1.0" encoding="utf-8"?>
<!-- Generator: Adobe Illustrator 21.0.0, SVG Export Plug-In . SVG Version: 6.00 Build 0)  -->
<svg version="1.1" xmlns="http://www.w3.org/2000/svg" xmlns:xlink="http://www.w3.org/1999/xlink" x="0px" y="0px"
	 viewBox="0 0 161 373" style="enable-background:new 0 0 161 373;" xml:space="preserve">
<style type="text/css">
	.st0{fill:#C98B41;}
	.st1{fill:none;}
	.st2{fill:#FFF7E7;}
	.st3{fill:#006E32;}
</style>
<g id="Layer_1">
	<g id="body">
		<path class="st0" d="M146.1,247.1l-36.2-106.7c-1.7-5-6.4-8.4-11.8-8.4h-7.9c-0.4,0-0.5-0.6-0.1-0.7c24.8-5.1,43.2-27.4,42.2-53.9
			c-1-27.4-23.3-49.7-50.8-50.8c-30.2-1.2-55,22.9-55,52.9c0,23.3,15,43,35.9,50.1c1.3,0.4,1,2.4-0.4,2.4l0,0
			c-5.9,0-11,4.1-12.2,9.9L27.4,250.7c-0.7,3.3,1.1,6.7,4.2,7.7c3.8,1.3,7.7-1,8.5-4.8L52,196.5V237l3.7,118h-10
			c-2,0-3.9,0.7-5.2,2.2c-3.3,3.6-0.8,7.8,2.7,7.8H56h6h7l5-128h11l8.3,118h-4.6c-2,0-3.9,0.7-5.2,2.2c-3.3,3.6-0.8,7.8,2.7,7.8H94
			h11h2V237l-1.3-11c-1.8-15.9-1.6-32,0.6-47.8l0.6-4.5l28.5,82.8c1.2,3.6,6.5,2.7,6.5-1.1l0,0C145.4,254.2,147.2,250.5,146.1,247.1
			z"/>
	</g>
</g>
<g id="Layer_2">
	<g>
		<ellipse cx="54.5" cy="73.5" rx="3.5" ry="10.5"/>
		<ellipse cx="86.5" cy="73.5" rx="3.5" ry="10.5"/>
		<g>
			<path d="M86.7,108.2c-6.9-4.2-13.9-5.5-20.8-3.8c-5.1,1.3-8.2,3.7-8.2,3.8l-1.3-1.6c0.1-0.1,13.7-10.9,31.3-0.1L86.7,108.2z"/>
		</g>
	</g>
</g>
<g id="Layer_3">
	<path d="M104,21.7C93.5,18,82.1,18,71,17.8s-22.6-0.7-32.7-5.4c-0.4,2.8,0.6,5.7,2.6,7.6c-9.6,1.4-19.7-1.6-27-7.9
		c-1.2,5.3-2.4,10.8-2.1,16.2s2.4,11.1,6.7,14.5c6.7,5.4,16.3,3.9,24.8,2.8c17.1-2.3,34.5-2.3,51.5,0.1c4.8,0.7,9.7,1.6,13.4,4.7
		c3.3,2.8,5.5,7.3,9.7,8.4c1.2,0.3,2.6,0.3,3.7,0.9c1.9,1,2.5,3.4,3.4,5.4c1.4,3.3,4.2,5.9,7.6,7.1c0,0-1.6-15.1-2-16.6
		c-1.4-4.9-3.8-9.6-5.7-14.2C120.9,31.9,113.6,25.2,104,21.7z"/>
</g>
<g id="Layer_4">
	<g id="clo">
		<polygon class="st1" points="51.9,196.9 52,197 52,196.5 		"/>
		<path class="st2" d="M109.9,140.4c-2.4-11.3-17.2-8.4-17.2-8.4l-15.8,6.3L62,132c0,0-11-2.5-12.1,9.9L29,235.8l15.9,4.8l7.2-44
			v0.5v25h53.3c-1.4-14.6-1-29.3,1-43.9l0.6-4.5l22.9,68.9l13-8.5L109.9,140.4z"/>
	</g>
</g>
<g id="Layer_5">
	<g>
		<path class="st3" d="M107,237l-1.3-11c-0.2-1.3-0.3-2.6-0.4-4H52v15l-1.9,52.2l27.2,0.7L77,244.5l2.6,0.2l0.7,45.1l33.3-0.8
			L107,237z"/>
		<path class="st3" d="M93.2,353.1l0.1,1.9h-5.5c-3.2,0-5.8,2.6-5.8,5.8c0,2.3,1.9,4.2,4.2,4.2H94h11h4v-8.4
			C104.9,357.6,100.7,357.7,93.2,353.1z"/>
		<path class="st3" d="M55.6,353.4l0.1,1.6H44.8c-3.2,0-5.8,2.6-5.8,5.8c0,2.3,1.9,4.2,4.2,4.2H56h6h8.8l0.3-8.5
			C67.4,357.5,63.3,357.9,55.6,353.4z"/>
	</g>
</g>
</svg>
