<?xml version="1.0" encoding="utf-8"?>
<!-- Generator: Adobe Illustrator 21.0.0, SVG Export Plug-In . SVG Version: 6.00 Build 0)  -->
<svg version="1.1" id="Layer_1" xmlns="http://www.w3.org/2000/svg" xmlns:xlink="http://www.w3.org/1999/xlink" x="0px" y="0px"
	 viewBox="0 0 161 373" style="enable-background:new 0 0 161 373;" xml:space="preserve">
<style type="text/css">
	.st0{fill:#FFDBB6;}
	.st1{fill:#009964;}
	.st2{fill:#D7DADD;}
	.st3{fill:#6B2F00;}
	.st4{fill:#AFFFCD;}
	.st5{fill:#E0F8FF;}
	.st6{fill:#262622;}
</style>
<g id="body_2_">
	<g id="body_1_">
		<g id="body">
			<path class="st0" d="M146.1,247.1l-36.2-106.7c-1.7-5-6.4-8.4-11.8-8.4h-7.9c-0.4,0-0.5-0.6-0.1-0.7
				c24.8-5.1,43.2-27.4,42.2-53.9c-1-27.4-23.3-49.7-50.8-50.8c-30.2-1.2-55,22.9-55,52.9c0,23.3,15,43,35.9,50.1
				c1.3,0.4,1,2.4-0.4,2.4l0,0c-5.9,0-11,4.1-12.2,9.9L27.4,250.7c-0.7,3.3,1.1,6.7,4.2,7.7c3.8,1.3,7.7-1,8.5-4.8L52,196.5V237
				l3.7,118h-10c-2,0-3.9,0.7-5.2,2.2c-3.3,3.6-0.8,7.8,2.7,7.8H56h6h7l5-128h11l8.3,118h-4.6c-2,0-3.9,0.7-5.2,2.2
				c-3.3,3.6-0.8,7.8,2.7,7.8H94h11h2V237l-1.3-11c-1.8-15.9-1.6-32,0.6-47.8l0.6-4.5l28.5,82.8c1.2,3.6,6.5,2.7,6.5-1.1l0,0
				C145.4,254.2,147.2,250.5,146.1,247.1z"/>
		</g>
	</g>
</g>
<g id="pan">
	<g id="pan1x">
		<polygon class="st1" points="51.9,178.5 52,178.5 52,178.2 		"/>
		<path class="st1" d="M52,178.2l-0.1,0.3L52,178.2z"/>
		<g>
			<path class="st2" d="M55.7,355h-10c-2,0-3.9,0.7-5.2,2.2c-3.3,3.6-0.8,7.8,2.7,7.8H56h6h7l3.8-91.6H53.1L55.7,355z"/>
			<path class="st2" d="M93.3,355h-4.6c-2,0-3.9,0.7-5.2,2.2c-3.3,3.6-0.8,7.8,2.7,7.8H94h11h2l0.3-91.6H87.2L93.3,355z"/>
		</g>
		<g>
			<path class="st3" d="M92.4,353.1l0.1,1.9H87c-3.2,0-5.8,2.6-5.8,5.8c0,2.3,1.9,4.2,4.2,4.2h7.8h11h4v-8.4
				C104.1,357.6,99.9,357.7,92.4,353.1z"/>
			<path class="st3" d="M54.8,353.4l0.1,1.6H44c-3.2,0-5.8,2.6-5.8,5.8c0,2.3,1.9,4.2,4.2,4.2h12.8h6H70l0.3-8.5
				C66.6,357.5,62.5,357.9,54.8,353.4z"/>
		</g>
	</g>
	<path class="st4" d="M113.3,227.8c3.2,6.2,6.8,12.7,13.1,15.9c-2.2-0.4-4.3,0.9-6.2,2.2c-6.4,4.1-14.5,7.2-21.3,3.9
		c-3.3-1.6-6.2-4.7-9.9-4.8c-2.7,0-5,1.5-7.4,2.7s-5.4,1.9-7.6,0.4c-0.7-0.5-1.2-1.2-2-1.6c-3.6-2-8.1,3.6-11.7,1.6
		c-1-0.5-1.7-1.6-2.7-2s-2.2,0-3.2,0.5c-3.3,1.5-7.1,4.1-10.3,2.4c3.2-2.1,4.3-6.3,5.1-10c1.8-8.5,0.6-16.8,2.4-25.3
		c8.6,0,20.3-0.2,28.9-0.2c5.8,0,11.6,0,17.4,0c3.9,0,7-1,9.2,2.2C109.5,219.3,111.2,223.8,113.3,227.8z"/>
</g>
<g id="exp_2_">
	<g id="exp_1_">
		<g id="exp">
			<g>
				<ellipse cx="54.5" cy="73.5" rx="3.5" ry="10.5"/>
				<ellipse cx="86.5" cy="73.5" rx="3.5" ry="10.5"/>
				<path d="M85,105.5H59.6c-0.9,0-1.6-0.7-1.6-1.6l0,0c0-0.9,0.7-1.6,1.6-1.6H85c0.9,0,1.6,0.7,1.6,1.6l0,0
					C86.6,104.8,85.9,105.5,85,105.5z"/>
			</g>
		</g>
	</g>
</g>
<g id="clo">
	<path class="st5" d="M123.1,162.9c-1.4-3.7-3.3-6.6-5.6-8.9c1.5-0.7,3.2-1.2,5-1.3c-4.1-2.6-8.1-5.3-11.5-8.8c-2.1-2.1-4-4.7-6.7-6
		c-1.4-0.6-2.9-0.9-4.4-1c0.6-2.4,1.1-4.9,0.1-7.1c-0.5,0.1-0.9,0.4-1.1,0.9c-0.2,0.4-0.3,0.9-0.4,1.4c-0.2,1.2-0.4,2.5-0.6,3.7
		c-0.1,0.4-0.1,0.8-0.1,1.2c-1.8,0.1-3.5,0.5-5,1c-4.6,1.5-6.9,5.5-11.1,7.3c-2.8,1.2-6,0.1-8.6-1.4c-2.6-1.6-4.9-3.7-7.7-4.8
		c-2-0.8-4.2-1.1-6.4-0.9c0-0.1,0-0.2,0-0.3c0-2.5-0.1-5.1-1.6-7.1c-0.5,0.2-0.8,0.7-0.9,1.1s-0.1,1,0,1.5c0.1,1.2,0.2,2.5,0.3,3.7
		c0,0.5,0.1,0.9,0.2,1.4c-1.6,0.4-3.1,1-4.5,1.8c-3.8,2.2-6.7,5.9-8.6,10c-2,4.5-3.5,10.2-8.2,11.7c1.2,0.6,2.6,1.1,4,1.3
		c-0.2,2.1-0.3,4.2,0.7,6c0.8,1.4,2.2,2.4,3.8,2.7c-0.7,4.4,2.3,9,6.5,10.3c0,10.4-0.2,20.8-0.2,31.2H101c2.7,0,5.6,0.1,8-1.1
		s4.2-4.2,3.2-6.7c-0.7-1.8-2.6-2.9-3.9-4.3c-4.2-4.4-2.9-11.4-1.3-17.3c1-3.6,1.9-7.2,2.9-10.7c3,2.8,8.8,0.8,9.4-3.2
		c1.6,0.9,3.8-0.3,4.4-2C124.2,166.5,123.7,164.6,123.1,162.9z"/>
</g>
<path class="st6" d="M137.3,95.8c0.1-2.8,0.2-5.7,0.3-8.6c2.3,7.4,4.2,14.8,5.7,22.4c1.4,6.9,3.1,14.7,9.1,18.3
	c-3.5-6.8-2.5-14.9-2.1-22.5c1.1-24.1-5.7-49.1-21.4-67.4c-3.6-4.3-8-8.2-12.8-11.1c-6.4-6.5-15.1-11.1-23.9-12.8
	c-7.1-1.4-15.3-3.5-22.5-2.2c-4.6,0.8-9.4,2.9-13.8,5.2c-1.6-5.9-9.3-11.3-15-11.7c-7.1-0.5-14.2,4.7-15.8,11.7
	c-0.4,1.6-0.5,3.3-0.2,4.9c0.7,3.4,3.2,6.2,6.3,7.7c1.3,0.7,2.8,1.1,4.2,1.4c-2.2,2.3-4.2,4.9-6,7.9c-7.6,13.4-8.3,29.2-8.7,44.2
	c-0.3,12,0.2,31.1-9.3,40c2.8-2.1,6.3-5.7,9.6-7.4c-4.5,10.4,4.3,32.8,18.4,28c7.3-2.5,5.5-13.1,5.4-19.2c-0.9,2.2-2.8,16.4-7,10
	c-1.7-2.7-0.9-9.1-1-12c-0.2-6.3,0-12.6,0-18.8c0-13.7-2.2-30.3,4.6-42.5c4.2-0.3,8.7,0.1,13.1-0.2c4.1-0.3,14.4,1.1,17.9-1.5
	c1.6-1.2,1.9-4.2,2.4-6.2l2.3-12.5c0.5,3.2,0.8,6.3,0.9,9.6c0.1,2.9-0.7,6.6,0,9.3c1.6-0.8,3.2-0.9,4.4-2.1c1.8-2.1,2.6-7.1,2.7-9.6
	c0.6,2.7,1.4,8.1,2.9,10.2c1,1.4,2.3,1.6,4.1,2c4.7,1,9.5,0.2,14.3-0.3c0,5.9,2.8,12.7,3.6,18.8c1,7.6,2.3,16.8-4.8,21.5
	c5.4,5.4,11.7,1.8,14.2-4.5c0.6,10.6,2.1,21.2,1.6,32c-0.5,9.1-4,21.5,6.1,27.1c6.9,3.8,17.4,2.5,21.8-4.5c2-3.2,1.8-7.7-1-10.6
	c-1.4-1.4-4.6-3.6-6.2-1.6c4.7,0.8,2.4,7.9-1,8.8c-6.7,1.8-7.3-6.1-7.1-10.6C133.9,122.7,136.8,109.3,137.3,95.8z"/>
</svg>
