<?xml version="1.0" encoding="utf-8"?>
<!-- Generator: Adobe Illustrator 21.0.0, SVG Export Plug-In . SVG Version: 6.00 Build 0)  -->
<svg version="1.1" xmlns="http://www.w3.org/2000/svg" xmlns:xlink="http://www.w3.org/1999/xlink" x="0px" y="0px"
	 viewBox="0 0 161 373" style="enable-background:new 0 0 161 373;" xml:space="preserve">
<style type="text/css">
	.st0{fill:#FFDBB6;}
	.st1{fill:#2B1300;}
	.st2{fill:none;}
	.st3{fill:#654300;}
</style>
<g id="Layer_1">
	<g id="body">
		<path class="st0" d="M146.1,247.1l-36.2-106.7c-1.7-5-6.4-8.4-11.8-8.4h-7.9c-0.4,0-0.5-0.6-0.1-0.7c24.8-5.1,43.2-27.4,42.2-53.9
			c-1-27.4-23.3-49.7-50.8-50.8c-30.2-1.2-55,22.9-55,52.9c0,23.3,15,43,35.9,50.1c1.3,0.4,1,2.4-0.4,2.4l0,0
			c-5.9,0-11,4.1-12.2,9.9L27.4,250.7c-0.7,3.3,1.1,6.7,4.2,7.7c3.8,1.3,7.7-1,8.5-4.8L52,196.5V237l3.7,118h-10
			c-2,0-3.9,0.7-5.2,2.2c-3.3,3.6-0.8,7.8,2.7,7.8H56h6h7l5-128h11l8.3,118h-4.6c-2,0-3.9,0.7-5.2,2.2c-3.3,3.6-0.8,7.8,2.7,7.8H94
			h11h2V237l-1.3-11c-1.8-15.9-1.6-32,0.6-47.8l0.6-4.5l28.5,82.8c1.2,3.6,6.5,2.7,6.5-1.1l0,0C145.4,254.2,147.2,250.5,146.1,247.1
			z"/>
	</g>
</g>
<g id="Layer_2">
	<g id="exp">
		<g>
			<ellipse cx="54.5" cy="73.5" rx="3.5" ry="10.5"/>
			<ellipse cx="86.5" cy="73.5" rx="3.5" ry="10.5"/>
			<path d="M85,105.5H59.6c-0.9,0-1.6-0.7-1.6-1.6l0,0c0-0.9,0.7-1.6,1.6-1.6H85c0.9,0,1.6,0.7,1.6,1.6l0,0
				C86.6,104.8,85.9,105.5,85,105.5z"/>
		</g>
	</g>
</g>
<g id="Layer_3">
	<path d="M31,28.7c-3.5,7.8-5.2,16.2-6.6,24.6c-1.1,7.1-2.1,14.4-1.4,21.6c12-8.3,20.6-21.4,23.5-35.7c0.4,6.3,3.2,12.5,7.7,17
		s10.6,7.3,17,7.8c-1.9-5-3.1-10.2-3.6-15.5C71.9,52,77,54,82.1,55.9c6.3,2.4,12.5,4.8,18.8,7.2c9.8,3.7,19.7,7.5,30.1,8.6
		c-0.9-1.5-1.9-2.9-2.8-4.4c3-0.5,6.1,0.5,8.4,2.5c-2.2-12.9,0.2-16.8-7.9-27c3.8,0.1,5.2-7.2,7.9-4.6c-1.9-9.3-13.8-16.9-21.7-22.2
		S97.7,7.7,88.3,6.4C78.6,5.1,68.7,5.3,59,7c-8.2,1.4-14.1,3.2-19.9,9.4C35.7,20,33,24.2,31,28.7z"/>
</g>
<g id="Layer_4">
	<g id="clo">
		<polygon class="st1" points="51.9,196.9 52,197 52,196.5 		"/>
		<path class="st1" d="M109.9,140.4c-1.7-5-6.4-8.4-11.8-8.4H93c-7.3,8.1-20.3,17.1-33.6,0.3c-4.7,1-8.5,4.7-9.5,9.6l-7.2,35l9.2,20
			l0.1-0.3v0.5v25h53.3c-1.4-14.6-1-29.3,1-43.9l0.6-4.5l6.1,17.7l10.7-9.7L109.9,140.4z"/>
	</g>
</g>
<g id="Layer_5">
	<g id="pan">
		<polygon class="st2" points="74,237 70,338.8 92.2,339.4 85,237 		"/>
		<g>
			<path class="st3" d="M107,237l-1.3-11c-0.2-1.3-0.3-2.6-0.4-4H52v15l-4,101.4l25,0.6l1-102h11l2,102.4l23,0.6L107,237z"/>
			<path d="M93.2,353.1l0.1,1.9h-5.5c-3.2,0-5.8,2.6-5.8,5.8c0,2.3,1.9,4.2,4.2,4.2H94h11h4v-8.4
				C104.9,357.6,100.7,357.7,93.2,353.1z"/>
			<path d="M55.6,353.4l0.1,1.6H44.8c-3.2,0-5.8,2.6-5.8,5.8c0,2.3,1.9,4.2,4.2,4.2H56h6h8.8l0.3-8.5
				C67.4,357.5,63.3,357.9,55.6,353.4z"/>
		</g>
	</g>
</g>
</svg>
