<?xml version="1.0" encoding="utf-8"?>
<!-- Generator: Adobe Illustrator 21.0.0, SVG Export Plug-In . SVG Version: 6.00 Build 0)  -->
<svg version="1.1" id="Layer_1" xmlns="http://www.w3.org/2000/svg" xmlns:xlink="http://www.w3.org/1999/xlink" x="0px" y="0px"
	 viewBox="0 0 161 373" style="enable-background:new 0 0 161 373;" xml:space="preserve">
<style type="text/css">
	.st0{fill:#FFDBB6;}
	.st1{fill:#009964;}
	.st2{fill:#685551;}
	.st3{fill:#FFFFFF;}
</style>
<g id="body_1_">
	<g id="body">
		<path class="st0" d="M146.1,247.1l-36.2-106.7c-1.7-5-6.4-8.4-11.8-8.4h-7.9c-0.4,0-0.5-0.6-0.1-0.7c24.8-5.1,43.2-27.4,42.2-53.9
			c-1-27.4-23.3-49.7-50.8-50.8c-30.2-1.2-55,22.9-55,52.9c0,23.3,15,43,35.9,50.1c1.3,0.4,1,2.4-0.4,2.4l0,0
			c-5.9,0-11,4.1-12.2,9.9L27.4,250.7c-0.7,3.3,1.1,6.7,4.2,7.7c3.8,1.3,7.7-1,8.5-4.8L52,196.5V237l3.7,118h-10
			c-2,0-3.9,0.7-5.2,2.2c-3.3,3.6-0.8,7.8,2.7,7.8H56h6h7l5-128h11l8.3,118h-4.6c-2,0-3.9,0.7-5.2,2.2c-3.3,3.6-0.8,7.8,2.7,7.8H94
			h11h2V237l-1.3-11c-1.8-15.9-1.6-32,0.6-47.8l0.6-4.5l28.5,82.8c1.2,3.6,6.5,2.7,6.5-1.1l0,0C145.4,254.2,147.2,250.5,146.1,247.1
			z"/>
	</g>
</g>
<g id="exp_1_">
	<g id="exp">
		<g>
			<ellipse cx="54.5" cy="73.5" rx="3.5" ry="10.5"/>
			<ellipse cx="86.5" cy="73.5" rx="3.5" ry="10.5"/>
			<path d="M85,105.5H59.6c-0.9,0-1.6-0.7-1.6-1.6l0,0c0-0.9,0.7-1.6,1.6-1.6H85c0.9,0,1.6,0.7,1.6,1.6l0,0
				C86.6,104.8,85.9,105.5,85,105.5z"/>
		</g>
	</g>
</g>
<g id="hair1x">
	<path d="M36.7,129.8c0.3,0,0.6-0.1,0.8-0.2C37.2,129.7,37,129.8,36.7,129.8z"/>
	<path d="M130.8,148.2c-1.1-2.6-1.4-5.5-1.4-8.3c0.1-15.3,8-29.4,10.9-44.4c3.3-17.4-0.6-36.1-10.5-50.7c-2.5-3.7-5.4-7.2-8.5-10.4
		c3.3,0.3,6.7,0.1,10.1-0.2c2.8-0.3,5.9-0.9,7.7-3.1c1.8-2.3,1.7-5.5,1.4-8.5c-0.3-3.6-0.8-7.5-3.5-10c-1.8-1.6-4.2-2.3-6.6-2.7
		c-6.4-1.1-13-0.5-19.5,0.3c-3.5,0.4-9.2,1.5-10.1,5.7c-0.7-0.4-1.4-0.8-2.1-1.2c-3-1.5-6.4-2.2-9.7-2.6
		c-12.8-1.8-26.1-0.4-38.2,4.1c-2.4,0.9-4.7,1.9-6.7,3.4c-2.4,1.9-4.2,4.5-5.8,7.1c-7.9,13.2-11.8,28.8-21.5,40.8
		c5.8,0.8,11.9-0.3,17.1-2.9c5.3-2.7,9.8-7,15.5-8.6c-0.9,2-1.8,3.9-2.6,5.9c10.7-0.6,21.5-1.3,31.6-4.9c7.8-2.8,16.4-7.7,20.7-15.1
		c1.2-2,1.9-6.4,4.7-6.7c3.5-0.4,6.5,5.6,7.5,8c4.5,10.3,8.9,20.9,9.9,32.2c1,10.6-1,21.3-2.1,31.9s-1.3,21.8,2.9,31.6
		c4.1,9.5,12.5,17,22.3,20.2C138.7,156.9,133.1,153.6,130.8,148.2z"/>
</g>
<g id="pan1x">
	<polygon class="st1" points="51.9,178.5 52,178.5 52,178.2 	"/>
	<path class="st1" d="M52,178.2l-0.1,0.3L52,178.2z"/>
	<g>
		<path class="st2" d="M55.7,355h-10c-2,0-3.9,0.7-5.2,2.2c-3.3,3.6-0.8,7.8,2.7,7.8H56h6h7l4.3-111.1H52.5L55.7,355z"/>
		<path class="st2" d="M93.3,355h-4.6c-2,0-3.9,0.7-5.2,2.2c-3.3,3.6-0.8,7.8,2.7,7.8H94h11h2V253.9H86.2L93.3,355z"/>
	</g>
	<path d="M109.2,241.6c0,0-3.6-5.9-4.8-27.8H51l-5.5,60.5c0,0,11.4,4,35.1,4c18.5,0,35.1-2.9,35.1-2.9L109.2,241.6z"/>
	<g>
		<path d="M92.4,353.1l0.1,1.9H87c-3.2,0-5.8,2.6-5.8,5.8c0,2.3,1.9,4.2,4.2,4.2h7.8h11h4v-8.4C104.1,357.6,99.9,357.7,92.4,353.1z"
			/>
		<path d="M54.8,353.4l0.1,1.6H44c-3.2,0-5.8,2.6-5.8,5.8c0,2.3,1.9,4.2,4.2,4.2h12.8h6H70l0.3-8.5
			C66.6,357.5,62.5,357.9,54.8,353.4z"/>
	</g>
</g>
<g id="clo_1_">
	<g>
		<g>
			<polygon class="st3" points="51.9,178.5 52,178.5 52,178.2 			"/>
			<path class="st3" d="M109.9,138c-1.7-3.6-6.4-6-11.8-6l0,0c-4.2,3.4-14.2,14.2-21.2,14.3c-5.1,0-11.9-9-17.5-14.1
				c-4.7,0.7-8.5,3.4-9.5,6.9l-7.2,25.1l9.2,14.3l0.1-0.2v0.4L48.2,197c-0.3,1.6,0.1,3.3,1.3,4.6l-1.1,12.2h55.1
				c2.7-12.2,4-13.7,3.7-15.3c-2-12.1-2.3-13.3-0.5-23l2,3.6l15-11.4L109.9,138z"/>
		</g>
		<g>
			<path d="M72.9,148c0.3-1.8-0.4-3.6-1.8-4.7c-1.7-1.4-3.9-3.3-4.8-4.1c-2.3-2.3-4.5-4.8-7-7c-9.3,0-9.8,2.6-9.5,6.9l-7.2,25.1
				l9.2,14.3l0.1-0.3v0.1v0.3v0.1L48.2,197c-0.3,1.6,0.1,3.3-4.5,16.8h16.2c6.3-17.7,6.9-23.1,7.4-28.5
				C67.9,179.3,71.6,156.2,72.9,148z"/>
			<path d="M108.7,179l15-11.4L109.9,138c1.2-8.2-6.4-6-11.8-6c-3.2,2.5-9.5,9.1-15.4,12.4c0.9,19.1,2.4,38.1,7,69.4h19.5
				c1.3,0,2.4-1.2,2.2-2.5c-1.3-10-4-11.3-4.3-12.8c-2-12.1-2.3-13.3-0.5-23L108.7,179z"/>
		</g>
	</g>
</g>
</svg>
