<?xml version="1.0" encoding="utf-8"?>
<!-- Generator: Adobe Illustrator 21.0.0, SVG Export Plug-In . SVG Version: 6.00 Build 0)  -->
<svg version="1.1" xmlns="http://www.w3.org/2000/svg" xmlns:xlink="http://www.w3.org/1999/xlink" x="0px" y="0px"
	 viewBox="0 0 161 373" style="enable-background:new 0 0 161 373;" xml:space="preserve">
<style type="text/css">
	.st0{fill:#FFDBB6;}
	.st1{fill:#009964;}
	.st2{fill:#758386;}
	.st3{fill:#6B2F00;}
	.st4{fill:#1E2427;}
	.st5{fill:#FEFFFF;}
	.st6{fill:#CDCD8A;}
</style>
<g id="body_2_">
	<g id="body_1_">
		<g id="body">
			<path class="st0" d="M146.1,247.1l-36.2-106.7c-1.7-5-6.4-8.4-11.8-8.4h-7.9c-0.4,0-0.5-0.6-0.1-0.7
				c24.8-5.1,43.2-27.4,42.2-53.9c-1-27.4-23.3-49.7-50.8-50.8c-30.2-1.2-55,22.9-55,52.9c0,23.3,15,43,35.9,50.1
				c1.3,0.4,1,2.4-0.4,2.4l0,0c-5.9,0-11,4.1-12.2,9.9L27.4,250.7c-0.7,3.3,1.1,6.7,4.2,7.7c3.8,1.3,7.7-1,8.5-4.8L52,196.5V237
				l3.7,118h-10c-2,0-3.9,0.7-5.2,2.2c-3.3,3.6-0.8,7.8,2.7,7.8H56h6h7l5-128h11l8.3,118h-4.6c-2,0-3.9,0.7-5.2,2.2
				c-3.3,3.6-0.8,7.8,2.7,7.8H94h11h2V237l-1.3-11c-1.8-15.9-1.6-32,0.6-47.8l0.6-4.5l28.5,82.8c1.2,3.6,6.5,2.7,6.5-1.1l0,0
				C145.4,254.2,147.2,250.5,146.1,247.1z"/>
		</g>
	</g>
</g>
<g id="pan">
	<g id="pan1x">
		<polygon  points="51.9,178.5 52,178.5 52,178.2 		"/>
		<path  d="M52,178.2l-0.1,0.3L52,178.2z"/>
		<g>
			<path style="fill:#758386;" d="M55.7,355h-10c-2,0-3.9,0.7-5.2,2.2c-3.3,3.6-0.8,7.8,2.7,7.8H56h6h7l3.8-91.6H53.1L55.7,355z"/>
			<path style="fill:#758386;" d="M93.3,355h-4.6c-2,0-3.9,0.7-5.2,2.2c-3.3,3.6-0.8,7.8,2.7,7.8H94h11h2l0.3-91.6H87.2L93.3,355z"/>
		</g>
		<g>
			<path style="fill:#6B2F00;" d="M92.4,353.1l0.1,1.9H87c-3.2,0-5.8,2.6-5.8,5.8c0,2.3,1.9,4.2,4.2,4.2h7.8h11h4v-8.4
				C104.1,357.6,99.9,357.7,92.4,353.1z"/>
			<path style="fill:#6B2F00;" d="M54.8,353.4l0.1,1.6H44c-3.2,0-5.8,2.6-5.8,5.8c0,2.3,1.9,4.2,4.2,4.2h12.8h6H70l0.3-8.5
				C66.6,357.5,62.5,357.9,54.8,353.4z"/>
		</g>
	</g>
	<path d="M104.6,214.3H49.7c0,17.6-2.7,35.3-7.9,52.2c8.9-2.1,18.1,4.4,27,2.7c4.8-0.9,9.4-4.2,14.1-3
		c2.2,0.6,4.1,2.1,6.4,2.3c2.8,0.2,5.4-1.7,8.1-2.5c5.1-1.5,10.4,0.8,15.5,2.2s11.4,1.8,14.8-2.3c-3.5-0.5-5.6-3.9-7.1-7.1
		c-1.4-3.1-2.6-6.4-3.7-9.6C112.5,237.4,108.8,226,104.6,214.3z"/>
</g>
<g id="exp_2_">
	<g id="exp_1_">
		<g id="exp">
			<g>
				<ellipse cx="54.5" cy="73.5" rx="3.5" ry="10.5"/>
				<ellipse cx="86.5" cy="73.5" rx="3.5" ry="10.5"/>
				<path d="M85,105.5H59.6c-0.9,0-1.6-0.7-1.6-1.6l0,0c0-0.9,0.7-1.6,1.6-1.6H85c0.9,0,1.6,0.7,1.6,1.6l0,0
					C86.6,104.8,85.9,105.5,85,105.5z"/>
			</g>
		</g>
	</g>
</g>
<g id="clo">
	<path style="fill:#fff" d="M126.4,160.6c-6,2.8-11.6,6.4-16.5,10.8c-0.3,0.3-0.6,0.6-0.8,0.9c-0.4,0.7-0.3,1.5-0.2,2.3
		c1.3,9.3-0.7,23.6,0.6,32.9c0.1,0.4,0.1,0.9,0,1.2c-0.1,0.3-0.4,0.6-0.6,0.8c-2.7,2.7-0.8,0.6-3.5,3.3H49.9
		c0.1-13.5,5.1-27.1,3.5-40.5c-0.1-0.5-0.1-1-0.5-1.4c-0.3-0.4-0.7-0.5-1.2-0.7c-4.8-1.9-9.7-3.7-14.6-5.4c3.9-8.2,8-16.4,12.2-24.5
		c1.1-2.1,2.4-4.4,4.7-5c2.4-0.6,4.7,0.9,6.7,2.3c3.7,2.6,7.4,5.3,11.1,7.9c0.6-2.4,2.9-4,4.9-5.4c0.3-0.2,0.6-0.4,0.9-0.4
		c0.3,0,0.6,0.3,0.9,0.5c2.2,2.1,4.5,4.2,6.7,6.3c-0.5-0.5,10.4-8.5,11.5-9.1c1.9-1.1,4.4-2.9,6.6-3.4c2.3-0.5,4.1,1.3,5.6,2.7
		C116.2,143.7,120.5,152.9,126.4,160.6z"/>
	<path  d="M91.7,156.2c-2.8,2-6.1,2.7-9.4,3.3c0.3,3.7,0.5,7.4,0.8,11.1c0.4,4.9,0.7,9.8,0.2,14.7
		c-0.5,4.9-1.9,9.8-4.6,13.3c-1.7-2.8-2.8-6.2-3.1-9.7c0.2,3.2-0.4,6.5-1.7,9.3c-1.2-6.4-2.4-12.9-2.6-19.5
		c-0.2-6.6,0.7-13.4,3.4-19c-2.9-0.1-5.9-0.7-8.4-2.6s-4.4-5.4-4.3-9.1c2,1.3,4.3,2.1,6.6,2.1c1.6,0,3.3-0.2,4.9,0
		c1.6,0.2,3.3,1.1,4.1,2.9c1.3-2,3.3-3,5.2-3.3c2-0.4,4-0.2,6-0.4c1.5-0.1,7.2-2.7,7.7-1.1C97.4,150.9,93,155.3,91.7,156.2z"/>
	<path style="fill:#000" d="M110.6,138.6c2.2,2.3,4.9,4.2,7.9,5.5c-1.5,1.5-3,2.8-4.7,4c-0.3,0.2-0.6,0.4-0.9,0.4c-0.4-0.1-0.7-0.5-0.9-0.9
		c-1.9-3.9-4.3-7.5-7.1-10.8c-0.6-0.7-1.3-1.5-2.3-1.6c-0.8-0.1-1.6,0.3-2.4,0.7c-3.4,1.9,2.4,11.1-0.8,13.9
		c-4.4,3.9-17.7,1.6-21.7,5.2c-4.6-4.6-11.4-1.3-17.3-4.2c-2.4-1.2-6.3-15.1-8.5-13.6c-0.2-1.5,0,0-0.2-1.5c0-0.4,2.2-1.8,2.9-2.3
		c1.8-1.2,4-2.4,6-1.7c0.8,0.3,1.4,0.8,2,1.3c5.6,4.7,10.4,10.3,14.4,16.4c1.3-3.1,3.3-5.9,5.7-8.2c2.4-2.2,5.2-4.1,7-6.8
		c0.6-0.8,1-1.8,1.9-2.3c0.7-0.4,1.5-0.5,2.3-0.6c3-0.4,6.8-0.7,9.6,0.5C106.4,133.3,108.5,136.3,110.6,138.6z"/>
</g>
<g id="hair">
	<path d="M105.9,60.1c-22.7,2-41.6,2.9-64.4,3.5c-7.3,20.6-7.5,43.6-0.5,64.2c-10.8-4.5-15.1-17.7-15.2-29.4s2.5-23.5,0.1-34.9
		c-4.9,2.7-8.6,7.5-10,12.9c0.7-11.5,1.4-23.4,6.4-33.9c7.9-16.8,25.7-27.3,44-30.3s37.1,0.6,54.8,5.9c3,0.9,6,1.9,8.5,3.8
		c3.2,2.6,5,6.5,6.3,10.4c4.1,12.2,4.6,25.2,5.2,38.1c1,19.6,2.3,39.2,4.1,58.8c1.2,12.8,2.6,26.1,9.2,37.2
		c-11.3-3.8-23.5-8.3-30.1-18.3c-2.3-3.5-3.8-7.5-5.1-11.4c-6.5-20.1-8.8-41.5-6.8-62.5c0.7-7.3-3.2-35.5-2.9-32.1
		C109.7,43.4,106,60.1,105.9,60.1z"/>
</g>
</svg>
