<?xml version="1.0" encoding="utf-8"?>
<!-- Generator: Adobe Illustrator 21.0.0, SVG Export Plug-In . SVG Version: 6.00 Build 0)  -->
<svg version="1.1" xmlns="http://www.w3.org/2000/svg" xmlns:xlink="http://www.w3.org/1999/xlink" x="0px" y="0px"
	 viewBox="0 0 161 373" style="enable-background:new 0 0 161 373;" xml:space="preserve">
<style type="text/css">
	.st0{fill:#FFDBB6;}
	.st1{fill:#654600;}
	.st2{fill:#F54400;}
	.st3{fill:#F5FCFF;}
</style>
<g id="Layer_1">
	<g id="body_2_">
		<g id="body_1_">
			<g id="body">
				<path class="st0" d="M146.1,247.1l-36.2-106.7c-1.7-5-6.4-8.4-11.8-8.4h-7.9c-0.4,0-0.5-0.6-0.1-0.7
					c24.8-5.1,43.2-27.4,42.2-53.9c-1-27.4-23.3-49.7-50.8-50.8c-30.2-1.2-55,22.9-55,52.9c0,23.3,15,43,35.9,50.1
					c1.3,0.4,1,2.4-0.4,2.4l0,0c-5.9,0-11,4.1-12.2,9.9L27.4,250.7c-0.7,3.3,1.1,6.7,4.2,7.7c3.8,1.3,7.7-1,8.5-4.8L52,196.5V237
					l3.7,118h-10c-2,0-3.9,0.7-5.2,2.2c-3.3,3.6-0.8,7.8,2.7,7.8H56h6h7l5-128h11l8.3,118h-4.6c-2,0-3.9,0.7-5.2,2.2
					c-3.3,3.6-0.8,7.8,2.7,7.8H94h11h2V237l-1.3-11c-1.8-15.9-1.6-32,0.6-47.8l0.6-4.5l28.5,82.8c1.2,3.6,6.5,2.7,6.5-1.1l0,0
					C145.4,254.2,147.2,250.5,146.1,247.1z"/>
			</g>
		</g>
		<g id="clo_1_">
		</g>
	</g>
	<g id="pan">
		<g id="pan_1_">
			<g>
				<path class="st1" d="M93.2,353.1l0.1,1.9h-5.5c-3.2,0-5.8,2.6-5.8,5.8c0,2.3,1.9,4.2,4.2,4.2H94h11h4v-8.4
					C104.9,357.6,100.7,357.7,93.2,353.1z"/>
				<path class="st1" d="M55.6,353.4l0.1,1.6H44.8c-3.2,0-5.8,2.6-5.8,5.8c0,2.3,1.9,4.2,4.2,4.2H56h6h8.8l0.3-8.5
					C67.4,357.5,63.3,357.9,55.6,353.4z"/>
			</g>
		</g>
		<path class="st2" d="M132.1,314.9c0,0-13.1,7.8-45.6,8.8c-37.3,1.1-45.3-5.9-45.3-5.9s0.9-46.5,2.9-61.9
			c1.7-13.6,6.9-42.1,6.9-42.1h53.4c0,0,5.6,26.8,7.4,39.8C114,269.6,132.1,314.9,132.1,314.9z"/>
	</g>
	<g id="clo">
		<g>
			<g id="clo_2_">
				<polygon class="st3" points="51.9,178.5 52,178.5 52,178.2 				"/>
				<path class="st3" d="M109.9,138c-1.7-3.6-6.4-6-11.8-6l0,0c-4.2,3.4-14.2,14.2-21.2,14.3c-5.1,0-11.9-9-17.5-14.1
					c-4.7,0.7-8.5,3.4-9.5,6.9l-7.2,25.1l9.2,14.3l0.1-0.2v0.4L48.2,197c-0.3,1.6,0.1,3.3,1.3,4.6l0,0h55.1c1.6,0,2.9-1.5,2.6-3.1
					c-2-12.1-2.3-13.3-0.5-23l2,3.6l15-11.4L109.9,138z"/>
			</g>
			<path class="st2" d="M93.9,159.1c0.6-0.2,1.4-0.3,1.7-0.9c0.1-0.2,0.2-0.5,0.1-0.8c-0.1-1.1-1-2-2.1-2.1s-2.1,0.7-2.4,1.8
				c-0.6-0.4-1.1-0.9-1.8-1.1s-1.5-0.1-1.9,0.5c-0.3,0.5-0.2,1.1,0,1.5c0.3,0.7,0.9,1.4,1.7,1.8c0.6,0.3,2.2,1.2,2.7,1
				C92.7,160.5,93.1,159.4,93.9,159.1z"/>
		</g>
	</g>
	<g id="exp">
		<g id="exp_2_">
			<g id="exp_3_">
				<g>
					<ellipse cx="54.5" cy="73.5" rx="3.5" ry="10.5"/>
					<ellipse cx="86.5" cy="73.5" rx="3.5" ry="10.5"/>
					<path d="M85,105.5H59.6c-0.9,0-1.6-0.7-1.6-1.6l0,0c0-0.9,0.7-1.6,1.6-1.6H85c0.9,0,1.6,0.7,1.6,1.6l0,0
						C86.6,104.8,85.9,105.5,85,105.5z"/>
				</g>
			</g>
		</g>
	</g>
	<g id="hair">
		<g id="hair_1_">
			<path d="M36.7,129.8c0.3,0,0.6-0.1,0.8-0.2C37.2,129.7,37,129.8,36.7,129.8z"/>
			<path d="M73.4,13.1c-15.7-3.5-33.3,3.7-42,17.3c3.9-0.2,7.8-0.4,11.7-0.7c-19.4,8.2-33,28.7-32.9,49.8c3.8-3.2,8.4-5.5,13.2-6.7
				c-1.1,7.4-1.5,14.9-1.4,22.4c0.1,5.1,0.5,10.4,2.8,15c2.8,5.7,8.4,9.9,14.6,10.9c3.3,0.6,6.9,0.2,9.6-1.7
				c2.7-1.9,4.3-5.7,2.9-8.8c-1.5,1.7-4.3,1.6-6.2,0.4c-1.9-1.3-3-3.4-3.8-5.5C34.1,86.5,39.1,63,54,49c-0.8,2.4-1.6,4.8-2.4,7.2
				c9.2-3.1,18-7.6,25.8-13.3c0,3.1,0.1,6.3,0.1,9.4c4.1-1.8,8-4.4,11.2-7.5c4.2,6.5,9.5,12.2,15.6,16.9c4.9,3.8,10.6,7.1,13.7,12.4
				c-0.3-3.1-0.5-6.2-0.8-9.2c4.9,3.4,5.5,10.3,5.5,16.3c0,6.8,0,13.8-2.1,20.3s-6.6,12.6-13,15c0.9,0.1,1.9,0.2,2.8,0.3
				c1.3,11.7,4.7,19.9,6,27.6c2.5-1.5,21.7-11.4,24.4-12.4c-0.1-13.1-0.2-26.2-0.3-39.4c-0.2-15.2-0.3-30.5-3.6-45.4
				c-1.8-8-4.7-16.2-11.1-21.3c-3.8-3-8.4-4.7-13-6.3c-14.9-5.1-30.6-9.4-46.3-7.6"/>
		</g>
	</g>
</g>
<g id="Layer_2">
</g>
</svg>
