<?xml version="1.0" encoding="utf-8"?>
<!-- Generator: Adobe Illustrator 21.0.0, SVG Export Plug-In . SVG Version: 6.00 Build 0)  -->
<svg version="1.1" xmlns="http://www.w3.org/2000/svg" xmlns:xlink="http://www.w3.org/1999/xlink" x="0px" y="0px"
	 viewBox="0 0 161 373" style="enable-background:new 0 0 161 373;" xml:space="preserve">
<style type="text/css">
	.st0{fill:#FFDBB6;}
	.st1{fill:#17121A;}
	.st2{fill:#FFFFFF;}
	.st3{fill:#009964;}
</style>
<g id="body">
	<g id="body_2_">
		<g id="body_1_">
			<g id="body_3_">
				<path class="st0" d="M146.1,247.1l-36.2-106.7c-1.7-5-6.4-8.4-11.8-8.4h-7.9c-0.4,0-0.5-0.6-0.1-0.7
					c24.8-5.1,43.2-27.4,42.2-53.9c-1-27.4-23.3-49.7-50.8-50.8c-30.2-1.2-55,22.9-55,52.9c0,23.3,15,43,35.9,50.1
					c1.3,0.4,1,2.4-0.4,2.4l0,0c-5.9,0-11,4.1-12.2,9.9L27.4,250.7c-0.7,3.3,1.1,6.7,4.2,7.7c3.8,1.3,7.7-1,8.5-4.8L52,196.5V237
					l3.7,118h-10c-2,0-3.9,0.7-5.2,2.2c-3.3,3.6-0.8,7.8,2.7,7.8H56h6h7l5-128h11l8.3,118h-4.6c-2,0-3.9,0.7-5.2,2.2
					c-3.3,3.6-0.8,7.8,2.7,7.8H94h11h2V237l-1.3-11c-1.8-15.9-1.6-32,0.6-47.8l0.6-4.5l28.5,82.8c1.2,3.6,6.5,2.7,6.5-1.1l0,0
					C145.4,254.2,147.2,250.5,146.1,247.1z"/>
			</g>
		</g>
	</g>
</g>
<g id="exp">
	<g id="exp_2_">
		<g id="exp_1_">
			<g id="exp_3_">
				<g>
					<ellipse cx="54.5" cy="73.5" rx="3.5" ry="10.5"/>
					<ellipse cx="86.5" cy="73.5" rx="3.5" ry="10.5"/>
					<path d="M85,105.5H59.6c-0.9,0-1.6-0.7-1.6-1.6l0,0c0-0.9,0.7-1.6,1.6-1.6H85c0.9,0,1.6,0.7,1.6,1.6l0,0
						C86.6,104.8,85.9,105.5,85,105.5z"/>
				</g>
			</g>
		</g>
	</g>
</g>
<g id="hair">
	<path d="M132.8,59.2c2.8,1,5.5,2.1,8.1,3.5c-3.3-5-6.7-10-10-15c-1.6-2.4-3.3-4.9-5.1-7.2c5.4-2.6,10.3-6.4,14-11.1
		c-3.3,1.5-7.3,1-10.6-0.4c-3.4-1.4-6.4-3.6-9.5-5.5c-6.2-3.8-13.1-6.5-20.2-8.1c-6.3-1.4-12.9-1.9-19.3-1.4c-1,0.1-3,0.2-5.4,0.4
		c-3.9-0.6-7.9-0.9-11.8-0.6c-8.3,0.7-16.7,4.4-21.1,11.4c-0.5-2.7-0.3-5.6,0.5-8.3c-3.9,4.5-7,9.7-9.2,15.3
		c-0.6,1.5-1.1,3.3-0.3,4.8c-2.7-0.8-3.3-4.3-3.4-7c-4.5,7.7-5.9,17.2-3.7,25.9c0.4,1.7,1,3.3,1,5c0,4-2.7,7.5-3.5,11.4
		c7.1-4.3,12.7-11.1,15.6-18.9c0.7-1.9,1.3-3.8,2.3-5.5c0.5-0.8,1.1-1.5,1.9-2.1c6.5,9,15.5,16.2,24.3,23.2
		c-1.6-4.1-3.1-8.3-4.7-12.4c6.2,9.1,17.4,13.1,28,16.3c10.5,3.3,21.8,6.7,28.7,15.3c-0.4-5-1.7-10-3.9-14.5
		c6.3,1.6,11.7,5.7,17.4,8.6c5.8,3,12.8,4.9,18.7,2C143.8,77.5,137.3,68.8,132.8,59.2z"/>
</g>
<g id="pan">
	<polygon class="st1" points="51.9,237 55.2,342.4 69.8,342.4 73.9,237 84.9,237 92.3,342.4 106.9,342.4 106.9,237 106,217.6 
		51.9,217.6 	"/>
	<rect x="101.1" y="217.6" class="st2" width="1.4" height="124.8"/>
	<g id="pan_1_">
		<g id="pan1x">
			<polygon class="st3" points="51.9,178.5 52,178.5 52,178.2 			"/>
			<path class="st3" d="M52,178.2l-0.1,0.3L52,178.2z"/>
			<g>
				<path class="st1" d="M92.4,353.1l0.1,1.9H87c-3.2,0-5.8,2.6-5.8,5.8c0,2.3,1.9,4.2,4.2,4.2h7.8h11h4v-8.4
					C104.1,357.6,99.9,357.7,92.4,353.1z"/>
				<path class="st1" d="M54.8,353.4l0.1,1.6H44c-3.2,0-5.8,2.6-5.8,5.8c0,2.3,1.9,4.2,4.2,4.2h12.8h6H70l0.3-8.5
					C66.6,357.5,62.5,357.9,54.8,353.4z"/>
			</g>
		</g>
	</g>
</g>
<g id="clo">
	<g>
		<path d="M111.8,144.9c1.9-0.9,5.7-3.6,5.8-3.2c-1.3-5-5.3-4.4-6.6-9.4c-0.3-1.2-0.7-2.5-1.6-3.5c-1.3-1.4-3.4-1.8-5.3-1.5
			c-1.9,0.3-3.7,1.2-5.4,1.9c-2.2,0.9-4.4,1.5-6.8,1.9h-1.8c-0.2,0-0.3-0.2-0.3-0.4c-1,0.1-2.1,0.1-3.1,0.2
			c-7.9,0.6-16.1,1-23.8-0.4c-0.2,0.3-0.5,0.6-1,0.6c-5.9,0-11,4.1-12.2,9.9l-19.5,94.8l11.4,9.2l10.3-49.4l-1.7,17.2h55.2
			c0,0-1.5-19.7,0.7-35.5l0.6-4.5l21.3,66l14-9.5L111.8,144.9z"/>
		<path class="st2" d="M64.6,138.5c0.6,0,1.2,0.1,1.8,0.1c1.9-1.7,3.5-3.7,4.7-5.9c1.6,9.5,0.9,19.2,1,28.8
			c0.3,17.2,3.6,34.7,0,51.4h2.8c0.4-5.8,0.4-11.7,0.8-17.5c0.7-9.3,1.3-18.7,0.4-28c-0.4-4-1-7.9-1.2-11.9
			c-0.3-6.7,1.7-15-0.9-21.4c-1.1-2.7-2.3-3.3-5-1.9C68.4,132.6,63.8,138.4,64.6,138.5z"/>
		<rect x="84.1" y="150.5" class="st2" width="12.8" height="2.1"/>
	</g>
</g>
</svg>
