<?xml version="1.0" encoding="utf-8"?>
<!-- Generator: Adobe Illustrator 21.0.0, SVG Export Plug-In . SVG Version: 6.00 Build 0)  -->
<svg version="1.1" xmlns="http://www.w3.org/2000/svg" xmlns:xlink="http://www.w3.org/1999/xlink" x="0px" y="0px"
	 viewBox="0 0 155 223" style="enable-background:new 0 0 155 223;" xml:space="preserve">
<g id="sole">
	<path d="M49.4,37.5C49.9,52.1,64,62.2,69.9,75.6c5.3,12.1,3,27.1-5.7,37.1c-8.3,9.6-22.6,16.5-22.7,29.2
		c-0.1,12.6,14.1,19.8,26,23.9c7.9,2.8,15.9,5.6,24.3,6c8.4,0.5,17.3-1.7,23.1-7.7c3.8-3.9,6.1-9,8.3-14.1
		c4.9-11.3,9.9-22.8,12.2-34.9c3.8-20-0.1-41.3-10.7-58.6C115.1,40.9,47.6-15.3,49.4,37.5z"/>
</g>
<g id="toe">
	<path d="M28.9,155.6c-5.5,3.4-12.1,3.6-14.8,0.5s-0.5-8.3,5-11.7s12.1-3.6,14.8-0.5S34.4,152.2,28.9,155.6z"/>
	<ellipse transform="matrix(0.8012 -0.5984 0.5984 0.8012 -92.769 54.7345)" cx="36" cy="167" rx="12" ry="9"/>
	<ellipse transform="matrix(0.5096 -0.8604 0.8604 0.5096 -126.1801 134.6089)" cx="55" cy="178" rx="12" ry="9"/>
	<ellipse transform="matrix(0.2369 -0.9715 0.9715 0.2369 -120.7671 214.2441)" cx="76" cy="184" rx="12" ry="9"/>
	<ellipse transform="matrix(0.9921 -0.1254 0.1254 0.9921 -22.8859 14.4069)" cx="103" cy="189" rx="11.3" ry="15.1"/>
</g>
</svg>
