<?xml version="1.0" encoding="utf-8"?>
<!-- Generator: Adobe Illustrator 21.0.0, SVG Export Plug-In . SVG Version: 6.00 Build 0)  -->
<svg version="1.1" id="Layer_1" xmlns="http://www.w3.org/2000/svg" xmlns:xlink="http://www.w3.org/1999/xlink" x="0px" y="0px"
	 viewBox="0 0 2616.6 677.9" style="enable-background:new 0 0 2616.6 677.9;" xml:space="preserve">
<style type="text/css">
	.st0{fill:#26499D;}
</style>
<polygon class="st0" points="896.6,295.4 896.6,214.9 882.6,214.9 882.6,110.9 871.6,110.9 871.6,214.9 857.6,214.9 857.6,301.5 
	784.6,312.9 784.6,680.2 925.6,680.2 925.6,290.9 "/>
<path class="st0" d="M598.5,677.9v-300c0,0-84.2-44-319.2-44v344H598.5z"/>
<g>
	<polygon class="st0" points="1398.3,351.9 1398.3,362.5 1408.3,362.5 1408.3,677.9 1477.3,677.9 1477.3,362.5 1486.3,362.5 
		1486.3,351.9 	"/>
	<rect x="1394.9" y="340.9" class="st0" width="94.7" height="7.8"/>
</g>
<path class="st0" d="M610.3,420.9c0,0,36-2,46-18v275h-46V420.9z"/>
<g id="DfH69c.tif">
	
		<image style="overflow:visible;" width="2492" height="1192" id="Layer_0_1_" xlink:href="D1EA8C6E09D78361.png"  transform="matrix(0.5 0 0 0.5 263.2639 -799.1373)">
	</image>
</g>
<polygon class="st0" points="438.9,425.5 295.2,425.5 295.2,37.7 438.9,78.2 "/>
<polygon class="st0" points="0,677.9 295.2,677.9 295.2,462.9 0,505.9 "/>
<polygon class="st0" points="247.7,680.2 79.4,680.2 79.4,206.6 168.6,206.6 247.7,253.3 "/>
<rect x="940.3" y="443.4" class="st0" width="11" height="234.5"/>
<polygon class="st0" points="1014.2,677.9 959.7,677.9 959.7,425.5 1014.2,481.7 "/>
<rect x="1304" y="551.7" class="st0" width="434.3" height="126.2"/>
<polygon class="st0" points="1589.6,514.9 1509.3,551.7 1669.9,551.7 "/>
<polygon class="st0" points="1589.6,448.7 1547.9,581 1631.3,581 "/>
<rect x="1193.7" y="481.3" class="st0" width="146.5" height="196.5"/>
<rect x="1073.3" y="551.7" class="st0" width="91.6" height="126.2"/>
<polygon class="st0" points="720.9,677.9 647.6,677.9 647.6,570.4 720.9,606.9 "/>
<g id="KJnfOs.tif">
	
		<image style="overflow:visible;" width="1638" height="1156" id="Layer_0_2_" xlink:href="D1EA8C6E09D78363.png"  transform="matrix(0.5 0 0 0.5 1547.8662 -790.1373)">
	</image>
</g>
<polygon class="st0" points="2537.4,680.2 2327.6,680.2 2327.6,333.9 2369.6,278.6 2369.6,0 2537.4,0 "/>
</svg>
