<?xml version="1.0" encoding="utf-8"?>
<!-- Generator: Adobe Illustrator 21.0.0, SVG Export Plug-In . SVG Version: 6.00 Build 0)  -->
<svg version="1.1" id="Layer_1" xmlns="http://www.w3.org/2000/svg" xmlns:xlink="http://www.w3.org/1999/xlink" x="0px" y="0px"
	 viewBox="0 0 427 1174" style="enable-background:new 0 0 427 1174;" xml:space="preserve">
<polygon points="153,918 281,790 281,674 153,802 "/>
<path d="M153,1013h-12v29h8.1v39h-18.3c-3.1,0-5.7,2.5-5.7,5.7v47.3H88.8c-2.6,0-4.8,2.1-4.8,4.8v34.9h268.6v-34.9
	c0-2.6-2.1-4.8-4.8-4.8h-39.1v-47.3c0-3.1-2.5-5.7-5.7-5.7h-18.3v-39h8.1v-29h-12V840L153,968V1013z"/>
<path d="M386.1,125.2c0,0-27.6-2.7-27.6,25.8c0,0-36.9-10.2-42.3,25.4c0,0-18-11.4-35.3-3.2V142h20v-25h-23l12.7-47H231V0h-25v70
	h-61.7l12.7,47h-22v25h18v34c-2.9,1.3-5.8,3.3-8.5,6.5c0,0-17.8-10.7-31.2,8.9c0,0-8-10.7-25.8-9.8c0,0-8-16.9-27.6-16.9
	s-19.6,1.8-17.8-13.4c1.8-15.1-23.1,8-13.4,26.7c9.8,18.7,19.6,13.4,19.6,13.4s-4.5,21.4,19.6,16.9c0,0,14.2,38.3,59.6,38.3
	c10.3,0,18.6-1,25.4-2.4V430l128-128v-55.6c5.9,1.7,13.7,2.9,23.7,2.9c54.7,0,41.8-9.8,53.4-21.4c0,0,40,1.8,47.2-33.8
	C412.4,158.5,407.1,125.2,386.1,125.2z"/>
<polygon points="153,750 281,622 281,506 153,634 "/>
<polygon points="154,593 282,465 282,349 154,477 "/>
</svg>
