<?xml version="1.0" encoding="utf-8"?>
<!-- Generator: Adobe Illustrator 21.0.0, SVG Export Plug-In . SVG Version: 6.00 Build 0)  -->
<svg version="1.1" xmlns="http://www.w3.org/2000/svg" xmlns:xlink="http://www.w3.org/1999/xlink" x="0px" y="0px"
	 viewBox="0 0 857 483" style="enable-background:new 0 0 857 483;" xml:space="preserve">
<style type="text/css">
	.st0{fill:#999999;}
	.st1{fill:#FFFFFF;}
	.st2{fill:url(#SVGID_1_);}
	.st3{fill:url(#SVGID_2_);}
	.st4{fill:url(#SVGID_3_);}
	.st5{fill:url(#SVGID_4_);}
</style>
<g id="xueqiao">
	<polygon class="st0" points="825.5,355.8 180.9,455.7 89.7,455.3 76.9,421.7 180.1,415.8 799,319.5 	"/>
</g>
<g id="tui">
	<g>
		<path class="st1" d="M396.2,241.3l-133.5,86.7c-15.2,9-34.9,3.9-43.7-11.4l0,0c-8.8-15.1-3.7-34.4,11.3-43.3l126.2-74.7
			L396.2,241.3z"/>
		<path class="st1" d="M369.6,395.1l-142-67.4c-13.7-11.2-15.6-31.4-4.3-45l0,0c11.2-13.4,31.1-15.3,44.6-4.2l113.5,92.9
			L369.6,395.1z"/>
		<polygon class="st1" points="297.8,433.4 391.3,402.8 381.2,372 292.1,416 		"/>
	</g>
</g>
<g id="body">
	<g>
		<polygon class="st1" points="309.7,144.2 227.7,228.3 112.8,217 150.6,162.6 193.5,128.4 315.3,117.5 		"/>
		<path class="st1" d="M410.4,243.4L410.4,243.4c-6.6,14.9-22.6,23.3-38.6,20.2l-63.5-12.4l-63.1-93.4l70.2-40.3l87.7,87.1
			C413.2,214.7,416.2,230.2,410.4,243.4z"/>
		<path class="st1" d="M145.1,169.8c-0.8,24.6-7.8,48.2-31.6,54.5s-34.1,9.5-34.1,9.5S44,150,90.6,138.2
			C114.5,132.2,146.5,123.3,145.1,169.8z"/>
	</g>
</g>
<g id="leg">
	<g>
		<linearGradient id="SVGID_1_" gradientUnits="userSpaceOnUse" x1="196.2408" y1="203.6425" x2="398.9428" y2="376.6149">
			<stop  offset="0" style="stop-color:#FFFFFF"/>
			<stop  offset="0" style="stop-color:#FFFFFF"/>
			<stop  offset="1" style="stop-color:#CCCCCC"/>
		</linearGradient>
		<path class="st2" d="M263.7,259.2l-98.1-37.4c-12.9-8.8-16.2-26.5-7.4-39.4l0,0c8.8-12.9,26.5-16.2,39.4-7.4l84.4,57.3
			L263.7,259.2z"/>
		<linearGradient id="SVGID_2_" gradientUnits="userSpaceOnUse" x1="150.472" y1="257.2779" x2="353.174" y2="430.2503">
			<stop  offset="0" style="stop-color:#FFFFFF"/>
			<stop  offset="0" style="stop-color:#FFFFFF"/>
			<stop  offset="1" style="stop-color:#CCCCCC"/>
		</linearGradient>
		<polygon class="st3" points="187.4,249.7 157.9,294.5 134.8,283.1 158.4,235.3 		"/>
		<linearGradient id="SVGID_3_" gradientUnits="userSpaceOnUse" x1="183.6381" y1="218.4113" x2="386.3402" y2="391.3837">
			<stop  offset="0" style="stop-color:#FFFFFF"/>
			<stop  offset="0" style="stop-color:#FFFFFF"/>
			<stop  offset="1" style="stop-color:#CCCCCC"/>
		</linearGradient>
		<path class="st4" d="M270.5,261.5l-108.6,8.3l-3.9-34.5l109.9-8.4c9.3-0.7,17.5,6.1,18.5,15.3v0
			C287.5,252.1,280.3,260.8,270.5,261.5z"/>
		<linearGradient id="SVGID_4_" gradientUnits="userSpaceOnUse" x1="172.8132" y1="231.0967" x2="375.5153" y2="404.0691">
			<stop  offset="0" style="stop-color:#FFFFFF"/>
			<stop  offset="0" style="stop-color:#FFFFFF"/>
			<stop  offset="1" style="stop-color:#CCCCCC"/>
		</linearGradient>
		<polygon class="st5" points="503.7,435.9 501.7,440.1 125.9,268.7 127.9,264.5 		"/>
	</g>
</g>
</svg>
