<?xml version="1.0" encoding="utf-8"?>
<!-- Generator: Adobe Illustrator 21.0.0, SVG Export Plug-In . SVG Version: 6.00 Build 0)  -->
<svg version="1.1" id="Layer_1" xmlns="http://www.w3.org/2000/svg" xmlns:xlink="http://www.w3.org/1999/xlink" x="0px" y="0px"
	 viewBox="0 0 277 145" style="enable-background:new 0 0 277 145;" xml:space="preserve">
<style type="text/css">
	.st0{fill:#E3C820;}
	.st1{fill:#298E7F;}
</style>
<g>
	<path class="st0" d="M27.8,36.6c-0.2-3.5-1.1-16.1,6-16.1c3.7,0,13.7,1.1,13.7,35l8.7-0.1c0,0,0.4-37.3-22.5-37.3
		C23.9,18,22,26.6,22,36.1c0,9,0.9,16.2,16.6,32c10.5,10.5,10,20.2,10.4,28.2c0.3,5.8-0.2,24.3-6.1,24.3
		c-13.1,0-12.1-45.4-12.1-45.4h-8.4c0,0-2.8,47.3,20.5,47.3c9.1,0,15-4.4,15-26.2c0-8.6,0.4-18.7-9.1-28.2
		C42.3,61.7,28.9,55.3,27.8,36.6z"/>
	<path class="st0" d="M92.3,75.2H83c0,0,1.8,12.7,1.8,18.3s2.3,16.9-4.1,16.9s-5.9-12.4-6-16.9c-0.1-4.6-1.6-18.3-1.6-18.3H64
		c0,0,1.3,13.6,1.2,18.3c0,5.8-0.7,18.3,15.2,18.3S94,101.5,94,93.5S92.3,75.2,92.3,75.2z"/>
	<path class="st0" d="M125.5,108.5c-5.8-5.8-6.9-15.4-7-17.4c7.6-0.4,16.1-2.7,16.1-11.1c0-15.3-22.6-13.1-26-12.9
		c-1.4,0.1-3,0.2-4.5,0.3c-0.3-3.3-0.6-6.9-0.8-10.5h13.3c0,2.5-0.1,4.8-0.1,7l8.8-0.1c0,0,0.5-33.5-16.9-33.5
		c-12.7,0-14,21.7-13.4,36.6c-2.1-0.4-4.4-1.1-6.7-2.3c1.7-3.8,1.4-9.5,1.4-16.8c0,0,0.7-22.1-16.7-22.1
		c-17.4,0-12.7,22.1-12.7,22.1s0.5,22.5,15.5,22.5c6.2,0,9.6-1.4,11.6-4c2.2,0.6,4.8,1.1,7.7,1.6c0.3,7.3,1.1,12.7,1.1,12.7h9.5
		c0,0-0.8-5.1-1.5-11.9c1.4,0.1,2.9,0.1,4.4,0.1c12.8,0,17.6,4.1,17.6,9.9c0,7.9-5.7,10.8-10.5,10.8c-8.3,0-10-5.7-10-5.7l-9.1,0.1
		c1.7,7.1,0.8,26.5,0.8,26.5h9.7c1-8.9-0.7-19.9-0.7-19.9s1,0.2,2.6,0.4c0,0.2,2,10.9,9.2,18.1c7.3,7.3,24.2,5.3,24.2,5.3v-1.6
		C142.3,112.6,132,115,125.5,108.5z M76.1,68.8c-7.5,0-7.8-15.3-8.2-20.9c-0.3-5.2-1.9-20.2,5-20.2c7,0,8.8,14.8,9.3,20.2
		c0.2,2.7,0.6,8.2-0.2,12.8c-1.4-1.1-2.9-2.4-4.4-3.9h-5.6c0,0,1.8,3.9,9.2,7.2C80.3,66.9,78.7,68.8,76.1,68.8z M108.1,33.3
		c7.5,0,8.4,11.4,8.4,22.1h-13.4C102.7,44.1,103.5,33.3,108.1,33.3z"/>
	<path class="st0" d="M166,103.9c0,0-6.4,1.1-11.5,1.2c-3.3,0.1-7.7,0.9-8.4-12.4c-0.3-5.4-0.8-15.5-1.4-25.6l14.4-0.8l-0.1-1.6
		l-14.4,0.8c-0.8-14.3-1.5-28.1-1.5-28.1s-0.6-11.5,9.8-12.1l4.3,0l0-1l-13-0.1c0,0-10.7-0.1-10,13.4c0.7,13.5,3,55.8,3,55.8
		s1.9,13.9,15.4,13.1c13.5-0.7,13.5-0.7,13.5-0.7L166,103.9z"/>
</g>
<g>
	<path class="st1" d="M242.3,112.4c-1.3-0.4-8.9-2-16.6,5.7c-7.3,7.3-24.8,12-50.5-3.1c2-2.2,4.2-5.7,6.4-8.5
		c6.2,1.9,15.3,4.2,21.3,3.6c0.7,5.7,2.5,8.9,2.5,8.9h6.7v-11.8c6.4-1.4,13.2,0,19.2,1.9l0.4-0.9l-13.7-3.7c0,0-2.6-0.9-6-0.9v-1.7
		c6.8,0,12.4,0,12.4,0l-1-1.6h-11.3v-7.5l-7.5,1.5c0,0-0.8,0.6-1.9,6h-11.9c0,0,14.1-2.8,18.9-17.7c4.6-1.2,10.4,0.8,14.8,1.7
		l0.2-0.6c0,0-7.3-3.1-14.5-2.9c0.6-2.3,0.9-4.9,0.9-7.7h-9.4c0,0-0.7,5.1-2.5,10.6c-3.4,1-7.3,1.7-12.3,1.1
		c-11.5-1.3-13.2-13.3-13.2-13.3h-5.4c0,12.6,14.9,14,20.1,14.5c1.9,0.2,5.9,0.5,9.9,0.2c-1.4,3.7-3.4,7.2-5.9,9
		c-9.5,7-26.5,4.9-26.5,4.9c19,0,25.3-13.1,25.3-13.1s-2.3,0.5-4.9,0.5c-10.5,0-18.4-5.2-18.4-5.2l0.1,3.5c0,0,7.6,2.5,13.9,2.5
		c-12.3,12.3-23.4,10.2-23.4,10.2V99c7.3,3.2,20.1,2.9,20.1,2.9c-1.2,0-2.4,0.7-3.5,1.7c0,0,0,0,0,0l0,0.1c-2.1,1.9-3.7,4.6-3.7,4.6
		s-4.5,8.5-13,8.5c-8.5,0-14.4,1.2-14.4,1.2l0.5,1.7c0,0,1.6-1.1,14.3-1.1c12.7,0,13.2-0.9,15-2.2c0.1-0.1,0.3-0.2,0.4-0.3
		c9.8,5.1,41.1,20,55.3,9.9c16.9-12,14.5-12.3,27.9-6.9l0.3-0.9C257.7,118.1,246.2,113.5,242.3,112.4z M187.5,101.9
		c0.6,0,7.5,0,15.1,0c-0.1,0.9-0.1,1.9-0.1,3.1c0,0.5,0,1,0,1.4c-4,2.9-13.7,1.1-20.4-0.6C184,103.5,185.8,101.9,187.5,101.9z"/>
	<path class="st1" d="M211.3,47.1c-6.9-7.6-12.6-8-13.8-8c0,0,0-0.1,0-0.1c7.6-3.6,16.4-2.1,23.9,0.3l0.4-0.9l-13.7-3.7
		c0,0-4.6-1.5-9.5-0.7c2.1-10.7,2-19.3,2-19.3h-11.9c0,9.2-0.7,16.9-1.8,23.4c-8.7,0.3-21.8-4.3-21.8-4.3l-0.3,0.6
		c0,0,11.9,4.4,21.8,5.7c-6.9,35-27.8,32.1-27.8,32.1v2.3c23.5,0,33.9-17.8,38.4-33.9c3.3,0.8,7,3.8,10.1,11.6
		c8.4,20.5,16.8,27,16.8,27c0.8-10.4,18.8-14,18.8-14C220.3,65.1,219.1,55.7,211.3,47.1z"/>
</g>
</svg>
