<?xml version="1.0" encoding="utf-8"?>
<!-- Generator: Adobe Illustrator 21.0.0, SVG Export Plug-In . SVG Version: 6.00 Build 0)  -->
<svg version="1.1" id="Layer_1" xmlns="http://www.w3.org/2000/svg" xmlns:xlink="http://www.w3.org/1999/xlink" x="0px" y="0px"
	 viewBox="0 0 1055 545" style="enable-background:new 0 0 1055 545;" xml:space="preserve">
<style type="text/css">
	.st0{fill:#6B7B9B;}
	.st1{fill:#484B66;}
	.st2{fill:#D3DEEF;}
	.st3{fill:#D3DEEF;stroke:#000000;stroke-width:9;stroke-miterlimit:10;}
	.st4{fill:#BDCCD4;}
</style>
<g>
	<rect x="0.3" y="0.3" class="st0" width="1054.3" height="290.7"/>
	<rect x="0.3" y="213.4" class="st1" width="1054.3" height="331.4"/>
	<rect x="117.8" y="315.8" class="st2" width="845.7" height="228.9"/>
	<circle class="st3" cx="523.4" cy="265" r="27.7"/>
	<rect x="523.4" y="262.7" width="31.6" height="5.3"/>
	<rect x="869.4" y="315.8" class="st4" width="18.1" height="228.9"/>
	<rect x="782" y="315.8" class="st4" width="18.1" height="228.9"/>
	<rect x="694.7" y="315.8" class="st4" width="18.1" height="228.9"/>
	<rect x="607.3" y="315.8" class="st4" width="18.1" height="228.9"/>
	<rect x="520" y="315.8" class="st4" width="18.1" height="228.9"/>
	<rect x="432.6" y="315.8" class="st4" width="18.1" height="228.9"/>
	<rect x="345.2" y="315.8" class="st4" width="18.1" height="228.9"/>
	<rect x="257.9" y="315.8" class="st4" width="18.1" height="228.9"/>
	<rect x="170.5" y="315.8" class="st4" width="18.1" height="228.9"/>
	<rect x="82.8" y="364.8" class="st1" width="916.1" height="6.8"/>
	<rect x="83.5" y="419.7" class="st1" width="916.1" height="6.8"/>
	<rect x="84.3" y="474.7" class="st1" width="916.1" height="6.8"/>
	<rect x="538" y="481.5" class="st0" width="69.3" height="63.3"/>
	<rect x="450.7" y="481.5" class="st0" width="69.3" height="63.3"/>
</g>
</svg>
