<?xml version="1.0" encoding="utf-8"?>
<!-- Generator: Adobe Illustrator 21.0.0, SVG Export Plug-In . SVG Version: 6.00 Build 0)  -->
<svg version="1.1" id="Layer_1" xmlns="http://www.w3.org/2000/svg" xmlns:xlink="http://www.w3.org/1999/xlink" x="0px" y="0px"
	 viewBox="0 0 750 717" style="enable-background:new 0 0 750 717;" xml:space="preserve">
<style type="text/css">
	.st0{fill:none;}
	.st1{font-family:'FZCSK--GBK1-0';}
	.st2{font-size:25px;}
</style>
<rect x="21" y="22" class="st0" width="712" height="120"/>
<text transform="matrix(1 0 0 1 21 39.0898)" class="st1 st2">XingHai square is the biggest square in city. Made in 1993 </text>
<text transform="matrix(1 0 0 1 21 69.0898)" class="st1 st2">and completed in 1997. There were 114 hectare been fill </text>
<text transform="matrix(1 0 0 1 21 99.0898)" class="st1 st2">building waste in sea.</text>
<g>
	<path d="M367.2,157.5c-12.6,0-13.7,19.6-13.7,19.6H206v-19.6h-30v126.4h14.5l8.4-21c0,0,79.1,0,117.4,0s35.1,28.5,35.1,28.5h29.4
		v-84c0-29.4,9.4-49.7,9.4-49.7S379.9,157.5,367.2,157.5z M351.5,259.6H199.9c6.5-22.6,6.1-37.5,6.1-37.5h145.5V259.6z M351.1,219.3
		H206v-25.5c0,0,0-13,13.5-13s132.9,0,132.9,0S351.1,190.9,351.1,219.3z"/>
	<path d="M223.3,249c0,0-2.6,72.4-24.9,94.6s-42,27.3-104.8,27.3v3.7c0,0,96.9,2.9,122.7-18.8c12.6-10.6,36.3-40.8,36.3-106.8H223.3
		z"/>
	<rect x="196" y="310.2" width="154.1" height="3.7"/>
	<rect x="384" y="412" transform="matrix(0.967 0.2548 -0.2548 0.967 119.7683 -97.0881)" width="101.4" height="3.7"/>
	<rect x="221.3" y="360.3" width="128.8" height="3.7"/>
	<rect x="526.2" y="340.8" width="128.8" height="3.7"/>
	<rect x="526.2" y="452.1" width="115.8" height="3.7"/>
	<path d="M293,413.3h-24.9V280h29.8c0,0,0,114.6,0,114.7C297.9,409.2,293,413.3,293,413.3z"/>
	<path d="M651,399.1c0,0-91.2-0.4-91.3-0.4c-17.5,0-27.7,6.5-27.7,6.5V388h-29.8v133.3H527c0,0,4.9-4.1,4.9-18.7v-68.2
		c0-25.3,19.2-31.8,28.9-31.8H651V399.1z"/>
	<path d="M433.7,329.3c-0.1,0-0.1,0-0.2,0.1l-40.9-9.5c0,0-38.3-1.4-59.6,48.5c-21.3,49.8-42.3,74.4-131.2,85.9
		c-56.8,7.4-86.9,30.8-86.9,30.8l2,4.9c0,0,19.7-23.2,88.3-26.8c67.1-3.4,114.5-10.2,139.7-69.1c31.5-73.5,74.2-66.8,85.6-63.4
		c-26.5,10.8-42.9,17.9-63.4,65.7c-21.3,49.8-45.6,70.5-134.8,79c-123.9,11.8-196.4,85.2-196.4,85.2l1.4,3.4c0,0,92.7-82.3,201.4-74
		c67,5.1,125-20.8,150.2-79.6c35-81.6,88.8-67.4,88.8-67.4l0.9-2.2C478.3,340.8,434,329.2,433.7,329.3z"/>
	<path d="M431.8,414.9c0,0-15.4-5.9-39.7,18.4s-29.4,50.6-72.2,37.9c-42.8-12.6-64-19.2-64-19.2l-1.6,2.9l78.7,24.5
		c0,0,45.9,14.1,81.1-21.2s33.3-38.4,56.2-33.1"/>
	<rect x="384" y="480.9" transform="matrix(0.967 0.2548 -0.2548 0.967 137.3218 -94.8146)" width="101.4" height="3.7"/>
	<path d="M431.8,483.8c0,0-15.4-5.9-39.7,18.4c-24.3,24.3-29.4,50.6-72.2,37.9s-42.8-12.6-42.8-12.6l-1.6,2.9l57.5,17.9
		c0,0,45.9,14.1,81.1-21.2c35.3-35.3,33.3-38.4,56.2-33.1"/>
	<path d="M510.3,273.5c0,0,5.4,52.4-14.7,89.7c-13.5,25.2-39.8,38.7-66,36.3c-13.5-1.2-38.3-11.4-38.3-11.4l-1.2,3.3
		c0,0,160.2,73,160.2-117.8H510.3z"/>
	<path d="M517.1,672.6c76,34,87.1-7,88.5-30.4c2.9-49.9-11.8-155.9,0-200c11.8-44,48.5-44,48.5-44h60.2l0.2,3.3
		c0,0-69.4-10.6-69.4,53c0,24.2,1.4,68.7,1.4,145.3S601.2,706.7,517.3,679L517.1,672.6z"/>
	<path d="M533.1,521.4c0,0-9.4-15.1,38.3-15.1h42V503h-81.1h-9.8v18.3H533.1z"/>
	<path d="M575.9,474.5l18.9,5.7l0.8-2.7l-49.2-14.8c0,0-2.7,26.9,16.4,35.5c17.2,7.7,37.5,8.2,37.5,8.2v-2.9
		C575.4,504.5,575.6,479.4,575.9,474.5z"/>
	<path d="M575.9,423.9l18.9,5.7l0.8-2.7l-49.2-14.8c0,0-2.7,26.9,16.4,35.5c17.2,7.7,37.5,8.2,37.5,8.2v-2.9
		C575.4,454,575.6,428.8,575.9,423.9z"/>
</g>
</svg>
