<?xml version="1.0" encoding="utf-8"?>
<!-- Generator: Adobe Illustrator 21.0.0, SVG Export Plug-In . SVG Version: 6.00 Build 0)  -->
<svg version="1.1" xmlns="http://www.w3.org/2000/svg" xmlns:xlink="http://www.w3.org/1999/xlink" x="0px" y="0px"
	 viewBox="0 0 4720 452" style="enable-background:new 0 0 4720 452;" xml:space="preserve">
<style type="text/css">
	.st0{fill:#7F7479;}
	.st1{fill:#4D4D4D;}
	.st2{fill:#E56C65;}
	.st3{fill:#666666;}
	.st4{fill:#808080;}
	.st5{fill:#F7F5EA;}
	.st6{fill:#DDDACE;}
	.st7{fill:#BFBCAF;}
	.st8{fill:#8C4B4B;}
	.st9{fill:#CECAC6;}
	.st10{fill:#718C6C;}
	.st11{fill:#4A5647;}
</style>
<g id="Layer_1">
	<g>
		<polygon class="st0" points="4671.4,-516.8 4574.2,-516.8 4563.5,-548.8 4660.7,-548.8 		"/>
		<g>
			<rect x="4008.7" y="-570.2" class="st1" width="85" height="46.5"/>
			<circle class="st1" cx="4117" cy="-533.2" r="24.2"/>
			<circle class="st1" cx="4167.5" cy="-533.2" r="24.2"/>
			<circle class="st1" cx="3985.4" cy="-533.2" r="24.2"/>
			<circle class="st1" cx="3934.9" cy="-533.2" r="24.2"/>
		</g>
		<g>
			<rect x="4385.1" y="-558" class="st1" width="85" height="34.3"/>
			<circle class="st1" cx="4493.5" cy="-533.2" r="24.2"/>
			<circle class="st1" cx="4543.9" cy="-533.2" r="24.2"/>
			<circle class="st1" cx="4361.8" cy="-533.2" r="24.2"/>
			<circle class="st1" cx="4311.4" cy="-533.2" r="24.2"/>
		</g>
		<polygon class="st2" points="4661.1,-548.8 3907.6,-548.8 3901.9,-534.3 3886.1,-534.3 3886.1,-740.1 3932.7,-740.1 
			3966.4,-713.4 4434.3,-713.4 4522.9,-758.4 4613.1,-758.4 4648.9,-735.5 4674.9,-591.1 		"/>
		<polygon class="st0" points="4210.7,-713.4 3966.1,-713.4 3945.5,-730.2 4210.7,-730.2 		"/>
		<polygon class="st2" points="4475.4,-707.3 4258.7,-707.3 4272.4,-740.1 4466.3,-740.1 		"/>
		<rect x="4180.2" y="-548.8" class="st3" width="120.4" height="25.1"/>
		<rect x="4307.5" y="-536.6" class="st4" width="242.3" height="3.8"/>
		<rect x="3924.9" y="-536.6" class="st4" width="242.3" height="3.8"/>
		<polygon class="st5" points="4646.6,-566.3 4563.5,-566.3 4550.6,-585.4 3966.8,-585.4 3964.6,-566.3 3886.1,-566.3 
			3886.1,-696.7 4634.4,-696.7 4655.7,-592.2 		"/>
		<g>
			<rect x="3979.8" y="-680.7" class="st6" width="7.6" height="73.9"/>
			<rect x="3992.7" y="-680.7" class="st6" width="7.6" height="73.9"/>
			<rect x="4005.7" y="-680.7" class="st6" width="7.6" height="73.9"/>
			<rect x="4018.7" y="-680.7" class="st6" width="7.6" height="73.9"/>
			<rect x="4031.6" y="-680.7" class="st6" width="7.6" height="73.9"/>
		</g>
		<g>
			<rect x="4048.4" y="-680.7" class="st6" width="7.6" height="73.9"/>
			<rect x="4061.3" y="-680.7" class="st6" width="7.6" height="73.9"/>
			<rect x="4074.3" y="-680.7" class="st6" width="7.6" height="73.9"/>
			<rect x="4087.2" y="-680.7" class="st6" width="7.6" height="73.9"/>
			<rect x="4100.2" y="-680.7" class="st6" width="7.6" height="73.9"/>
		</g>
		<g>
			<rect x="4232.8" y="-680.7" class="st6" width="7.6" height="73.9"/>
			<rect x="4245.7" y="-680.7" class="st6" width="7.6" height="73.9"/>
			<rect x="4258.7" y="-680.7" class="st6" width="7.6" height="73.9"/>
			<rect x="4271.7" y="-680.7" class="st6" width="7.6" height="73.9"/>
			<rect x="4284.6" y="-680.7" class="st6" width="7.6" height="73.9"/>
		</g>
		<g>
			<rect x="4301.4" y="-680.7" class="st6" width="7.6" height="73.9"/>
			<rect x="4314.3" y="-680.7" class="st6" width="7.6" height="73.9"/>
			<rect x="4327.3" y="-680.7" class="st6" width="7.6" height="73.9"/>
			<rect x="4340.2" y="-680.7" class="st6" width="7.6" height="73.9"/>
			<rect x="4353.2" y="-680.7" class="st6" width="7.6" height="73.9"/>
		</g>
		<rect x="4568.1" y="-662.4" class="st6" width="51.1" height="96"/>
		<rect x="3899" y="-662.4" class="st6" width="51.1" height="96"/>
		<path class="st1" d="M3931.2-609.8h-12.5c-5,0-9-4-9-9V-648c0-5,4-9,9-9h12.5c5,0,9,4,9,9v29.3
			C3940.2-613.8,3936.1-609.8,3931.2-609.8z"/>
		<path class="st1" d="M4600.3-609.8h-12.5c-5,0-9-4-9-9V-648c0-5,4-9,9-9h12.5c5,0,9,4,9,9v29.3
			C4609.2-613.8,4605.2-609.8,4600.3-609.8z"/>
		<rect x="4537.6" y="-637.2" class="st6" width="6.9" height="67.1"/>
		<polygon class="st0" points="4060.6,-751.5 4062.9,-751.5 4050.7,-766 4049.9,-766 4048.4,-766 4014.8,-766 4012.6,-766 
			4000.4,-751.5 4002.7,-751.5 4013.6,-764.5 4049.7,-764.5 		"/>
		<polygon class="st0" points="4033.9,-764.5 4030.1,-764.5 4005.7,-730.2 4009.5,-730.2 		"/>
	</g>
	<g>
		<g>
			<rect x="3223" y="-543.4" class="st1" width="85" height="19.7"/>
			<circle class="st1" cx="3331.3" cy="-533.2" r="24.2"/>
			<circle class="st1" cx="3381.8" cy="-533.2" r="24.2"/>
			<circle class="st1" cx="3199.7" cy="-533.2" r="24.2"/>
			<circle class="st1" cx="3149.3" cy="-533.2" r="24.2"/>
		</g>
		<g>
			<rect x="3669.6" y="-543.4" class="st1" width="85" height="19.7"/>
			<circle class="st1" cx="3777.9" cy="-533.2" r="24.2"/>
			<circle class="st1" cx="3828.3" cy="-533.2" r="24.2"/>
			<circle class="st1" cx="3646.3" cy="-533.2" r="24.2"/>
			<circle class="st1" cx="3595.8" cy="-533.2" r="24.2"/>
		</g>
		<rect x="3124.8" y="-696.7" class="st5" width="738.4" height="157.7"/>
		<path class="st0" d="M3848.7-711.1h-709.5c-8,0-14.5,6.5-14.5,14.5v0h738.4v0C3863.2-704.6,3856.7-711.1,3848.7-711.1z"/>
		<rect x="3124.8" y="-679.1" class="st2" width="738.4" height="88.4"/>
		<polygon class="st7" points="3863.2,-538.9 3563.7,-538.9 3560,-525.2 3417.4,-525.2 3412.8,-538.9 3119.4,-538.9 3119.4,-558 
			3863.2,-558 		"/>
		<g>
			<path class="st8" d="M3175.8-558h-42.7v-98.4c0-3.3,2.7-6,6-6h30.7c3.3,0,6,2.7,6,6V-558z"/>
			<rect x="3133.2" y="-590.7" class="st9" width="42.7" height="32.8"/>
			<path class="st1" d="M3160.8-609.8h-12.5c-5,0-9-4-9-9V-648c0-5,4-9,9-9h12.5c5,0,9,4,9,9v29.3
				C3169.7-613.8,3165.7-609.8,3160.8-609.8z"/>
		</g>
		<g>
			<path class="st8" d="M3849.5-558h-42.7v-98.4c0-3.3,2.7-6,6-6h30.7c3.3,0,6,2.7,6,6V-558z"/>
			<rect x="3806.8" y="-590.7" class="st9" width="42.7" height="32.8"/>
			<path class="st1" d="M3834.4-609.8h-12.5c-5,0-9-4-9-9V-648c0-5,4-9,9-9h12.5c5,0,9,4,9,9v29.3
				C3843.4-613.8,3839.4-609.8,3834.4-609.8z"/>
		</g>
		<path class="st1" d="M3221-609.8h-12.5c-5,0-9-4-9-9V-648c0-5,4-9,9-9h12.5c5,0,9,4,9,9v29.3
			C3229.9-613.8,3225.9-609.8,3221-609.8z"/>
		<path class="st1" d="M3276.6-609.8h-12.5c-5,0-9-4-9-9V-648c0-5,4-9,9-9h12.5c5,0,9,4,9,9v29.3
			C3285.6-613.8,3281.5-609.8,3276.6-609.8z"/>
		<path class="st1" d="M3332.2-609.8h-12.5c-5,0-9-4-9-9V-648c0-5,4-9,9-9h12.5c5,0,9,4,9,9v29.3
			C3341.2-613.8,3337.2-609.8,3332.2-609.8z"/>
		<path class="st1" d="M3387.8-609.8h-12.5c-5,0-9-4-9-9V-648c0-5,4-9,9-9h12.5c5,0,9,4,9,9v29.3
			C3396.8-613.8,3392.8-609.8,3387.8-609.8z"/>
		<path class="st1" d="M3443.5-609.8H3431c-5,0-9-4-9-9V-648c0-5,4-9,9-9h12.5c5,0,9,4,9,9v29.3
			C3452.5-613.8,3448.4-609.8,3443.5-609.8z"/>
		<path class="st1" d="M3499.1-609.8h-12.5c-5,0-9-4-9-9V-648c0-5,4-9,9-9h12.5c5,0,9,4,9,9v29.3
			C3508.1-613.8,3504.1-609.8,3499.1-609.8z"/>
		<path class="st1" d="M3554.7-609.8h-12.5c-5,0-9-4-9-9V-648c0-5,4-9,9-9h12.5c5,0,9,4,9,9v29.3
			C3563.7-613.8,3559.7-609.8,3554.7-609.8z"/>
		<path class="st1" d="M3610.4-609.8h-12.5c-5,0-9-4-9-9V-648c0-5,4-9,9-9h12.5c5,0,9,4,9,9v29.3
			C3619.3-613.8,3615.3-609.8,3610.4-609.8z"/>
		<path class="st1" d="M3666-609.8h-12.5c-5,0-9-4-9-9V-648c0-5,4-9,9-9h12.5c5,0,9,4,9,9v29.3C3675-613.8,3671-609.8,3666-609.8z"
			/>
		<path class="st1" d="M3721.6-609.8h-12.5c-5,0-9-4-9-9V-648c0-5,4-9,9-9h12.5c5,0,9,4,9,9v29.3
			C3730.6-613.8,3726.6-609.8,3721.6-609.8z"/>
		<path class="st1" d="M3777.3-609.8h-12.5c-5,0-9-4-9-9V-648c0-5,4-9,9-9h12.5c5,0,9,4,9,9v29.3
			C3786.2-613.8,3782.2-609.8,3777.3-609.8z"/>
		<polygon class="st1" points="3878.4,-680.7 3878.4,-677.2 3870.8,-677.2 3870.8,-680.7 3863.2,-680.7 3863.2,-554.2 
			3870.8,-554.2 3870.8,-557.6 3878.4,-557.6 3878.4,-554.2 3886.1,-554.2 3886.1,-680.7 		"/>
		<rect x="3124.8" y="-566.3" class="st2" width="738.4" height="8.4"/>
		<rect x="3762.6" y="-721.8" class="st0" width="44.2" height="13.7"/>
		<rect x="3647.5" y="-721.8" class="st0" width="44.2" height="13.7"/>
		<rect x="3532.5" y="-721.8" class="st0" width="44.2" height="13.7"/>
		<rect x="3417.4" y="-721.8" class="st0" width="44.2" height="13.7"/>
		<rect x="3302.3" y="-721.8" class="st0" width="44.2" height="13.7"/>
		<rect x="3187.3" y="-721.8" class="st0" width="44.2" height="13.7"/>
	</g>
	<g>
		<g>
			<rect x="2457.2" y="-543.4" class="st1" width="85" height="19.7"/>
			<circle class="st1" cx="2565.5" cy="-533.2" r="24.2"/>
			<circle class="st1" cx="2615.9" cy="-533.2" r="24.2"/>
			<circle class="st1" cx="2433.9" cy="-533.2" r="24.2"/>
			<circle class="st1" cx="2383.4" cy="-533.2" r="24.2"/>
		</g>
		<g>
			<rect x="2903.7" y="-543.4" class="st1" width="85" height="19.7"/>
			<circle class="st1" cx="3012" cy="-533.2" r="24.2"/>
			<circle class="st1" cx="3062.5" cy="-533.2" r="24.2"/>
			<circle class="st1" cx="2880.4" cy="-533.2" r="24.2"/>
			<circle class="st1" cx="2830" cy="-533.2" r="24.2"/>
		</g>
		<rect x="2358.9" y="-696.7" class="st5" width="738.4" height="157.7"/>
		<path class="st0" d="M3082.9-711.1h-709.5c-8,0-14.5,6.5-14.5,14.5v0h738.4v0C3097.3-704.6,3090.9-711.1,3082.9-711.1z"/>
		<rect x="2358.9" y="-679.1" class="st2" width="738.4" height="88.4"/>
		<polygon class="st7" points="3097.3,-538.9 2797.9,-538.9 2794.2,-525.2 2651.6,-525.2 2647,-538.9 2353.6,-538.9 2353.6,-558 
			3097.3,-558 		"/>
		<g>
			<path class="st8" d="M2410-558h-42.7v-98.4c0-3.3,2.7-6,6-6h30.7c3.3,0,6,2.7,6,6V-558z"/>
			<rect x="2367.3" y="-590.7" class="st9" width="42.7" height="32.8"/>
			<path class="st1" d="M2394.9-609.8h-12.5c-5,0-9-4-9-9V-648c0-5,4-9,9-9h12.5c5,0,9,4,9,9v29.3
				C2403.9-613.8,2399.9-609.8,2394.9-609.8z"/>
		</g>
		<g>
			<path class="st8" d="M3083.6-558h-42.7v-98.4c0-3.3,2.7-6,6-6h30.7c3.3,0,6,2.7,6,6V-558z"/>
			<rect x="3040.9" y="-590.7" class="st9" width="42.7" height="32.8"/>
			<path class="st1" d="M3068.5-609.8H3056c-5,0-9-4-9-9V-648c0-5,4-9,9-9h12.5c5,0,9,4,9,9v29.3
				C3077.5-613.8,3073.5-609.8,3068.5-609.8z"/>
		</g>
		<path class="st1" d="M2455.1-609.8h-12.5c-5,0-9-4-9-9V-648c0-5,4-9,9-9h12.5c5,0,9,4,9,9v29.3
			C2464.1-613.8,2460.1-609.8,2455.1-609.8z"/>
		<path class="st1" d="M2510.7-609.8h-12.5c-5,0-9-4-9-9V-648c0-5,4-9,9-9h12.5c5,0,9,4,9,9v29.3
			C2519.7-613.8,2515.7-609.8,2510.7-609.8z"/>
		<path class="st1" d="M2566.4-609.8h-12.5c-5,0-9-4-9-9V-648c0-5,4-9,9-9h12.5c5,0,9,4,9,9v29.3
			C2575.3-613.8,2571.3-609.8,2566.4-609.8z"/>
		<path class="st1" d="M2622-609.8h-12.5c-5,0-9-4-9-9V-648c0-5,4-9,9-9h12.5c5,0,9,4,9,9v29.3C2631-613.8,2626.9-609.8,2622-609.8z
			"/>
		<path class="st1" d="M2677.6-609.8h-12.5c-5,0-9-4-9-9V-648c0-5,4-9,9-9h12.5c5,0,9,4,9,9v29.3
			C2686.6-613.8,2682.6-609.8,2677.6-609.8z"/>
		<path class="st1" d="M2733.2-609.8h-12.5c-5,0-9-4-9-9V-648c0-5,4-9,9-9h12.5c5,0,9,4,9,9v29.3
			C2742.2-613.8,2738.2-609.8,2733.2-609.8z"/>
		<path class="st1" d="M2788.9-609.8h-12.5c-5,0-9-4-9-9V-648c0-5,4-9,9-9h12.5c5,0,9,4,9,9v29.3
			C2797.9-613.8,2793.8-609.8,2788.9-609.8z"/>
		<path class="st1" d="M2844.5-609.8H2832c-5,0-9-4-9-9V-648c0-5,4-9,9-9h12.5c5,0,9,4,9,9v29.3
			C2853.5-613.8,2849.5-609.8,2844.5-609.8z"/>
		<path class="st1" d="M2900.1-609.8h-12.5c-5,0-9-4-9-9V-648c0-5,4-9,9-9h12.5c5,0,9,4,9,9v29.3
			C2909.1-613.8,2905.1-609.8,2900.1-609.8z"/>
		<path class="st1" d="M2955.8-609.8h-12.5c-5,0-9-4-9-9V-648c0-5,4-9,9-9h12.5c5,0,9,4,9,9v29.3
			C2964.7-613.8,2960.7-609.8,2955.8-609.8z"/>
		<path class="st1" d="M3011.4-609.8h-12.5c-5,0-9-4-9-9V-648c0-5,4-9,9-9h12.5c5,0,9,4,9,9v29.3
			C3020.4-613.8,3016.4-609.8,3011.4-609.8z"/>
		<polygon class="st1" points="3112.6,-680.7 3112.6,-677.2 3105,-677.2 3105,-680.7 3097.3,-680.7 3097.3,-554.2 3105,-554.2 
			3105,-557.6 3112.6,-557.6 3112.6,-554.2 3120.2,-554.2 3120.2,-680.7 		"/>
		<rect x="2358.9" y="-566.3" class="st2" width="738.4" height="8.4"/>
		<rect x="2996.8" y="-721.8" class="st0" width="44.2" height="13.7"/>
		<rect x="2881.7" y="-721.8" class="st0" width="44.2" height="13.7"/>
		<rect x="2766.6" y="-721.8" class="st0" width="44.2" height="13.7"/>
		<rect x="2651.5" y="-721.8" class="st0" width="44.2" height="13.7"/>
		<rect x="2536.5" y="-721.8" class="st0" width="44.2" height="13.7"/>
		<rect x="2421.4" y="-721.8" class="st0" width="44.2" height="13.7"/>
	</g>
	<g>
		<g>
			<rect x="1691.3" y="-543.4" class="st1" width="85" height="19.7"/>
			<circle class="st1" cx="1799.6" cy="-533.2" r="24.2"/>
			<circle class="st1" cx="1850.1" cy="-533.2" r="24.2"/>
			<circle class="st1" cx="1668" cy="-533.2" r="24.2"/>
			<circle class="st1" cx="1617.5" cy="-533.2" r="24.2"/>
		</g>
		<g>
			<rect x="2137.9" y="-543.4" class="st1" width="85" height="19.7"/>
			<circle class="st1" cx="2246.2" cy="-533.2" r="24.2"/>
			<circle class="st1" cx="2296.6" cy="-533.2" r="24.2"/>
			<circle class="st1" cx="2114.6" cy="-533.2" r="24.2"/>
			<circle class="st1" cx="2064.1" cy="-533.2" r="24.2"/>
		</g>
		<rect x="1593.1" y="-696.7" class="st5" width="738.4" height="157.7"/>
		<path class="st0" d="M2317-711.1h-709.5c-8,0-14.5,6.5-14.5,14.5v0h738.4v0C2331.5-704.6,2325-711.1,2317-711.1z"/>
		<rect x="1593.1" y="-679.1" class="st2" width="738.4" height="88.4"/>
		<polygon class="st7" points="2331.5,-538.9 2032,-538.9 2028.3,-525.2 1885.7,-525.2 1881.1,-538.9 1587.7,-538.9 1587.7,-558 
			2331.5,-558 		"/>
		<g>
			<path class="st8" d="M1644.1-558h-42.7v-98.4c0-3.3,2.7-6,6-6h30.7c3.3,0,6,2.7,6,6V-558z"/>
			<rect x="1601.4" y="-590.7" class="st9" width="42.7" height="32.8"/>
			<path class="st1" d="M1629-609.8h-12.5c-5,0-9-4-9-9V-648c0-5,4-9,9-9h12.5c5,0,9,4,9,9v29.3C1638-613.8,1634-609.8,1629-609.8z"
				/>
		</g>
		<g>
			<path class="st8" d="M2317.8-558h-42.7v-98.4c0-3.3,2.7-6,6-6h30.7c3.3,0,6,2.7,6,6V-558z"/>
			<rect x="2275.1" y="-590.7" class="st9" width="42.7" height="32.8"/>
			<path class="st1" d="M2302.7-609.8h-12.5c-5,0-9-4-9-9V-648c0-5,4-9,9-9h12.5c5,0,9,4,9,9v29.3
				C2311.7-613.8,2307.6-609.8,2302.7-609.8z"/>
		</g>
		<path class="st1" d="M1689.2-609.8h-12.5c-5,0-9-4-9-9V-648c0-5,4-9,9-9h12.5c5,0,9,4,9,9v29.3
			C1698.2-613.8,1694.2-609.8,1689.2-609.8z"/>
		<path class="st1" d="M1744.9-609.8h-12.5c-5,0-9-4-9-9V-648c0-5,4-9,9-9h12.5c5,0,9,4,9,9v29.3
			C1753.8-613.8,1749.8-609.8,1744.9-609.8z"/>
		<path class="st1" d="M1800.5-609.8H1788c-5,0-9-4-9-9V-648c0-5,4-9,9-9h12.5c5,0,9,4,9,9v29.3
			C1809.5-613.8,1805.5-609.8,1800.5-609.8z"/>
		<path class="st1" d="M1856.1-609.8h-12.5c-5,0-9-4-9-9V-648c0-5,4-9,9-9h12.5c5,0,9,4,9,9v29.3
			C1865.1-613.8,1861.1-609.8,1856.1-609.8z"/>
		<path class="st1" d="M1911.8-609.8h-12.5c-5,0-9-4-9-9V-648c0-5,4-9,9-9h12.5c5,0,9,4,9,9v29.3
			C1920.7-613.8,1916.7-609.8,1911.8-609.8z"/>
		<path class="st1" d="M1967.4-609.8h-12.5c-5,0-9-4-9-9V-648c0-5,4-9,9-9h12.5c5,0,9,4,9,9v29.3
			C1976.4-613.8,1972.3-609.8,1967.4-609.8z"/>
		<path class="st1" d="M2023-609.8h-12.5c-5,0-9-4-9-9V-648c0-5,4-9,9-9h12.5c5,0,9,4,9,9v29.3C2032-613.8,2028-609.8,2023-609.8z"
			/>
		<path class="st1" d="M2078.6-609.8h-12.5c-5,0-9-4-9-9V-648c0-5,4-9,9-9h12.5c5,0,9,4,9,9v29.3
			C2087.6-613.8,2083.6-609.8,2078.6-609.8z"/>
		<path class="st1" d="M2134.3-609.8h-12.5c-5,0-9-4-9-9V-648c0-5,4-9,9-9h12.5c5,0,9,4,9,9v29.3
			C2143.3-613.8,2139.2-609.8,2134.3-609.8z"/>
		<path class="st1" d="M2189.9-609.8h-12.5c-5,0-9-4-9-9V-648c0-5,4-9,9-9h12.5c5,0,9,4,9,9v29.3
			C2198.9-613.8,2194.9-609.8,2189.9-609.8z"/>
		<path class="st1" d="M2245.5-609.8H2233c-5,0-9-4-9-9V-648c0-5,4-9,9-9h12.5c5,0,9,4,9,9v29.3
			C2254.5-613.8,2250.5-609.8,2245.5-609.8z"/>
		<polygon class="st1" points="2346.7,-680.7 2346.7,-677.2 2339.1,-677.2 2339.1,-680.7 2331.5,-680.7 2331.5,-554.2 
			2339.1,-554.2 2339.1,-557.6 2346.7,-557.6 2346.7,-554.2 2354.3,-554.2 2354.3,-680.7 		"/>
		<rect x="1593.1" y="-566.3" class="st2" width="738.4" height="8.4"/>
		<rect x="2230.9" y="-721.8" class="st0" width="44.2" height="13.7"/>
		<rect x="2115.8" y="-721.8" class="st0" width="44.2" height="13.7"/>
		<rect x="2000.8" y="-721.8" class="st0" width="44.2" height="13.7"/>
		<rect x="1885.7" y="-721.8" class="st0" width="44.2" height="13.7"/>
		<rect x="1770.6" y="-721.8" class="st0" width="44.2" height="13.7"/>
		<rect x="1655.5" y="-721.8" class="st0" width="44.2" height="13.7"/>
	</g>
	<g>
		<g>
			<rect x="925.4" y="-543.4" class="st1" width="85" height="19.7"/>
			<circle class="st1" cx="1033.7" cy="-533.2" r="24.2"/>
			<circle class="st1" cx="1084.2" cy="-533.2" r="24.2"/>
			<circle class="st1" cx="902.1" cy="-533.2" r="24.2"/>
			<circle class="st1" cx="851.7" cy="-533.2" r="24.2"/>
		</g>
		<g>
			<rect x="1372" y="-543.4" class="st1" width="85" height="19.7"/>
			<circle class="st1" cx="1480.3" cy="-533.2" r="24.2"/>
			<circle class="st1" cx="1530.8" cy="-533.2" r="24.2"/>
			<circle class="st1" cx="1348.7" cy="-533.2" r="24.2"/>
			<circle class="st1" cx="1298.2" cy="-533.2" r="24.2"/>
		</g>
		<rect x="827.2" y="-696.7" class="st5" width="738.4" height="157.7"/>
		<path class="st0" d="M1551.1-711.1H841.7c-8,0-14.5,6.5-14.5,14.5v0h738.4v0C1565.6-704.6,1559.1-711.1,1551.1-711.1z"/>
		<rect x="827.2" y="-679.1" class="st2" width="738.4" height="88.4"/>
		<polygon class="st7" points="1565.6,-538.9 1266.1,-538.9 1262.4,-525.2 1119.9,-525.2 1115.3,-538.9 821.9,-538.9 821.9,-558 
			1565.6,-558 		"/>
		<g>
			<path class="st8" d="M878.3-558h-42.7v-98.4c0-3.3,2.7-6,6-6h30.7c3.3,0,6,2.7,6,6V-558z"/>
			<rect x="835.6" y="-590.7" class="st9" width="42.7" height="32.8"/>
			<path class="st1" d="M863.2-609.8h-12.5c-5,0-9-4-9-9V-648c0-5,4-9,9-9h12.5c5,0,9,4,9,9v29.3
				C872.2-613.8,868.1-609.8,863.2-609.8z"/>
		</g>
		<g>
			<path class="st8" d="M1551.9-558h-42.7v-98.4c0-3.3,2.7-6,6-6h30.7c3.3,0,6,2.7,6,6V-558z"/>
			<rect x="1509.2" y="-590.7" class="st9" width="42.7" height="32.8"/>
			<path class="st1" d="M1536.8-609.8h-12.5c-5,0-9-4-9-9V-648c0-5,4-9,9-9h12.5c5,0,9,4,9,9v29.3
				C1545.8-613.8,1541.8-609.8,1536.8-609.8z"/>
		</g>
		<path class="st1" d="M923.4-609.8h-12.5c-5,0-9-4-9-9V-648c0-5,4-9,9-9h12.5c5,0,9,4,9,9v29.3
			C932.4-613.8,928.3-609.8,923.4-609.8z"/>
		<path class="st1" d="M979-609.8h-12.5c-5,0-9-4-9-9V-648c0-5,4-9,9-9H979c5,0,9,4,9,9v29.3C988-613.8,984-609.8,979-609.8z"/>
		<path class="st1" d="M1034.6-609.8h-12.5c-5,0-9-4-9-9V-648c0-5,4-9,9-9h12.5c5,0,9,4,9,9v29.3
			C1043.6-613.8,1039.6-609.8,1034.6-609.8z"/>
		<path class="st1" d="M1090.3-609.8h-12.5c-5,0-9-4-9-9V-648c0-5,4-9,9-9h12.5c5,0,9,4,9,9v29.3
			C1099.2-613.8,1095.2-609.8,1090.3-609.8z"/>
		<path class="st1" d="M1145.9-609.8h-12.5c-5,0-9-4-9-9V-648c0-5,4-9,9-9h12.5c5,0,9,4,9,9v29.3
			C1154.9-613.8,1150.9-609.8,1145.9-609.8z"/>
		<path class="st1" d="M1201.5-609.8H1189c-5,0-9-4-9-9V-648c0-5,4-9,9-9h12.5c5,0,9,4,9,9v29.3
			C1210.5-613.8,1206.5-609.8,1201.5-609.8z"/>
		<path class="st1" d="M1257.2-609.8h-12.5c-5,0-9-4-9-9V-648c0-5,4-9,9-9h12.5c5,0,9,4,9,9v29.3
			C1266.1-613.8,1262.1-609.8,1257.2-609.8z"/>
		<path class="st1" d="M1312.8-609.8h-12.5c-5,0-9-4-9-9V-648c0-5,4-9,9-9h12.5c5,0,9,4,9,9v29.3
			C1321.8-613.8,1317.7-609.8,1312.8-609.8z"/>
		<path class="st1" d="M1368.4-609.8h-12.5c-5,0-9-4-9-9V-648c0-5,4-9,9-9h12.5c5,0,9,4,9,9v29.3
			C1377.4-613.8,1373.4-609.8,1368.4-609.8z"/>
		<path class="st1" d="M1424-609.8h-12.5c-5,0-9-4-9-9V-648c0-5,4-9,9-9h12.5c5,0,9,4,9,9v29.3C1433-613.8,1429-609.8,1424-609.8z"
			/>
		<path class="st1" d="M1479.7-609.8h-12.5c-5,0-9-4-9-9V-648c0-5,4-9,9-9h12.5c5,0,9,4,9,9v29.3
			C1488.7-613.8,1484.6-609.8,1479.7-609.8z"/>
		<polygon class="st1" points="1580.9,-680.7 1580.9,-677.2 1573.2,-677.2 1573.2,-680.7 1565.6,-680.7 1565.6,-554.2 
			1573.2,-554.2 1573.2,-557.6 1580.9,-557.6 1580.9,-554.2 1588.5,-554.2 1588.5,-680.7 		"/>
		<rect x="827.2" y="-566.3" class="st2" width="738.4" height="8.4"/>
		<rect x="1465" y="-721.8" class="st0" width="44.2" height="13.7"/>
		<rect x="1350" y="-721.8" class="st0" width="44.2" height="13.7"/>
		<rect x="1234.9" y="-721.8" class="st0" width="44.2" height="13.7"/>
		<rect x="1119.8" y="-721.8" class="st0" width="44.2" height="13.7"/>
		<rect x="1004.8" y="-721.8" class="st0" width="44.2" height="13.7"/>
		<rect x="889.7" y="-721.8" class="st0" width="44.2" height="13.7"/>
	</g>
	<g>
		<g>
			<rect x="159.6" y="-543.4" class="st1" width="85" height="19.7"/>
			<circle class="st1" cx="267.9" cy="-533.2" r="24.2"/>
			<circle class="st1" cx="318.3" cy="-533.2" r="24.2"/>
			<circle class="st1" cx="136.3" cy="-533.2" r="24.2"/>
			<circle class="st1" cx="85.8" cy="-533.2" r="24.2"/>
		</g>
		<g>
			<rect x="606.1" y="-543.4" class="st1" width="85" height="19.7"/>
			<circle class="st1" cx="714.4" cy="-533.2" r="24.2"/>
			<circle class="st1" cx="764.9" cy="-533.2" r="24.2"/>
			<circle class="st1" cx="582.8" cy="-533.2" r="24.2"/>
			<circle class="st1" cx="532.4" cy="-533.2" r="24.2"/>
		</g>
		<rect x="61.3" y="-696.7" class="st5" width="738.4" height="157.7"/>
		<path class="st0" d="M785.3-711.1H75.8c-8,0-14.5,6.5-14.5,14.5v0h738.4v0C799.8-704.6,793.3-711.1,785.3-711.1z"/>
		<rect x="61.3" y="-679.1" class="st2" width="738.4" height="88.4"/>
		<polygon class="st7" points="799.8,-538.9 500.3,-538.9 496.6,-525.2 354,-525.2 349.4,-538.9 56,-538.9 56,-558 799.8,-558 		"/>
		<g>
			<path class="st8" d="M112.4-558H69.7v-98.4c0-3.3,2.7-6,6-6h30.7c3.3,0,6,2.7,6,6V-558z"/>
			<rect x="69.7" y="-590.7" class="st9" width="42.7" height="32.8"/>
			<path class="st1" d="M97.3-609.8H84.8c-5,0-9-4-9-9V-648c0-5,4-9,9-9h12.5c5,0,9,4,9,9v29.3C106.3-613.8,102.3-609.8,97.3-609.8z
				"/>
		</g>
		<g>
			<path class="st8" d="M786-558h-42.7v-98.4c0-3.3,2.7-6,6-6h30.7c3.3,0,6,2.7,6,6V-558z"/>
			<rect x="743.4" y="-590.7" class="st9" width="42.7" height="32.8"/>
			<path class="st1" d="M771-609.8h-12.5c-5,0-9-4-9-9V-648c0-5,4-9,9-9H771c5,0,9,4,9,9v29.3C779.9-613.8,775.9-609.8,771-609.8z"
				/>
		</g>
		<path class="st1" d="M157.5-609.8H145c-5,0-9-4-9-9V-648c0-5,4-9,9-9h12.5c5,0,9,4,9,9v29.3C166.5-613.8,162.5-609.8,157.5-609.8z
			"/>
		<path class="st1" d="M213.1-609.8h-12.5c-5,0-9-4-9-9V-648c0-5,4-9,9-9h12.5c5,0,9,4,9,9v29.3
			C222.1-613.8,218.1-609.8,213.1-609.8z"/>
		<path class="st1" d="M268.8-609.8h-12.5c-5,0-9-4-9-9V-648c0-5,4-9,9-9h12.5c5,0,9,4,9,9v29.3
			C277.8-613.8,273.7-609.8,268.8-609.8z"/>
		<path class="st1" d="M324.4-609.8h-12.5c-5,0-9-4-9-9V-648c0-5,4-9,9-9h12.5c5,0,9,4,9,9v29.3
			C333.4-613.8,329.4-609.8,324.4-609.8z"/>
		<path class="st1" d="M380-609.8h-12.5c-5,0-9-4-9-9V-648c0-5,4-9,9-9H380c5,0,9,4,9,9v29.3C389-613.8,385-609.8,380-609.8z"/>
		<path class="st1" d="M435.7-609.8h-12.5c-5,0-9-4-9-9V-648c0-5,4-9,9-9h12.5c5,0,9,4,9,9v29.3
			C444.6-613.8,440.6-609.8,435.7-609.8z"/>
		<path class="st1" d="M491.3-609.8h-12.5c-5,0-9-4-9-9V-648c0-5,4-9,9-9h12.5c5,0,9,4,9,9v29.3
			C500.3-613.8,496.3-609.8,491.3-609.8z"/>
		<path class="st1" d="M546.9-609.8h-12.5c-5,0-9-4-9-9V-648c0-5,4-9,9-9h12.5c5,0,9,4,9,9v29.3
			C555.9-613.8,551.9-609.8,546.9-609.8z"/>
		<path class="st1" d="M602.6-609.8H590c-5,0-9-4-9-9V-648c0-5,4-9,9-9h12.5c5,0,9,4,9,9v29.3C611.5-613.8,607.5-609.8,602.6-609.8z
			"/>
		<path class="st1" d="M658.2-609.8h-12.5c-5,0-9-4-9-9V-648c0-5,4-9,9-9h12.5c5,0,9,4,9,9v29.3
			C667.2-613.8,663.1-609.8,658.2-609.8z"/>
		<path class="st1" d="M713.8-609.8h-12.5c-5,0-9-4-9-9V-648c0-5,4-9,9-9h12.5c5,0,9,4,9,9v29.3
			C722.8-613.8,718.8-609.8,713.8-609.8z"/>
		<polygon class="st1" points="815,-680.7 815,-677.2 807.4,-677.2 807.4,-680.7 799.8,-680.7 799.8,-554.2 807.4,-554.2 
			807.4,-557.6 815,-557.6 815,-554.2 822.6,-554.2 822.6,-680.7 		"/>
		<rect x="61.3" y="-566.3" class="st2" width="738.4" height="8.4"/>
		<rect x="699.2" y="-721.8" class="st0" width="44.2" height="13.7"/>
		<rect x="584.1" y="-721.8" class="st0" width="44.2" height="13.7"/>
		<rect x="469" y="-721.8" class="st0" width="44.2" height="13.7"/>
		<rect x="354" y="-721.8" class="st0" width="44.2" height="13.7"/>
		<rect x="238.9" y="-721.8" class="st0" width="44.2" height="13.7"/>
		<rect x="123.8" y="-721.8" class="st0" width="44.2" height="13.7"/>
	</g>
</g>
<g id="Layer_2">
	<g>
		<g>
			<polygon class="st0" points="4618.5,-178.7 4522.5,-178.7 4511.9,-210.4 4607.9,-210.4 			"/>
			<g>
				<rect x="3963.6" y="-231.4" class="st1" width="84" height="45.9"/>
				<circle class="st1" cx="4070.6" cy="-194.9" r="23.9"/>
				<circle class="st1" cx="4120.5" cy="-194.9" r="23.9"/>
				<circle class="st1" cx="3940.5" cy="-194.9" r="23.9"/>
				<circle class="st1" cx="3890.7" cy="-194.9" r="23.9"/>
			</g>
			<g>
				<rect x="4335.6" y="-219.4" class="st1" width="84" height="33.9"/>
				<circle class="st1" cx="4442.7" cy="-194.9" r="23.9"/>
				<circle class="st1" cx="4492.5" cy="-194.9" r="23.9"/>
				<circle class="st1" cx="4312.6" cy="-194.9" r="23.9"/>
				<circle class="st1" cx="4262.7" cy="-194.9" r="23.9"/>
			</g>
			<polygon class="st10" points="4608.3,-210.4 3863.6,-210.4 3858,-196 3842.4,-196 3842.4,-399.4 3888.4,-399.4 3921.7,-373 
				4384.1,-373 4471.8,-417.5 4560.9,-417.5 4596.3,-394.9 4622,-252.2 			"/>
			<polygon class="st0" points="4163.2,-373 3921.4,-373 3901.1,-389.6 4163.2,-389.6 			"/>
			<polygon class="st10" points="4424.9,-367 4210.6,-367 4224.2,-399.4 4415.8,-399.4 			"/>
			<rect x="4133.1" y="-210.4" class="st3" width="119" height="24.9"/>
			<rect x="4258.8" y="-198.3" class="st4" width="239.5" height="3.8"/>
			<rect x="3880.8" y="-198.3" class="st4" width="239.5" height="3.8"/>
			<polygon class="st5" points="4594,-227.7 4511.9,-227.7 4499.1,-246.5 3922.2,-246.5 3920,-227.7 3842.4,-227.7 3842.4,-356.5 
				4582,-356.5 4603,-253.2 			"/>
			<g>
				<rect x="3935" y="-340.6" class="st6" width="7.5" height="73.1"/>
				<rect x="3947.8" y="-340.6" class="st6" width="7.5" height="73.1"/>
				<rect x="3960.6" y="-340.6" class="st6" width="7.5" height="73.1"/>
				<rect x="3973.4" y="-340.6" class="st6" width="7.5" height="73.1"/>
				<rect x="3986.2" y="-340.6" class="st6" width="7.5" height="73.1"/>
			</g>
			<g>
				<rect x="4002.8" y="-340.6" class="st6" width="7.5" height="73.1"/>
				<rect x="4015.6" y="-340.6" class="st6" width="7.5" height="73.1"/>
				<rect x="4028.4" y="-340.6" class="st6" width="7.5" height="73.1"/>
				<rect x="4041.2" y="-340.6" class="st6" width="7.5" height="73.1"/>
				<rect x="4054" y="-340.6" class="st6" width="7.5" height="73.1"/>
			</g>
			<g>
				<rect x="4185" y="-340.6" class="st6" width="7.5" height="73.1"/>
				<rect x="4197.8" y="-340.6" class="st6" width="7.5" height="73.1"/>
				<rect x="4210.6" y="-340.6" class="st6" width="7.5" height="73.1"/>
				<rect x="4223.4" y="-340.6" class="st6" width="7.5" height="73.1"/>
				<rect x="4236.3" y="-340.6" class="st6" width="7.5" height="73.1"/>
			</g>
			<g>
				<rect x="4252.8" y="-340.6" class="st6" width="7.5" height="73.1"/>
				<rect x="4265.6" y="-340.6" class="st6" width="7.5" height="73.1"/>
				<rect x="4278.4" y="-340.6" class="st6" width="7.5" height="73.1"/>
				<rect x="4291.2" y="-340.6" class="st6" width="7.5" height="73.1"/>
				<rect x="4304" y="-340.6" class="st6" width="7.5" height="73.1"/>
			</g>
			<rect x="4516.4" y="-322.6" class="st6" width="50.5" height="94.9"/>
			<rect x="3855.2" y="-322.6" class="st6" width="50.5" height="94.9"/>
			<path class="st1" d="M3886.8-270.6h-12.2c-5,0-9-4-9-9v-28.7c0-5,4-9,9-9h12.2c5,0,9,4,9,9v28.7
				C3895.8-274.6,3891.8-270.6,3886.8-270.6z"/>
			<path class="st1" d="M4548.1-270.6H4536c-5,0-9-4-9-9v-28.7c0-5,4-9,9-9h12.2c5,0,9,4,9,9v28.7
				C4557.1-274.6,4553.1-270.6,4548.1-270.6z"/>
			<rect x="4486.3" y="-297.7" class="st6" width="6.8" height="66.3"/>
			<polygon class="st0" points="4014.8,-410.7 4017.1,-410.7 4005,-425 4004.3,-425 4002.8,-425 3969.6,-425 3967.4,-425 
				3955.3,-410.7 3957.6,-410.7 3968.4,-423.5 4004,-423.5 			"/>
			<polygon class="st0" points="3988.5,-423.5 3984.7,-423.5 3960.6,-389.6 3964.4,-389.6 			"/>
		</g>
		<g>
			<rect x="3187" y="-205" class="st1" width="84" height="19.5"/>
			<circle class="st1" cx="3294.1" cy="-194.9" r="23.9"/>
			<circle class="st1" cx="3344" cy="-194.9" r="23.9"/>
			<circle class="st1" cx="3164" cy="-194.9" r="23.9"/>
			<circle class="st1" cx="3114.2" cy="-194.9" r="23.9"/>
		</g>
		<g>
			<rect x="3628.4" y="-205" class="st1" width="84" height="19.5"/>
			<circle class="st1" cx="3735.4" cy="-194.9" r="23.9"/>
			<circle class="st1" cx="3785.3" cy="-194.9" r="23.9"/>
			<circle class="st1" cx="3605.4" cy="-194.9" r="23.9"/>
			<circle class="st1" cx="3555.5" cy="-194.9" r="23.9"/>
		</g>
		<rect x="3090" y="-356.5" class="st5" width="729.8" height="155.9"/>
		<path class="st0" d="M3805.4-370.8h-701.2c-7.9,0-14.3,6.4-14.3,14.3v0h729.8v0C3819.8-364.4,3813.4-370.8,3805.4-370.8z"/>
		<rect x="3090" y="-339.1" class="st10" width="729.8" height="87.4"/>
		<polygon class="st7" points="3819.8,-200.6 3523.8,-200.6 3520.1,-187 3379.2,-187 3374.6,-200.6 3084.7,-200.6 3084.7,-219.4 
			3819.8,-219.4 		"/>
		<g>
			<path class="st11" d="M3140.4-219.4h-42.2v-97.2c0-3.3,2.7-6,6-6h30.2c3.3,0,6,2.7,6,6V-219.4z"/>
			<rect x="3098.2" y="-251.8" class="st9" width="42.2" height="32.4"/>
			<path class="st1" d="M3125.4-270.6h-12.2c-5,0-9-4-9-9v-28.7c0-5,4-9,9-9h12.2c5,0,9,4,9,9v28.7
				C3134.4-274.6,3130.4-270.6,3125.4-270.6z"/>
		</g>
		<g>
			<path class="st11" d="M3806.2-219.4H3764v-97.2c0-3.3,2.7-6,6-6h30.2c3.3,0,6,2.7,6,6V-219.4z"/>
			<rect x="3764" y="-251.8" class="st9" width="42.2" height="32.4"/>
			<path class="st1" d="M3791.2-270.6H3779c-5,0-9-4-9-9v-28.7c0-5,4-9,9-9h12.2c5,0,9,4,9,9v28.7
				C3800.2-274.6,3796.2-270.6,3791.2-270.6z"/>
		</g>
		<path class="st1" d="M3184.9-270.6h-12.2c-5,0-9-4-9-9v-28.7c0-5,4-9,9-9h12.2c5,0,9,4,9,9v28.7
			C3193.9-274.6,3189.9-270.6,3184.9-270.6z"/>
		<path class="st1" d="M3239.9-270.6h-12.2c-5,0-9-4-9-9v-28.7c0-5,4-9,9-9h12.2c5,0,9,4,9,9v28.7
			C3248.9-274.6,3244.8-270.6,3239.9-270.6z"/>
		<path class="st1" d="M3294.9-270.6h-12.2c-5,0-9-4-9-9v-28.7c0-5,4-9,9-9h12.2c5,0,9,4,9,9v28.7
			C3303.8-274.6,3299.8-270.6,3294.9-270.6z"/>
		<path class="st1" d="M3349.8-270.6h-12.2c-5,0-9-4-9-9v-28.7c0-5,4-9,9-9h12.2c5,0,9,4,9,9v28.7
			C3358.8-274.6,3354.8-270.6,3349.8-270.6z"/>
		<path class="st1" d="M3404.8-270.6h-12.2c-5,0-9-4-9-9v-28.7c0-5,4-9,9-9h12.2c5,0,9,4,9,9v28.7
			C3413.8-274.6,3409.8-270.6,3404.8-270.6z"/>
		<path class="st1" d="M3459.8-270.6h-12.2c-5,0-9-4-9-9v-28.7c0-5,4-9,9-9h12.2c5,0,9,4,9,9v28.7
			C3468.8-274.6,3464.8-270.6,3459.8-270.6z"/>
		<path class="st1" d="M3514.8-270.6h-12.2c-5,0-9-4-9-9v-28.7c0-5,4-9,9-9h12.2c5,0,9,4,9,9v28.7
			C3523.8-274.6,3519.7-270.6,3514.8-270.6z"/>
		<path class="st1" d="M3569.8-270.6h-12.2c-5,0-9-4-9-9v-28.7c0-5,4-9,9-9h12.2c5,0,9,4,9,9v28.7
			C3578.7-274.6,3574.7-270.6,3569.8-270.6z"/>
		<path class="st1" d="M3624.7-270.6h-12.2c-5,0-9-4-9-9v-28.7c0-5,4-9,9-9h12.2c5,0,9,4,9,9v28.7
			C3633.7-274.6,3629.7-270.6,3624.7-270.6z"/>
		<path class="st1" d="M3679.7-270.6h-12.2c-5,0-9-4-9-9v-28.7c0-5,4-9,9-9h12.2c5,0,9,4,9,9v28.7
			C3688.7-274.6,3684.7-270.6,3679.7-270.6z"/>
		<path class="st1" d="M3734.7-270.6h-12.2c-5,0-9-4-9-9v-28.7c0-5,4-9,9-9h12.2c5,0,9,4,9,9v28.7
			C3743.7-274.6,3739.7-270.6,3734.7-270.6z"/>
		<polygon class="st1" points="3834.8,-340.6 3834.8,-337.2 3827.3,-337.2 3827.3,-340.6 3819.8,-340.6 3819.8,-215.6 
			3827.3,-215.6 3827.3,-219 3834.8,-219 3834.8,-215.6 3842.4,-215.6 3842.4,-340.6 		"/>
		<rect x="3090" y="-227.7" class="st10" width="729.8" height="8.3"/>
		<rect x="3720.3" y="-381.3" class="st0" width="43.7" height="13.6"/>
		<rect x="3606.6" y="-381.3" class="st0" width="43.7" height="13.6"/>
		<rect x="3492.9" y="-381.3" class="st0" width="43.7" height="13.6"/>
		<rect x="3379.2" y="-381.3" class="st0" width="43.7" height="13.6"/>
		<rect x="3265.4" y="-381.3" class="st0" width="43.7" height="13.6"/>
		<rect x="3151.7" y="-381.3" class="st0" width="43.7" height="13.6"/>
		<g>
			<rect x="2430.1" y="-205" class="st1" width="84" height="19.5"/>
			<circle class="st1" cx="2537.2" cy="-194.9" r="23.9"/>
			<circle class="st1" cx="2587" cy="-194.9" r="23.9"/>
			<circle class="st1" cx="2407.1" cy="-194.9" r="23.9"/>
			<circle class="st1" cx="2357.2" cy="-194.9" r="23.9"/>
		</g>
		<g>
			<rect x="2871.5" y="-205" class="st1" width="84" height="19.5"/>
			<circle class="st1" cx="2978.5" cy="-194.9" r="23.9"/>
			<circle class="st1" cx="3028.4" cy="-194.9" r="23.9"/>
			<circle class="st1" cx="2848.4" cy="-194.9" r="23.9"/>
			<circle class="st1" cx="2798.6" cy="-194.9" r="23.9"/>
		</g>
		<rect x="2333" y="-356.5" class="st5" width="729.8" height="155.9"/>
		<path class="st0" d="M3048.5-370.8h-701.2c-7.9,0-14.3,6.4-14.3,14.3v0h729.8v0C3062.8-364.4,3056.4-370.8,3048.5-370.8z"/>
		<rect x="2333" y="-339.1" class="st10" width="729.8" height="87.4"/>
		<polygon class="st7" points="3062.8,-200.6 2766.8,-200.6 2763.2,-187 2622.3,-187 2617.7,-200.6 2327.8,-200.6 2327.8,-219.4 
			3062.8,-219.4 		"/>
		<g>
			<path class="st11" d="M2383.5-219.4h-42.2v-97.2c0-3.3,2.7-6,6-6h30.2c3.3,0,6,2.7,6,6V-219.4z"/>
			<rect x="2341.3" y="-251.8" class="st9" width="42.2" height="32.4"/>
			<path class="st1" d="M2368.5-270.6h-12.2c-5,0-9-4-9-9v-28.7c0-5,4-9,9-9h12.2c5,0,9,4,9,9v28.7
				C2377.5-274.6,2373.4-270.6,2368.5-270.6z"/>
		</g>
		<g>
			<path class="st11" d="M3049.3-219.4h-42.2v-97.2c0-3.3,2.7-6,6-6h30.2c3.3,0,6,2.7,6,6V-219.4z"/>
			<rect x="3007.1" y="-251.8" class="st9" width="42.2" height="32.4"/>
			<path class="st1" d="M3034.3-270.6h-12.2c-5,0-9-4-9-9v-28.7c0-5,4-9,9-9h12.2c5,0,9,4,9,9v28.7
				C3043.3-274.6,3039.2-270.6,3034.3-270.6z"/>
		</g>
		<path class="st1" d="M2428-270.6h-12.2c-5,0-9-4-9-9v-28.7c0-5,4-9,9-9h12.2c5,0,9,4,9,9v28.7C2437-274.6,2432.9-270.6,2428-270.6
			z"/>
		<path class="st1" d="M2483-270.6h-12.2c-5,0-9-4-9-9v-28.7c0-5,4-9,9-9h12.2c5,0,9,4,9,9v28.7
			C2491.9-274.6,2487.9-270.6,2483-270.6z"/>
		<path class="st1" d="M2537.9-270.6h-12.2c-5,0-9-4-9-9v-28.7c0-5,4-9,9-9h12.2c5,0,9,4,9,9v28.7
			C2546.9-274.6,2542.9-270.6,2537.9-270.6z"/>
		<path class="st1" d="M2592.9-270.6h-12.2c-5,0-9-4-9-9v-28.7c0-5,4-9,9-9h12.2c5,0,9,4,9,9v28.7
			C2601.9-274.6,2597.9-270.6,2592.9-270.6z"/>
		<path class="st1" d="M2647.9-270.6h-12.2c-5,0-9-4-9-9v-28.7c0-5,4-9,9-9h12.2c5,0,9,4,9,9v28.7
			C2656.9-274.6,2652.9-270.6,2647.9-270.6z"/>
		<path class="st1" d="M2702.9-270.6h-12.2c-5,0-9-4-9-9v-28.7c0-5,4-9,9-9h12.2c5,0,9,4,9,9v28.7
			C2711.9-274.6,2707.8-270.6,2702.9-270.6z"/>
		<path class="st1" d="M2757.9-270.6h-12.2c-5,0-9-4-9-9v-28.7c0-5,4-9,9-9h12.2c5,0,9,4,9,9v28.7
			C2766.8-274.6,2762.8-270.6,2757.9-270.6z"/>
		<path class="st1" d="M2812.8-270.6h-12.2c-5,0-9-4-9-9v-28.7c0-5,4-9,9-9h12.2c5,0,9,4,9,9v28.7
			C2821.8-274.6,2817.8-270.6,2812.8-270.6z"/>
		<path class="st1" d="M2867.8-270.6h-12.2c-5,0-9-4-9-9v-28.7c0-5,4-9,9-9h12.2c5,0,9,4,9,9v28.7
			C2876.8-274.6,2872.8-270.6,2867.8-270.6z"/>
		<path class="st1" d="M2922.8-270.6h-12.2c-5,0-9-4-9-9v-28.7c0-5,4-9,9-9h12.2c5,0,9,4,9,9v28.7
			C2931.8-274.6,2927.8-270.6,2922.8-270.6z"/>
		<path class="st1" d="M2977.8-270.6h-12.2c-5,0-9-4-9-9v-28.7c0-5,4-9,9-9h12.2c5,0,9,4,9,9v28.7
			C2986.8-274.6,2982.7-270.6,2977.8-270.6z"/>
		<polygon class="st1" points="3077.9,-340.6 3077.9,-337.2 3070.4,-337.2 3070.4,-340.6 3062.8,-340.6 3062.8,-215.6 
			3070.4,-215.6 3070.4,-219 3077.9,-219 3077.9,-215.6 3085.4,-215.6 3085.4,-340.6 		"/>
		<rect x="2333" y="-227.7" class="st10" width="729.8" height="8.3"/>
		<rect x="2963.4" y="-381.3" class="st0" width="43.7" height="13.6"/>
		<rect x="2849.7" y="-381.3" class="st0" width="43.7" height="13.6"/>
		<rect x="2736" y="-381.3" class="st0" width="43.7" height="13.6"/>
		<rect x="2622.2" y="-381.3" class="st0" width="43.7" height="13.6"/>
		<rect x="2508.5" y="-381.3" class="st0" width="43.7" height="13.6"/>
		<rect x="2394.8" y="-381.3" class="st0" width="43.7" height="13.6"/>
		<g>
			<rect x="1673.2" y="-205" class="st1" width="84" height="19.5"/>
			<circle class="st1" cx="1780.3" cy="-194.9" r="23.9"/>
			<circle class="st1" cx="1830.1" cy="-194.9" r="23.9"/>
			<circle class="st1" cx="1650.2" cy="-194.9" r="23.9"/>
			<circle class="st1" cx="1600.3" cy="-194.9" r="23.9"/>
		</g>
		<g>
			<rect x="2114.6" y="-205" class="st1" width="84" height="19.5"/>
			<circle class="st1" cx="2221.6" cy="-194.9" r="23.9"/>
			<circle class="st1" cx="2271.5" cy="-194.9" r="23.9"/>
			<circle class="st1" cx="2091.5" cy="-194.9" r="23.9"/>
			<circle class="st1" cx="2041.7" cy="-194.9" r="23.9"/>
		</g>
		<rect x="1576.1" y="-356.5" class="st5" width="729.8" height="155.9"/>
		<path class="st0" d="M2291.6-370.8h-701.2c-7.9,0-14.3,6.4-14.3,14.3v0h729.8v0C2305.9-364.4,2299.5-370.8,2291.6-370.8z"/>
		<rect x="1576.1" y="-339.1" class="st10" width="729.8" height="87.4"/>
		<polygon class="st7" points="2305.9,-200.6 2009.9,-200.6 2006.3,-187 1865.4,-187 1860.8,-200.6 1570.8,-200.6 1570.8,-219.4 
			2305.9,-219.4 		"/>
		<g>
			<path class="st11" d="M1626.6-219.4h-42.2v-97.2c0-3.3,2.7-6,6-6h30.2c3.3,0,6,2.7,6,6V-219.4z"/>
			<rect x="1584.4" y="-251.8" class="st9" width="42.2" height="32.4"/>
			<path class="st1" d="M1611.6-270.6h-12.2c-5,0-9-4-9-9v-28.7c0-5,4-9,9-9h12.2c5,0,9,4,9,9v28.7
				C1620.5-274.6,1616.5-270.6,1611.6-270.6z"/>
		</g>
		<g>
			<path class="st11" d="M2292.4-219.4h-42.2v-97.2c0-3.3,2.7-6,6-6h30.2c3.3,0,6,2.7,6,6V-219.4z"/>
			<rect x="2250.2" y="-251.8" class="st9" width="42.2" height="32.4"/>
			<path class="st1" d="M2277.4-270.6h-12.2c-5,0-9-4-9-9v-28.7c0-5,4-9,9-9h12.2c5,0,9,4,9,9v28.7
				C2286.3-274.6,2282.3-270.6,2277.4-270.6z"/>
		</g>
		<path class="st1" d="M1671.1-270.6h-12.2c-5,0-9-4-9-9v-28.7c0-5,4-9,9-9h12.2c5,0,9,4,9,9v28.7
			C1680-274.6,1676-270.6,1671.1-270.6z"/>
		<path class="st1" d="M1726-270.6h-12.2c-5,0-9-4-9-9v-28.7c0-5,4-9,9-9h12.2c5,0,9,4,9,9v28.7C1735-274.6,1731-270.6,1726-270.6z"
			/>
		<path class="st1" d="M1781-270.6h-12.2c-5,0-9-4-9-9v-28.7c0-5,4-9,9-9h12.2c5,0,9,4,9,9v28.7C1790-274.6,1786-270.6,1781-270.6z"
			/>
		<path class="st1" d="M1836-270.6h-12.2c-5,0-9-4-9-9v-28.7c0-5,4-9,9-9h12.2c5,0,9,4,9,9v28.7C1845-274.6,1841-270.6,1836-270.6z"
			/>
		<path class="st1" d="M1891-270.6h-12.2c-5,0-9-4-9-9v-28.7c0-5,4-9,9-9h12.2c5,0,9,4,9,9v28.7C1900-274.6,1895.9-270.6,1891-270.6
			z"/>
		<path class="st1" d="M1946-270.6h-12.2c-5,0-9-4-9-9v-28.7c0-5,4-9,9-9h12.2c5,0,9,4,9,9v28.7
			C1954.9-274.6,1950.9-270.6,1946-270.6z"/>
		<path class="st1" d="M2000.9-270.6h-12.2c-5,0-9-4-9-9v-28.7c0-5,4-9,9-9h12.2c5,0,9,4,9,9v28.7
			C2009.9-274.6,2005.9-270.6,2000.9-270.6z"/>
		<path class="st1" d="M2055.9-270.6h-12.2c-5,0-9-4-9-9v-28.7c0-5,4-9,9-9h12.2c5,0,9,4,9,9v28.7
			C2064.9-274.6,2060.9-270.6,2055.9-270.6z"/>
		<path class="st1" d="M2110.9-270.6h-12.2c-5,0-9-4-9-9v-28.7c0-5,4-9,9-9h12.2c5,0,9,4,9,9v28.7
			C2119.9-274.6,2115.9-270.6,2110.9-270.6z"/>
		<path class="st1" d="M2165.9-270.6h-12.2c-5,0-9-4-9-9v-28.7c0-5,4-9,9-9h12.2c5,0,9,4,9,9v28.7
			C2174.9-274.6,2170.8-270.6,2165.9-270.6z"/>
		<path class="st1" d="M2220.9-270.6h-12.2c-5,0-9-4-9-9v-28.7c0-5,4-9,9-9h12.2c5,0,9,4,9,9v28.7
			C2229.8-274.6,2225.8-270.6,2220.9-270.6z"/>
		<polygon class="st1" points="2321,-340.6 2321,-337.2 2313.5,-337.2 2313.5,-340.6 2305.9,-340.6 2305.9,-215.6 2313.5,-215.6 
			2313.5,-219 2321,-219 2321,-215.6 2328.5,-215.6 2328.5,-340.6 		"/>
		<rect x="1576.1" y="-227.7" class="st10" width="729.8" height="8.3"/>
		<rect x="2206.5" y="-381.3" class="st0" width="43.7" height="13.6"/>
		<rect x="2092.8" y="-381.3" class="st0" width="43.7" height="13.6"/>
		<rect x="1979" y="-381.3" class="st0" width="43.7" height="13.6"/>
		<rect x="1865.3" y="-381.3" class="st0" width="43.7" height="13.6"/>
		<rect x="1751.6" y="-381.3" class="st0" width="43.7" height="13.6"/>
		<rect x="1637.9" y="-381.3" class="st0" width="43.7" height="13.6"/>
		<g>
			<rect x="916.3" y="-205" class="st1" width="84" height="19.5"/>
			<circle class="st1" cx="1023.3" cy="-194.9" r="23.9"/>
			<circle class="st1" cx="1073.2" cy="-194.9" r="23.9"/>
			<circle class="st1" cx="893.3" cy="-194.9" r="23.9"/>
			<circle class="st1" cx="843.4" cy="-194.9" r="23.9"/>
		</g>
		<g>
			<rect x="1357.6" y="-205" class="st1" width="84" height="19.5"/>
			<circle class="st1" cx="1464.7" cy="-194.9" r="23.9"/>
			<circle class="st1" cx="1514.5" cy="-194.9" r="23.9"/>
			<circle class="st1" cx="1334.6" cy="-194.9" r="23.9"/>
			<circle class="st1" cx="1284.7" cy="-194.9" r="23.9"/>
		</g>
		<rect x="819.2" y="-356.5" class="st5" width="729.8" height="155.9"/>
		<path class="st0" d="M1534.7-370.8H833.5c-7.9,0-14.3,6.4-14.3,14.3v0H1549v0C1549-364.4,1542.6-370.8,1534.7-370.8z"/>
		<rect x="819.2" y="-339.1" class="st10" width="729.8" height="87.4"/>
		<polygon class="st7" points="1549,-200.6 1253,-200.6 1249.4,-187 1108.4,-187 1103.9,-200.6 813.9,-200.6 813.9,-219.4 
			1549,-219.4 		"/>
		<g>
			<path class="st11" d="M869.7-219.4h-42.2v-97.2c0-3.3,2.7-6,6-6h30.2c3.3,0,6,2.7,6,6V-219.4z"/>
			<rect x="827.5" y="-251.8" class="st9" width="42.2" height="32.4"/>
			<path class="st1" d="M854.6-270.6h-12.2c-5,0-9-4-9-9v-28.7c0-5,4-9,9-9h12.2c5,0,9,4,9,9v28.7
				C863.6-274.6,859.6-270.6,854.6-270.6z"/>
		</g>
		<g>
			<path class="st11" d="M1535.4-219.4h-42.2v-97.2c0-3.3,2.7-6,6-6h30.2c3.3,0,6,2.7,6,6V-219.4z"/>
			<rect x="1493.3" y="-251.8" class="st9" width="42.2" height="32.4"/>
			<path class="st1" d="M1520.4-270.6h-12.2c-5,0-9-4-9-9v-28.7c0-5,4-9,9-9h12.2c5,0,9,4,9,9v28.7
				C1529.4-274.6,1525.4-270.6,1520.4-270.6z"/>
		</g>
		<path class="st1" d="M914.1-270.6H902c-5,0-9-4-9-9v-28.7c0-5,4-9,9-9h12.2c5,0,9,4,9,9v28.7C923.1-274.6,919.1-270.6,914.1-270.6
			z"/>
		<path class="st1" d="M969.1-270.6H957c-5,0-9-4-9-9v-28.7c0-5,4-9,9-9h12.2c5,0,9,4,9,9v28.7C978.1-274.6,974.1-270.6,969.1-270.6
			z"/>
		<path class="st1" d="M1024.1-270.6h-12.2c-5,0-9-4-9-9v-28.7c0-5,4-9,9-9h12.2c5,0,9,4,9,9v28.7
			C1033.1-274.6,1029.1-270.6,1024.1-270.6z"/>
		<path class="st1" d="M1079.1-270.6h-12.2c-5,0-9-4-9-9v-28.7c0-5,4-9,9-9h12.2c5,0,9,4,9,9v28.7
			C1088.1-274.6,1084-270.6,1079.1-270.6z"/>
		<path class="st1" d="M1134.1-270.6h-12.2c-5,0-9-4-9-9v-28.7c0-5,4-9,9-9h12.2c5,0,9,4,9,9v28.7
			C1143-274.6,1139-270.6,1134.1-270.6z"/>
		<path class="st1" d="M1189-270.6h-12.2c-5,0-9-4-9-9v-28.7c0-5,4-9,9-9h12.2c5,0,9,4,9,9v28.7C1198-274.6,1194-270.6,1189-270.6z"
			/>
		<path class="st1" d="M1244-270.6h-12.2c-5,0-9-4-9-9v-28.7c0-5,4-9,9-9h12.2c5,0,9,4,9,9v28.7C1253-274.6,1249-270.6,1244-270.6z"
			/>
		<path class="st1" d="M1299-270.6h-12.2c-5,0-9-4-9-9v-28.7c0-5,4-9,9-9h12.2c5,0,9,4,9,9v28.7C1308-274.6,1304-270.6,1299-270.6z"
			/>
		<path class="st1" d="M1354-270.6h-12.2c-5,0-9-4-9-9v-28.7c0-5,4-9,9-9h12.2c5,0,9,4,9,9v28.7C1363-274.6,1358.9-270.6,1354-270.6
			z"/>
		<path class="st1" d="M1409-270.6h-12.2c-5,0-9-4-9-9v-28.7c0-5,4-9,9-9h12.2c5,0,9,4,9,9v28.7
			C1417.9-274.6,1413.9-270.6,1409-270.6z"/>
		<path class="st1" d="M1463.9-270.6h-12.2c-5,0-9-4-9-9v-28.7c0-5,4-9,9-9h12.2c5,0,9,4,9,9v28.7
			C1472.9-274.6,1468.9-270.6,1463.9-270.6z"/>
		<polygon class="st1" points="1564.1,-340.6 1564.1,-337.2 1556.5,-337.2 1556.5,-340.6 1549,-340.6 1549,-215.6 1556.5,-215.6 
			1556.5,-219 1564.1,-219 1564.1,-215.6 1571.6,-215.6 1571.6,-340.6 		"/>
		<rect x="819.2" y="-227.7" class="st10" width="729.8" height="8.3"/>
		<rect x="1449.6" y="-381.3" class="st0" width="43.7" height="13.6"/>
		<rect x="1335.9" y="-381.3" class="st0" width="43.7" height="13.6"/>
		<rect x="1222.1" y="-381.3" class="st0" width="43.7" height="13.6"/>
		<rect x="1108.4" y="-381.3" class="st0" width="43.7" height="13.6"/>
		<rect x="994.7" y="-381.3" class="st0" width="43.7" height="13.6"/>
		<rect x="881" y="-381.3" class="st0" width="43.7" height="13.6"/>
		<g>
			<rect x="159.4" y="-205" class="st1" width="84" height="19.5"/>
			<circle class="st1" cx="266.4" cy="-194.9" r="23.9"/>
			<circle class="st1" cx="316.3" cy="-194.9" r="23.9"/>
			<circle class="st1" cx="136.3" cy="-194.9" r="23.9"/>
			<circle class="st1" cx="86.5" cy="-194.9" r="23.9"/>
		</g>
		<g>
			<rect x="600.7" y="-205" class="st1" width="84" height="19.5"/>
			<circle class="st1" cx="707.8" cy="-194.9" r="23.9"/>
			<circle class="st1" cx="757.6" cy="-194.9" r="23.9"/>
			<circle class="st1" cx="577.7" cy="-194.9" r="23.9"/>
			<circle class="st1" cx="527.8" cy="-194.9" r="23.9"/>
		</g>
		<rect x="62.3" y="-356.5" class="st5" width="729.8" height="155.9"/>
		<path class="st0" d="M777.8-370.8H76.6c-7.9,0-14.3,6.4-14.3,14.3v0h729.8v0C792.1-364.4,785.7-370.8,777.8-370.8z"/>
		<rect x="62.3" y="-339.1" class="st10" width="729.8" height="87.4"/>
		<polygon class="st7" points="792.1,-200.6 496.1,-200.6 492.4,-187 351.5,-187 347,-200.6 57,-200.6 57,-219.4 792.1,-219.4 		"/>
		<g>
			<path class="st11" d="M112.7-219.4H70.6v-97.2c0-3.3,2.7-6,6-6h30.2c3.3,0,6,2.7,6,6V-219.4z"/>
			<rect x="70.6" y="-251.8" class="st9" width="42.2" height="32.4"/>
			<path class="st1" d="M97.7-270.6H85.6c-5,0-9-4-9-9v-28.7c0-5,4-9,9-9h12.2c5,0,9,4,9,9v28.7C106.7-274.6,102.7-270.6,97.7-270.6
				z"/>
		</g>
		<g>
			<path class="st11" d="M778.5-219.4h-42.2v-97.2c0-3.3,2.7-6,6-6h30.2c3.3,0,6,2.7,6,6V-219.4z"/>
			<rect x="736.3" y="-251.8" class="st9" width="42.2" height="32.4"/>
			<path class="st1" d="M763.5-270.6h-12.2c-5,0-9-4-9-9v-28.7c0-5,4-9,9-9h12.2c5,0,9,4,9,9v28.7
				C772.5-274.6,768.5-270.6,763.5-270.6z"/>
		</g>
		<path class="st1" d="M157.2-270.6h-12.2c-5,0-9-4-9-9v-28.7c0-5,4-9,9-9h12.2c5,0,9,4,9,9v28.7
			C166.2-274.6,162.2-270.6,157.2-270.6z"/>
		<path class="st1" d="M212.2-270.6H200c-5,0-9-4-9-9v-28.7c0-5,4-9,9-9h12.2c5,0,9,4,9,9v28.7C221.2-274.6,217.2-270.6,212.2-270.6
			z"/>
		<path class="st1" d="M267.2-270.6H255c-5,0-9-4-9-9v-28.7c0-5,4-9,9-9h12.2c5,0,9,4,9,9v28.7C276.2-274.6,272.1-270.6,267.2-270.6
			z"/>
		<path class="st1" d="M322.2-270.6H310c-5,0-9-4-9-9v-28.7c0-5,4-9,9-9h12.2c5,0,9,4,9,9v28.7C331.1-274.6,327.1-270.6,322.2-270.6
			z"/>
		<path class="st1" d="M377.1-270.6H365c-5,0-9-4-9-9v-28.7c0-5,4-9,9-9h12.2c5,0,9,4,9,9v28.7C386.1-274.6,382.1-270.6,377.1-270.6
			z"/>
		<path class="st1" d="M432.1-270.6H420c-5,0-9-4-9-9v-28.7c0-5,4-9,9-9h12.2c5,0,9,4,9,9v28.7C441.1-274.6,437.1-270.6,432.1-270.6
			z"/>
		<path class="st1" d="M487.1-270.6h-12.2c-5,0-9-4-9-9v-28.7c0-5,4-9,9-9h12.2c5,0,9,4,9,9v28.7
			C496.1-274.6,492.1-270.6,487.1-270.6z"/>
		<path class="st1" d="M542.1-270.6h-12.2c-5,0-9-4-9-9v-28.7c0-5,4-9,9-9h12.2c5,0,9,4,9,9v28.7C551.1-274.6,547-270.6,542.1-270.6
			z"/>
		<path class="st1" d="M597.1-270.6h-12.2c-5,0-9-4-9-9v-28.7c0-5,4-9,9-9h12.2c5,0,9,4,9,9v28.7C606-274.6,602-270.6,597.1-270.6z"
			/>
		<path class="st1" d="M652-270.6h-12.2c-5,0-9-4-9-9v-28.7c0-5,4-9,9-9H652c5,0,9,4,9,9v28.7C661-274.6,657-270.6,652-270.6z"/>
		<path class="st1" d="M707-270.6h-12.2c-5,0-9-4-9-9v-28.7c0-5,4-9,9-9H707c5,0,9,4,9,9v28.7C716-274.6,712-270.6,707-270.6z"/>
		<polygon class="st1" points="807.1,-340.6 807.1,-337.2 799.6,-337.2 799.6,-340.6 792.1,-340.6 792.1,-215.6 799.6,-215.6 
			799.6,-219 807.1,-219 807.1,-215.6 814.7,-215.6 814.7,-340.6 		"/>
		<rect x="62.3" y="-227.7" class="st10" width="729.8" height="8.3"/>
		<rect x="692.7" y="-381.3" class="st0" width="43.7" height="13.6"/>
		<rect x="578.9" y="-381.3" class="st0" width="43.7" height="13.6"/>
		<rect x="465.2" y="-381.3" class="st0" width="43.7" height="13.6"/>
		<rect x="351.5" y="-381.3" class="st0" width="43.7" height="13.6"/>
		<rect x="237.8" y="-381.3" class="st0" width="43.7" height="13.6"/>
		<rect x="124" y="-381.3" class="st0" width="43.7" height="13.6"/>
	</g>
</g>
</svg>
