<?xml version="1.0" encoding="utf-8"?>
<!-- Generator: Adobe Illustrator 21.0.0, SVG Export Plug-In . SVG Version: 6.00 Build 0)  -->
<svg version="1.1" xmlns="http://www.w3.org/2000/svg" xmlns:xlink="http://www.w3.org/1999/xlink" x="0px" y="0px"
	 viewBox="0 0 1280 645" style="enable-background:new 0 0 1280 645;" xml:space="preserve">
<style type="text/css">
	.st0{fill:#E07336;}
	.st1{fill:#32404C;}
	.st2{fill:#E6E6E6;}
	.st3{fill:#273530;}
	.st4{fill:#B78B1C;}
	.st5{fill:#527C5C;}
	.st6{fill:#CEA229;}
	.st7{fill:#FFEDD8;}
	.st8{fill:#FF6C0E;}
</style>
<g id="bg">
	<rect class="st0" width="1280" height="614"/>
</g>
<g id="land">
	<rect y="478" class="st1" width="1280" height="167"/>
	<rect y="521" class="st2" width="1280" height="4"/>
	<rect y="507" class="st2" width="1280" height="4"/>
	<rect x="114" y="534" class="st2" width="388" height="10"/>
	<rect x="114" y="553" class="st2" width="388" height="10"/>
	<rect x="114" y="572" class="st2" width="388" height="10"/>
	<rect x="114" y="591" class="st2" width="388" height="21"/>
</g>
<g id="tram">
	<g>
		<polygon class="st3" points="1144.4,500.6 954.6,500.6 884.3,500.6 659.7,500.6 659.7,341.8 1144.4,341.8 		"/>
		<g>
			<rect x="884.3" y="490.7" class="st3" width="63.6" height="18.3"/>
			<circle class="st3" cx="827.9" cy="497.3" r="23.2"/>
			<circle class="st3" cx="874.4" cy="497.3" r="23.2"/>
			<circle class="st3" cx="959.6" cy="497.3" r="23.2"/>
			<circle class="st3" cx="1006.1" cy="497.3" r="23.2"/>
		</g>
		<path class="st4" d="M796.9,368.9L796.9,368.9l-9.4-8.3h-46.4l-9,8.3v73v8.3v50.4h64.7v-50.4V442V368.9z M787.5,421h-46.4v-50.4
			h46.4V421z"/>
		<path class="st4" d="M1144.4,368.9L1144.4,368.9l-9.4-8.3h-46.4l-9,8.3v73v8.3v50.4h64.7v-50.4V442V368.9z M1135,421h-46.4v-50.4
			h46.4V421z"/>
		<polygon class="st5" points="1079.6,500.6 1079.6,450.3 796.9,450.3 796.9,500.6 732.2,500.6 732.2,450.3 659.7,450.3 
			659.7,500.6 659.7,520.5 819,520.5 839.5,500.6 991.3,500.6 1012.8,520.5 1144.4,520.5 1144.4,500.6 		"/>
		<g>
			<path class="st6" d="M863.9,368.9h-58.1v73h58.1V368.9z M858.4,437H812v-33.2h46.4V437z M858.4,397.7H812v-23.2h46.4V397.7z"/>
			<rect x="812" y="374.5" class="st3" width="46.4" height="23.2"/>
			<rect x="812" y="403.8" class="st3" width="46.4" height="33.2"/>
		</g>
		<g>
			<path class="st6" d="M932.5,368.9h-58.1v73h58.1V368.9z M927,437h-46.4v-33.2H927V437z M927,397.7h-46.4v-23.2H927V397.7z"/>
			<rect x="880.6" y="374.5" class="st3" width="46.4" height="23.2"/>
			<rect x="880.6" y="403.8" class="st3" width="46.4" height="33.2"/>
		</g>
		<g>
			<path class="st6" d="M1001.1,368.9H943v73h58.1V368.9z M995.6,437h-46.4v-33.2h46.4V437z M995.6,397.7h-46.4v-23.2h46.4V397.7z"
				/>
			<rect x="949.2" y="374.5" class="st3" width="46.4" height="23.2"/>
			<rect x="949.2" y="403.8" class="st3" width="46.4" height="33.2"/>
		</g>
		<g>
			<path class="st6" d="M1069.7,368.9h-58.1v73h58.1V368.9z M1064.2,437h-46.4v-33.2h46.4V437z M1064.2,397.7h-46.4v-23.2h46.4
				V397.7z"/>
			<rect x="1017.8" y="374.5" class="st3" width="46.4" height="23.2"/>
			<rect x="1017.8" y="403.8" class="st3" width="46.4" height="33.2"/>
		</g>
		<g>
			<path class="st6" d="M723.3,368.9h-58.1v73h58.1V368.9z M717.8,437h-46.4v-33.2h46.4V437z M717.8,397.7h-46.4v-23.2h46.4V397.7z"
				/>
			<rect x="671.4" y="374.5" class="st3" width="46.4" height="23.2"/>
			<rect x="671.4" y="403.8" class="st3" width="46.4" height="33.2"/>
			<polygon class="st6" points="723.3,442 665.2,442 659.7,442 659.7,450.3 732.2,450.3 732.2,442 			"/>
		</g>
		<polygon class="st6" points="1069.7,442 1011.6,442 1001.1,442 943,442 932.5,442 874.4,442 863.9,442 805.8,442 796.9,442 
			796.9,450.3 1079.6,450.3 1079.6,442 		"/>
		<g>
			<polygon class="st5" points="665.2,442 665.2,368.9 723.3,368.9 723.3,442 732.2,442 732.2,368.9 741.1,360.6 787.5,360.6 
				796.9,368.9 796.9,368.9 796.9,442 805.8,442 805.8,368.9 863.9,368.9 863.9,442 874.4,442 874.4,368.9 932.5,368.9 932.5,442 
				943,442 943,368.9 1001.1,368.9 1001.1,442 1011.6,442 1011.6,368.9 1069.7,368.9 1069.7,442 1079.6,442 1079.6,368.9 
				1088.6,360.6 1135,360.6 1144.4,368.9 1144.4,368.9 1144.4,368.9 1144.4,341.8 659.7,341.8 659.7,442 			"/>
			<path class="st6" d="M1144.4,325.2H676.3c-9.2,0-16.6,7.4-16.6,16.6h484.7V325.2z"/>
			<polygon class="st6" points="1144.4,360.6 1135,352.9 1088.6,352.9 1079.6,360.6 1079.6,360.6 796.9,360.6 787.5,352.9 
				741.1,352.9 732.2,360.6 659.7,360.6 659.7,368.9 732.2,368.9 741.1,360.6 787.5,360.6 796.9,368.9 1079.6,368.9 1079.6,368.9 
				1088.6,360.6 1135,360.6 1144.4,368.9 1144.4,368.9 1144.4,360.6 			"/>
		</g>
	</g>
</g>
<g id="front">
	<g>
		<g>
			<path class="st7" d="M543.9,392.2L543.9,392.2c10.4,0,18.9,8.4,18.9,18.9V629H525V411.1C525,400.7,533.4,392.2,543.9,392.2z"/>
		</g>
		<rect x="525" y="425.4" class="st8" width="37.7" height="54.3"/>
		<rect x="525" y="532.5" class="st8" width="37.7" height="37.7"/>
	</g>
	<g>
		<g>
			<path class="st7" d="M659.9,392.2L659.9,392.2c10.4,0,18.9,8.4,18.9,18.9V629H641V411.1C641,400.7,649.4,392.2,659.9,392.2z"/>
		</g>
		<rect x="641" y="425.4" class="st8" width="37.7" height="54.3"/>
		<rect x="641" y="532.5" class="st8" width="37.7" height="37.7"/>
	</g>
	<g>
		<g>
			<path class="st7" d="M61.9,392.2L61.9,392.2c10.4,0,18.9,8.4,18.9,18.9V629H43V411.1C43,400.7,51.4,392.2,61.9,392.2z"/>
		</g>
		<rect x="43" y="425.4" class="st8" width="37.7" height="54.3"/>
		<rect x="43" y="532.5" class="st8" width="37.7" height="37.7"/>
	</g>
</g>
</svg>
