<?xml version="1.0" encoding="utf-8"?>
<!-- Generator: Adobe Illustrator 21.0.0, SVG Export Plug-In . SVG Version: 6.00 Build 0)  -->
<svg id="svg0">
<style type="text/css">
	.st0{fill:#F7F5EA;}
	.st1{fill:#BDCCD4;}
	.st2{fill:#26499D;}
	.st3{fill:#3A565E;}
	.st4{fill:#E6E6E6;}
	.st5{opacity:0.14;fill:#F7F7F7;}
	.st6{opacity:0.48;fill:url(#XMLID_5_);}
	.st7{opacity:0.48;fill:url(#XMLID_6_);}
	.st8{fill:#FFFFFF;}
	.st9{fill:#2F3C3F;}
	.st10{fill:#1A1A1A;}
	.st11{fill:#6B7B9B;}
	.st12{fill:#484B66;}
	.st13{fill:#D3DEEF;}
	.st14{fill:#D3DEEF;stroke:#000000;stroke-width:9;stroke-miterlimit:10;}
	.st15{fill:#273530;}
	.st16{fill:#B78B1C;}
	.st17{fill:#298E7F;}
	.st18{fill:#CEA229;}
	.st19{fill:#E3C820;}
</style>
<g id="bg">
	<rect y="-4" class="st0" width="1440" height="632"/>
</g>
<g id="farHo">
	<rect x="1" y="251" class="st1" width="210" height="383"/>
	<rect x="250" y="339" class="st1" width="210" height="295"/>
	<rect x="546" y="430" class="st1" width="286" height="204"/>
	<rect x="1150" y="430" class="st1" width="286" height="204"/>
	<polygon class="st1" points="794,430 680,430 703,387 767,387 	"/>
	<polygon class="st1" points="710,430 596,430 619,387 683,387 	"/>
</g>
<g id="frontHo">
	<polygon class="st2" points="528,224.5 528,144 514,144 514,40 503,40 503,144 489,144 489,230.6 416,242 416,705 557,705 557,220 
			"/>
	<path class="st2" d="M320.2,705V405c0,0-84.2-44-319.2-44v344H320.2z"/>
	<polygon class="st2" points="1355,272 1355,105.8 1264,132.8 1264,322 1231,322 1264,380 1264,705 1386,705 1386,313 	"/>
	<g>
		<polygon class="st2" points="1120,379 1120,389.6 1130,389.6 1130,705 1199,705 1199,389.6 1208,389.6 1208,379 		"/>
		<rect x="1116.6" y="368" class="st2" width="94.7" height="7.8"/>
	</g>
	<path class="st2" d="M332,448c0,0,36-2,46-18v275h-46V448z"/>
</g>
<g id="Layer_2">
	<rect x="1" y="626" class="st3" width="1440" height="1174"/>
	<path class="st1" d="M415.7,1016c0,0-3.1,10.7-39.9,19c-24.9,5.6-47.1-5.3-62.1-24.3v-2c7.4,3.2,16.6,5.3,27.8,5.3
		c76.5,0,66.5-58.6,66.5-58.6h-13c0,40.6-22,47.6-52,47.6c-26,0-40.7-15.9-44.2-20.1c-0.3-0.8-0.6-1.7-0.8-2.5V906h-13v74.3
		c-0.3,0.8-0.5,1.7-0.8,2.5c-3.5,4.2-18.2,20.1-44.2,20.1c-30,0-52-7.1-52-47.6h-13c0,0-10,58.6,66.5,58.6c11.2,0,20.3-2.1,27.8-5.3
		v2c-15,19-37.2,29.9-62.1,24.3c-36.8-8.3-39.9-19-39.9-19l-19.4-4.4c0,0,1.5,23.1,55.8,35.4c30,6.8,51.1-2.4,65.6-15.8v475.4
		L260,1523v194.2c0,0,8,8.8,31.5,8.8c26.5,0,31.5-8.8,31.5-8.8v-194.9l-9.3-15.7v-475.4c14.5,13.4,35.6,22.6,65.6,15.8
		c54.2-12.3,55.8-35.4,55.8-35.4L415.7,1016z"/>
	<rect x="1" y="669" class="st4" width="1440" height="4"/>
	<rect x="1" y="655" class="st4" width="1440" height="4"/>
	<g id="XMLID_41_">
		<circle id="XMLID_43_" class="st5" cx="436.6" cy="1151" r="214.9"/>
		<linearGradient id="XMLID_5_" gradientUnits="userSpaceOnUse" x1="436.6402" y1="1231.838" x2="436.6402" y2="1012.1113">
			<stop  offset="0" style="stop-color:#F7F6EF;stop-opacity:0"/>
			<stop  offset="4.014838e-02" style="stop-color:#F7F5E3;stop-opacity:4.014838e-02"/>
			<stop  offset="0.3115" style="stop-color:#FAEE93;stop-opacity:0.3115"/>
			<stop  offset="0.5526" style="stop-color:#FCE854;stop-opacity:0.5526"/>
			<stop  offset="0.7547" style="stop-color:#FEE426;stop-opacity:0.7547"/>
			<stop  offset="0.9101" style="stop-color:#FFE20A;stop-opacity:0.9101"/>
			<stop  offset="1" style="stop-color:#FFE100"/>
			<stop  offset="1" style="stop-color:#3D2F5C"/>
		</linearGradient>
		<circle id="XMLID_42_" class="st6" cx="436.6" cy="1110.8" r="174.8"/>
	</g>
	<g id="XMLID_1_">
		<circle id="XMLID_4_" class="st5" cx="160.6" cy="1151" r="214.9"/>
		<linearGradient id="XMLID_6_" gradientUnits="userSpaceOnUse" x1="160.6402" y1="1231.838" x2="160.6402" y2="1012.1113">
			<stop  offset="0" style="stop-color:#F7F6EF;stop-opacity:0"/>
			<stop  offset="4.014838e-02" style="stop-color:#F7F5E3;stop-opacity:4.014838e-02"/>
			<stop  offset="0.3115" style="stop-color:#FAEE93;stop-opacity:0.3115"/>
			<stop  offset="0.5526" style="stop-color:#FCE854;stop-opacity:0.5526"/>
			<stop  offset="0.7547" style="stop-color:#FEE426;stop-opacity:0.7547"/>
			<stop  offset="0.9101" style="stop-color:#FFE20A;stop-opacity:0.9101"/>
			<stop  offset="1" style="stop-color:#FFE100"/>
			<stop  offset="1" style="stop-color:#3D2F5C"/>
		</linearGradient>
		<circle id="XMLID_2_" class="st7" cx="160.6" cy="1110.8" r="174.8"/>
	</g>
	<rect y="779.1" class="st8" width="151" height="10.9"/>
	<rect x="303" y="779.1" class="st8" width="151" height="10.9"/>
	<rect x="606" y="779.1" class="st8" width="151" height="10.9"/>
	<rect x="909" y="779.1" class="st8" width="151" height="10.9"/>
	<rect x="1212" y="779.1" class="st8" width="151" height="10.9"/>
	<circle class="st8" cx="292.5" cy="1124.5" r="50.5"/>
	<circle class="st8" cx="292.5" cy="890.5" r="50.5"/>
	<circle class="st8" cx="416.5" cy="941.5" r="50.5"/>
	<circle class="st8" cx="416.5" cy="1062.5" r="50.5"/>
	<circle class="st8" cx="160.5" cy="941.5" r="50.5"/>
	<circle class="st8" cx="160.5" cy="1062.5" r="50.5"/>
	<rect x="1" y="1799.1" class="st9" width="1439" height="458.6"/>
	<rect x="1" y="2258" class="st1" width="1440" height="2549"/>
</g>
<g id="liteStation">
	<rect x="1227.7" y="4529.6" class="st3" width="346.8" height="277.3"/>
	<g>
		<rect x="1302" y="4255" class="st9" width="87.6" height="553.2"/>
		<rect x="1317.3" y="4255" class="st10" width="57" height="553.2"/>
	</g>
	<g>
		
			<rect x="1412.5" y="4255" transform="matrix(-1 -4.485091e-11 4.485091e-11 -1 2912.6375 9063.3477)" class="st9" width="87.6" height="553.2"/>
		
			<rect x="1427.8" y="4255" transform="matrix(-1 -4.490154e-11 4.490154e-11 -1 2912.6375 9063.3477)" class="st10" width="57" height="553.2"/>
	</g>
	<g>
		<path class="st2" d="M1574.5,4672.8c-87.9-113.3-259-113.3-346.8,0c0-190.2,0-380.4,0-570.6c87.9-113.3,259-113.3,346.8,0
			C1574.5,4292.4,1574.5,4482.6,1574.5,4672.8z"/>
	</g>
</g>
<g id="railwaySta">
	<g>
		<rect x="-11.7" y="1713.3" class="st11" width="1054.3" height="290.7"/>
		<rect x="-11.7" y="1926.4" class="st12" width="1054.3" height="331.4"/>
		<rect x="105.8" y="2028.8" class="st13" width="845.7" height="228.9"/>
		<circle class="st14" cx="511.4" cy="1978" r="27.7"/>
		<rect x="511.4" y="1975.7" width="31.6" height="5.3"/>
		<rect x="857.4" y="2028.8" class="st1" width="18.1" height="228.9"/>
		<rect x="770" y="2028.8" class="st1" width="18.1" height="228.9"/>
		<rect x="682.7" y="2028.8" class="st1" width="18.1" height="228.9"/>
		<rect x="595.3" y="2028.8" class="st1" width="18.1" height="228.9"/>
		<rect x="508" y="2028.8" class="st1" width="18.1" height="228.9"/>
		<rect x="420.6" y="2028.8" class="st1" width="18.1" height="228.9"/>
		<rect x="333.2" y="2028.8" class="st1" width="18.1" height="228.9"/>
		<rect x="245.9" y="2028.8" class="st1" width="18.1" height="228.9"/>
		<rect x="158.5" y="2028.8" class="st1" width="18.1" height="228.9"/>
		<rect x="70.8" y="2077.8" class="st12" width="916.1" height="6.8"/>
		<rect x="71.5" y="2132.7" class="st12" width="916.1" height="6.8"/>
		<rect x="72.3" y="2187.7" class="st12" width="916.1" height="6.8"/>
		<rect x="526" y="2194.5" class="st11" width="69.3" height="63.3"/>
		<rect x="438.7" y="2194.5" class="st11" width="69.3" height="63.3"/>
	</g>
</g>
<g id="tram">
	<g>
		<polygon class="st15" points="921.4,649.6 731.6,649.6 661.3,649.6 436.7,649.6 436.7,490.8 921.4,490.8 		"/>
		<g>
			<rect x="661.3" y="639.7" class="st15" width="63.6" height="18.3"/>
			<circle class="st15" cx="604.9" cy="646.3" r="23.2"/>
			<circle class="st15" cx="651.4" cy="646.3" r="23.2"/>
			<circle class="st15" cx="736.6" cy="646.3" r="23.2"/>
			<circle class="st15" cx="783.1" cy="646.3" r="23.2"/>
		</g>
		<path class="st16" d="M573.9,517.9L573.9,517.9l-9.4-8.3h-46.4l-9,8.3v73v8.3v50.4h64.7v-50.4V591v-73.1H573.9z M564.5,570h-46.4
			v-50.4h46.4V570z"/>
		<path class="st16" d="M921.4,517.9L921.4,517.9l-9.4-8.3h-46.4l-9,8.3v73v8.3v50.4h64.7v-50.4V591v-73.1H921.4z M912,570h-46.4
			v-50.4H912V570z"/>
		<polygon class="st17" points="856.6,649.6 856.6,599.3 573.9,599.3 573.9,649.6 509.2,649.6 509.2,599.3 436.7,599.3 436.7,649.6 
			436.7,669.5 596,669.5 616.5,649.6 768.3,649.6 789.8,669.5 921.4,669.5 921.4,649.6 		"/>
		<g>
			<path class="st18" d="M640.9,517.9h-58.1v73h58.1V517.9z M635.4,586H589v-33.2h46.4V586z M635.4,546.7H589v-23.2h46.4V546.7z"/>
			<rect x="589" y="523.5" class="st15" width="46.4" height="23.2"/>
			<rect x="589" y="552.8" class="st15" width="46.4" height="33.2"/>
		</g>
		<g>
			<path class="st18" d="M709.5,517.9h-58.1v73h58.1V517.9z M704,586h-46.4v-33.2H704V586z M704,546.7h-46.4v-23.2H704V546.7z"/>
			<rect x="657.6" y="523.5" class="st15" width="46.4" height="23.2"/>
			<rect x="657.6" y="552.8" class="st15" width="46.4" height="33.2"/>
		</g>
		<g>
			<path class="st18" d="M778.1,517.9H720v73h58.1V517.9z M772.6,586h-46.4v-33.2h46.4V586z M772.6,546.7h-46.4v-23.2h46.4V546.7z"
				/>
			<rect x="726.2" y="523.5" class="st15" width="46.4" height="23.2"/>
			<rect x="726.2" y="552.8" class="st15" width="46.4" height="33.2"/>
		</g>
		<g>
			<path class="st18" d="M846.7,517.9h-58.1v73h58.1V517.9z M841.2,586h-46.4v-33.2h46.4V586z M841.2,546.7h-46.4v-23.2h46.4V546.7z
				"/>
			<rect x="794.8" y="523.5" class="st15" width="46.4" height="23.2"/>
			<rect x="794.8" y="552.8" class="st15" width="46.4" height="33.2"/>
		</g>
		<g>
			<path class="st18" d="M500.3,517.9h-58.1v73h58.1V517.9z M494.8,586h-46.4v-33.2h46.4V586z M494.8,546.7h-46.4v-23.2h46.4V546.7z
				"/>
			<rect x="448.4" y="523.5" class="st15" width="46.4" height="23.2"/>
			<rect x="448.4" y="552.8" class="st15" width="46.4" height="33.2"/>
			<polygon class="st19" points="500.3,591 442.2,591 436.7,591 436.7,599.3 509.2,599.3 509.2,591 			"/>
		</g>
		<polygon class="st19" points="846.7,591 788.6,591 778.1,591 720,591 709.5,591 651.4,591 640.9,591 582.8,591 573.9,591 
			573.9,599.3 856.6,599.3 856.6,591 		"/>
		<polygon class="st17" points="442.2,591 442.2,517.9 500.3,517.9 500.3,591 509.2,591 509.2,517.9 518.1,509.6 564.5,509.6 
			573.9,517.9 573.9,517.9 573.9,591 582.8,591 582.8,517.9 640.9,517.9 640.9,591 651.4,591 651.4,517.9 709.5,517.9 709.5,591 
			720,591 720,517.9 778.1,517.9 778.1,591 788.6,591 788.6,517.9 846.7,517.9 846.7,591 856.6,591 856.6,517.9 865.6,509.6 
			912,509.6 921.4,517.9 921.4,517.9 921.4,517.9 921.4,490.8 436.7,490.8 436.7,591 		"/>
		<path class="st19" d="M921.4,474.2H453.3c-9.2,0-16.6,7.4-16.6,16.6h484.7V474.2z"/>
		<polygon class="st19" points="921.4,509.6 912,501.9 865.6,501.9 856.6,509.6 856.6,509.6 573.9,509.6 564.5,501.9 518.1,501.9 
			509.2,509.6 436.7,509.6 436.7,517.9 509.2,517.9 518.1,509.6 564.5,509.6 573.9,517.9 856.6,517.9 856.6,517.9 865.6,509.6 
			912,509.6 921.4,517.9 921.4,517.9 		"/>
	</g>
	<g>
		<polygon class="st15" points="921.4,490.8 1406.1,490.8 1406.1,649.6 1181.5,649.6 1111.2,649.6 921.4,649.6 		"/>
		<g>
			<rect x="1117.9" y="639.7" class="st15" width="63.6" height="18.3"/>
			<circle class="st15" cx="1237.9" cy="646.3" r="23.2"/>
			<circle class="st15" cx="1191.4" cy="646.3" r="23.2"/>
			<circle class="st15" cx="1106.2" cy="646.3" r="23.2"/>
			<circle class="st15" cx="1059.7" cy="646.3" r="23.2"/>
		</g>
		<path class="st16" d="M1269,517.9V591v8.2v50.4h64.7v-50.4v-8.3v-73l-9-8.3h-46.4L1269,517.9L1269,517.9L1269,517.9z
			 M1278.3,519.6h46.4V570h-46.4V519.6z"/>
		<path class="st16" d="M921.5,517.9V591v8.2v50.4h64.7v-50.4v-8.3v-73l-9-8.3h-46.4l-9.4,8.3l0,0H921.5z M930.8,519.6h46.4V570
			h-46.4V519.6z"/>
		<polygon class="st17" points="921.4,649.6 921.4,669.5 1053,669.5 1074.5,649.6 1226.3,649.6 1246.8,669.5 1406.1,669.5 
			1406.1,649.6 1406.1,599.3 1333.6,599.3 1333.6,649.6 1268.9,649.6 1268.9,599.3 986.2,599.3 986.2,649.6 		"/>
		<g>
			<path class="st18" d="M1201.9,590.9h58.1v-73h-58.1V590.9z M1207.4,552.8h46.4V586h-46.4V552.8z M1207.4,523.5h46.4v23.2h-46.4
				V523.5z"/>
			<rect x="1207.4" y="523.5" class="st15" width="46.4" height="23.2"/>
			<rect x="1207.4" y="552.8" class="st15" width="46.4" height="33.2"/>
		</g>
		<g>
			<path class="st18" d="M1133.3,590.9h58.1v-73h-58.1V590.9z M1138.8,552.8h46.4V586h-46.4V552.8z M1138.8,523.5h46.4v23.2h-46.4
				V523.5z"/>
			<rect x="1138.8" y="523.5" class="st15" width="46.4" height="23.2"/>
			<rect x="1138.8" y="552.8" class="st15" width="46.4" height="33.2"/>
		</g>
		<g>
			<path class="st18" d="M1064.7,590.9h58.1v-73h-58.1V590.9z M1070.2,552.8h46.4V586h-46.4V552.8z M1070.2,523.5h46.4v23.2h-46.4
				V523.5z"/>
			<rect x="1070.2" y="523.5" class="st15" width="46.4" height="23.2"/>
			<rect x="1070.2" y="552.8" class="st15" width="46.4" height="33.2"/>
		</g>
		<g>
			<path class="st18" d="M996.1,590.9h58.1v-73h-58.1V590.9z M1001.6,552.8h46.4V586h-46.4V552.8z M1001.6,523.5h46.4v23.2h-46.4
				V523.5z"/>
			<rect x="1001.6" y="523.5" class="st15" width="46.4" height="23.2"/>
			<rect x="1001.6" y="552.8" class="st15" width="46.4" height="33.2"/>
		</g>
		<g>
			<path class="st18" d="M1342.5,590.9h58.1v-73h-58.1V590.9z M1348,552.8h46.4V586H1348V552.8z M1348,523.5h46.4v23.2H1348V523.5z"
				/>
			<rect x="1348" y="523.5" class="st15" width="46.4" height="23.2"/>
			<rect x="1348" y="552.8" class="st15" width="46.4" height="33.2"/>
			<polygon class="st19" points="1333.6,591 1333.6,599.3 1406.1,599.3 1406.1,591 1400.6,591 1342.5,591 			"/>
		</g>
		<polygon class="st19" points="986.2,591 986.2,599.3 1268.9,599.3 1268.9,591 1260,591 1201.9,591 1191.4,591 1133.3,591 
			1122.8,591 1064.7,591 1054.2,591 996.1,591 		"/>
		<polygon class="st17" points="1406.1,591 1406.1,490.8 921.4,490.8 921.4,517.9 921.4,517.9 921.4,517.9 930.8,509.6 977.2,509.6 
			986.2,517.9 986.2,591 996.1,591 996.1,517.9 1054.2,517.9 1054.2,591 1064.7,591 1064.7,517.9 1122.8,517.9 1122.8,591 
			1133.3,591 1133.3,517.9 1191.4,517.9 1191.4,591 1201.9,591 1201.9,517.9 1260,517.9 1260,591 1268.9,591 1268.9,517.9 
			1268.9,517.9 1278.3,509.6 1324.7,509.6 1333.6,517.9 1333.6,591 1342.5,591 1342.5,517.9 1400.6,517.9 1400.6,591 		"/>
		<path class="st19" d="M921.4,490.8h484.7c0-9.2-7.4-16.6-16.6-16.6H921.4V490.8z"/>
		<polygon class="st19" points="921.4,517.9 921.4,517.9 930.8,509.6 977.2,509.6 986.2,517.9 986.2,517.9 1268.9,517.9 
			1278.3,509.6 1324.7,509.6 1333.6,517.9 1406.1,517.9 1406.1,509.6 1333.6,509.6 1324.7,501.9 1278.3,501.9 1268.9,509.6 
			986.2,509.6 986.2,509.6 977.2,501.9 930.8,501.9 921.4,509.6 		"/>
	</g>
	<polygon class="st18" points="989.5,475 996.5,475 1072.5,368 1065.5,368 	"/>
	<polygon class="st18" points="936.5,475 943.5,475 1019.5,368 1012.5,368 	"/>
</g>
<g id="logo">
	<g>
		<g>
			<path class="st19" d="M111.8,44.6c-0.2-3.5-1.1-16.1,6-16.1c3.7,0,13.7,1.1,13.7,35l8.7-0.1c0,0,0.4-37.3-22.5-37.3
				c-9.8,0-11.7,8.6-11.7,18.1c0,9,0.9,16.2,16.6,32c10.5,10.5,10,20.2,10.4,28.2c0.3,5.8-0.2,24.3-6.1,24.3
				c-13.1,0-12.1-45.4-12.1-45.4h-8.4c0,0-2.8,47.3,20.5,47.3c9.1,0,15-4.4,15-26.2c0-8.6,0.4-18.7-9.1-28.2
				C126.3,69.7,112.9,63.3,111.8,44.6z"/>
			<path class="st19" d="M176.3,83.2H167c0,0,1.8,12.7,1.8,18.3s2.3,16.9-4.1,16.9c-6.4,0-5.9-12.4-6-16.9
				c-0.1-4.6-1.6-18.3-1.6-18.3H148c0,0,1.3,13.6,1.2,18.3c0,5.8-0.7,18.3,15.2,18.3s13.6-10.4,13.6-18.3S176.3,83.2,176.3,83.2z"/>
			<path class="st19" d="M209.5,116.5c-5.8-5.8-6.9-15.4-7-17.4c7.6-0.4,16.1-2.7,16.1-11.1c0-15.3-22.6-13.1-26-12.9
				c-1.4,0.1-3,0.2-4.5,0.3c-0.3-3.3-0.6-6.9-0.8-10.5h13.3c0,2.5-0.1,4.8-0.1,7l8.8-0.1c0,0,0.5-33.5-16.9-33.5
				c-12.7,0-14,21.7-13.4,36.6c-2.1-0.4-4.4-1.1-6.7-2.3c1.7-3.8,1.4-9.5,1.4-16.8c0,0,0.7-22.1-16.7-22.1
				c-17.4,0-12.7,22.1-12.7,22.1s0.5,22.5,15.5,22.5c6.2,0,9.6-1.4,11.6-4c2.2,0.6,4.8,1.1,7.7,1.6c0.3,7.3,1.1,12.7,1.1,12.7h9.5
				c0,0-0.8-5.1-1.5-11.9c1.4,0.1,2.9,0.1,4.4,0.1c12.8,0,17.6,4.1,17.6,9.9c0,7.9-5.7,10.8-10.5,10.8c-8.3,0-10-5.7-10-5.7
				l-9.1,0.1c1.7,7.1,0.8,26.5,0.8,26.5h9.7c1-8.9-0.7-19.9-0.7-19.9s1,0.2,2.6,0.4c0,0.2,2,10.9,9.2,18.1
				c7.3,7.3,24.2,5.3,24.2,5.3v-1.6C226.3,120.6,216,123,209.5,116.5z M160.1,76.8c-7.5,0-7.8-15.3-8.2-20.9
				c-0.3-5.2-1.9-20.2,5-20.2c7,0,8.8,14.8,9.3,20.2c0.2,2.7,0.6,8.2-0.2,12.8c-1.4-1.1-2.9-2.4-4.4-3.9h-5.6c0,0,1.8,3.9,9.2,7.2
				C164.3,74.9,162.7,76.8,160.1,76.8z M192.1,41.3c7.5,0,8.4,11.4,8.4,22.1h-13.4C186.7,52.1,187.5,41.3,192.1,41.3z"/>
			<path class="st19" d="M250,111.9c0,0-6.4,1.1-11.5,1.2c-3.3,0.1-7.7,0.9-8.4-12.4c-0.3-5.4-0.8-15.5-1.4-25.6l14.4-0.8l-0.1-1.6
				l-14.4,0.8c-0.8-14.3-1.5-28.1-1.5-28.1s-0.6-11.5,9.8-12.1l4.3,0l0-1l-13-0.1c0,0-10.7-0.1-10,13.4c0.7,13.5,3,55.8,3,55.8
				s1.9,13.9,15.4,13.1c13.5-0.7,13.5-0.7,13.5-0.7L250,111.9z"/>
		</g>
		<g>
			<path class="st2" d="M326.3,120.4c-1.3-0.4-8.9-2-16.6,5.7c-7.3,7.3-24.8,12-50.5-3.1c2-2.2,4.2-5.7,6.4-8.5
				c6.2,1.9,15.3,4.2,21.3,3.6c0.7,5.7,2.5,8.9,2.5,8.9h6.7v-11.8c6.4-1.4,13.2,0,19.2,1.9l0.4-0.9l-13.7-3.7c0,0-2.6-0.9-6-0.9
				v-1.7c6.8,0,12.4,0,12.4,0l-1-1.6h-11.3v-7.5l-7.5,1.5c0,0-0.8,0.6-1.9,6h-11.9c0,0,14.1-2.8,18.9-17.7
				c4.6-1.2,10.4,0.8,14.8,1.7l0.2-0.6c0,0-7.3-3.1-14.5-2.9c0.6-2.3,0.9-4.9,0.9-7.7h-9.4c0,0-0.7,5.1-2.5,10.6
				c-3.4,1-7.3,1.7-12.3,1.1c-11.5-1.3-13.2-13.3-13.2-13.3h-5.4c0,12.6,14.9,14,20.1,14.5c1.9,0.2,5.9,0.5,9.9,0.2
				c-1.4,3.7-3.4,7.2-5.9,9c-9.5,7-26.5,4.9-26.5,4.9c19,0,25.3-13.1,25.3-13.1s-2.3,0.5-4.9,0.5c-10.5,0-18.4-5.2-18.4-5.2l0.1,3.5
				c0,0,7.6,2.5,13.9,2.5c-12.3,12.3-23.4,10.2-23.4,10.2v0.5c7.3,3.2,20.1,2.9,20.1,2.9c-1.2,0-2.4,0.7-3.5,1.7c0,0,0,0,0,0l0,0.1
				c-2.1,1.9-3.7,4.6-3.7,4.6s-4.5,8.5-13,8.5c-8.5,0-14.4,1.2-14.4,1.2l0.5,1.7c0,0,1.6-1.1,14.3-1.1c12.7,0,13.2-0.9,15-2.2
				c0.1-0.1,0.3-0.2,0.4-0.3c9.8,5.1,41.1,20,55.3,9.9c16.9-12,14.5-12.3,27.9-6.9l0.3-0.9C341.7,126.1,330.2,121.5,326.3,120.4z
				 M271.5,109.9c0.6,0,7.5,0,15.1,0c-0.1,0.9-0.1,1.9-0.1,3.1c0,0.5,0,1,0,1.4c-4,2.9-13.7,1.1-20.4-0.6
				C268,111.5,269.8,109.9,271.5,109.9z"/>
			<path class="st2" d="M295.3,55.1c-6.9-7.6-12.6-8-13.8-8c0,0,0-0.1,0-0.1c7.6-3.6,16.4-2.1,23.9,0.3l0.4-0.9l-13.7-3.7
				c0,0-4.6-1.5-9.5-0.7c2.1-10.7,2-19.3,2-19.3h-11.9c0,9.2-0.7,16.9-1.8,23.4c-8.7,0.3-21.8-4.3-21.8-4.3l-0.3,0.6
				c0,0,11.9,4.4,21.8,5.7c-6.9,35-27.8,32.1-27.8,32.1v2.3c23.5,0,33.9-17.8,38.4-33.9c3.3,0.8,7,3.8,10.1,11.6
				c8.4,20.5,16.8,27,16.8,27c0.8-10.4,18.8-14,18.8-14C304.3,73.1,303.1,63.7,295.3,55.1z"/>
		</g>
	</g>
</g>
</svg>
