<?xml version="1.0" encoding="utf-8"?>
<!-- Generator: Adobe Illustrator 21.0.0, SVG Export Plug-In . SVG Version: 6.00 Build 0)  -->
<svg version="1.1" id="Layer_1" xmlns="http://www.w3.org/2000/svg" xmlns:xlink="http://www.w3.org/1999/xlink" x="0px" y="0px"
	 viewBox="0 0 972 311" style="enable-background:new 0 0 972 311;" xml:space="preserve">
<style type="text/css">
	.st0{fill:#273530;}
	.st1{fill:#B78B1C;}
	.st2{fill:#298E7F;}
	.st3{fill:#CEA229;}
	.st4{fill:#E3C820;}
</style>
<g>
	<polygon class="st0" points="487.4,281.6 297.6,281.6 227.3,281.6 2.7,281.6 2.7,122.8 487.4,122.8 	"/>
	<g>
		<rect x="227.3" y="271.7" class="st0" width="63.6" height="18.3"/>
		<circle class="st0" cx="170.9" cy="278.3" r="23.2"/>
		<circle class="st0" cx="217.4" cy="278.3" r="23.2"/>
		<circle class="st0" cx="302.6" cy="278.3" r="23.2"/>
		<circle class="st0" cx="349.1" cy="278.3" r="23.2"/>
	</g>
	<path class="st1" d="M139.9,149.9L139.9,149.9l-9.4-8.3H84.1l-9,8.3v73v8.3v50.4h64.7v-50.4V223v-73.1H139.9z M130.5,202H84.1
		v-50.4h46.4V202z"/>
	<path class="st1" d="M487.4,149.9L487.4,149.9l-9.4-8.3h-46.4l-9,8.3v73v8.3v50.4h64.7v-50.4V223v-73.1H487.4z M478,202h-46.4
		v-50.4H478V202z"/>
	<polygon class="st2" points="422.6,281.6 422.6,231.3 139.9,231.3 139.9,281.6 75.2,281.6 75.2,231.3 2.7,231.3 2.7,281.6 
		2.7,301.5 162,301.5 182.5,281.6 334.3,281.6 355.8,301.5 487.4,301.5 487.4,281.6 	"/>
	<g>
		<path class="st3" d="M206.9,149.9h-58.1v73h58.1V149.9z M201.4,218H155v-33.2h46.4V218z M201.4,178.7H155v-23.2h46.4V178.7z"/>
		<rect x="155" y="155.5" class="st0" width="46.4" height="23.2"/>
		<rect x="155" y="184.8" class="st0" width="46.4" height="33.2"/>
	</g>
	<g>
		<path class="st3" d="M275.5,149.9h-58.1v73h58.1V149.9z M270,218h-46.4v-33.2H270V218z M270,178.7h-46.4v-23.2H270V178.7z"/>
		<rect x="223.6" y="155.5" class="st0" width="46.4" height="23.2"/>
		<rect x="223.6" y="184.8" class="st0" width="46.4" height="33.2"/>
	</g>
	<g>
		<path class="st3" d="M344.1,149.9H286v73h58.1V149.9z M338.6,218h-46.4v-33.2h46.4V218z M338.6,178.7h-46.4v-23.2h46.4V178.7z"/>
		<rect x="292.2" y="155.5" class="st0" width="46.4" height="23.2"/>
		<rect x="292.2" y="184.8" class="st0" width="46.4" height="33.2"/>
	</g>
	<g>
		<path class="st3" d="M412.7,149.9h-58.1v73h58.1V149.9z M407.2,218h-46.4v-33.2h46.4V218z M407.2,178.7h-46.4v-23.2h46.4V178.7z"
			/>
		<rect x="360.8" y="155.5" class="st0" width="46.4" height="23.2"/>
		<rect x="360.8" y="184.8" class="st0" width="46.4" height="33.2"/>
	</g>
	<g>
		<path class="st3" d="M66.3,149.9H8.2v73h58.1C66.3,222.9,66.3,149.9,66.3,149.9z M60.8,218H14.4v-33.2h46.4
			C60.8,184.8,60.8,218,60.8,218z M60.8,178.7H14.4v-23.2h46.4C60.8,155.5,60.8,178.7,60.8,178.7z"/>
		<rect x="14.4" y="155.5" class="st0" width="46.4" height="23.2"/>
		<rect x="14.4" y="184.8" class="st0" width="46.4" height="33.2"/>
		<polygon class="st4" points="66.3,223 8.2,223 2.7,223 2.7,231.3 75.2,231.3 75.2,223 		"/>
	</g>
	<polygon class="st4" points="412.7,223 354.6,223 344.1,223 286,223 275.5,223 217.4,223 206.9,223 148.8,223 139.9,223 
		139.9,231.3 422.6,231.3 422.6,223 	"/>
	<polygon class="st2" points="8.2,223 8.2,149.9 66.3,149.9 66.3,223 75.2,223 75.2,149.9 84.1,141.6 130.5,141.6 139.9,149.9 
		139.9,149.9 139.9,223 148.8,223 148.8,149.9 206.9,149.9 206.9,223 217.4,223 217.4,149.9 275.5,149.9 275.5,223 286,223 
		286,149.9 344.1,149.9 344.1,223 354.6,223 354.6,149.9 412.7,149.9 412.7,223 422.6,223 422.6,149.9 431.6,141.6 478,141.6 
		487.4,149.9 487.4,149.9 487.4,149.9 487.4,122.8 2.7,122.8 2.7,223 	"/>
	<path class="st4" d="M487.4,106.2H19.3c-9.2,0-16.6,7.4-16.6,16.6h484.7L487.4,106.2L487.4,106.2z"/>
	<polygon class="st4" points="487.4,141.6 478,133.9 431.6,133.9 422.6,141.6 422.6,141.6 139.9,141.6 130.5,133.9 84.1,133.9 
		75.2,141.6 2.7,141.6 2.7,149.9 75.2,149.9 84.1,141.6 130.5,141.6 139.9,149.9 422.6,149.9 422.6,149.9 431.6,141.6 478,141.6 
		487.4,149.9 487.4,149.9 	"/>
</g>
<g>
	<polygon class="st0" points="487.4,122.8 972.1,122.8 972.1,281.6 747.5,281.6 677.2,281.6 487.4,281.6 	"/>
	<g>
		<rect x="683.9" y="271.7" class="st0" width="63.6" height="18.3"/>
		<circle class="st0" cx="803.9" cy="278.3" r="23.2"/>
		<circle class="st0" cx="757.4" cy="278.3" r="23.2"/>
		<circle class="st0" cx="672.2" cy="278.3" r="23.2"/>
		<circle class="st0" cx="625.7" cy="278.3" r="23.2"/>
	</g>
	<path class="st1" d="M835,149.9V223v8.2v50.4h64.7v-50.4v-8.3v-73l-9-8.3h-46.4l-9.4,8.3l0,0L835,149.9L835,149.9z M844.3,151.6
		h46.4V202h-46.4V151.6z"/>
	<path class="st1" d="M487.5,149.9V223v8.2v50.4h64.7v-50.4v-8.3v-73l-9-8.3h-46.4L487.5,149.9L487.5,149.9L487.5,149.9L487.5,149.9
		z M496.8,151.6h46.4V202h-46.4L496.8,151.6L496.8,151.6z"/>
	<polygon class="st2" points="487.4,281.6 487.4,301.5 619,301.5 640.5,281.6 792.3,281.6 812.8,301.5 972.1,301.5 972.1,281.6 
		972.1,231.3 899.6,231.3 899.6,281.6 834.9,281.6 834.9,231.3 552.2,231.3 552.2,281.6 	"/>
	<g>
		<path class="st3" d="M767.9,222.9H826v-73h-58.1V222.9z M773.4,184.8h46.4V218h-46.4V184.8z M773.4,155.5h46.4v23.2h-46.4V155.5z"
			/>
		<rect x="773.4" y="155.5" class="st0" width="46.4" height="23.2"/>
		<rect x="773.4" y="184.8" class="st0" width="46.4" height="33.2"/>
	</g>
	<g>
		<path class="st3" d="M699.3,222.9h58.1v-73h-58.1V222.9z M704.8,184.8h46.4V218h-46.4V184.8z M704.8,155.5h46.4v23.2h-46.4V155.5z
			"/>
		<rect x="704.8" y="155.5" class="st0" width="46.4" height="23.2"/>
		<rect x="704.8" y="184.8" class="st0" width="46.4" height="33.2"/>
	</g>
	<g>
		<path class="st3" d="M630.7,222.9h58.1v-73h-58.1V222.9z M636.2,184.8h46.4V218h-46.4V184.8z M636.2,155.5h46.4v23.2h-46.4V155.5z
			"/>
		<rect x="636.2" y="155.5" class="st0" width="46.4" height="23.2"/>
		<rect x="636.2" y="184.8" class="st0" width="46.4" height="33.2"/>
	</g>
	<g>
		<path class="st3" d="M562.1,222.9h58.1v-73h-58.1V222.9z M567.6,184.8H614V218h-46.4V184.8z M567.6,155.5H614v23.2h-46.4V155.5z"
			/>
		<rect x="567.6" y="155.5" class="st0" width="46.4" height="23.2"/>
		<rect x="567.6" y="184.8" class="st0" width="46.4" height="33.2"/>
	</g>
	<g>
		<path class="st3" d="M908.5,222.9h58.1v-73h-58.1V222.9z M914,184.8h46.4V218H914V184.8z M914,155.5h46.4v23.2H914V155.5z"/>
		<rect x="914" y="155.5" class="st0" width="46.4" height="23.2"/>
		<rect x="914" y="184.8" class="st0" width="46.4" height="33.2"/>
		<polygon class="st4" points="899.6,223 899.6,231.3 972.1,231.3 972.1,223 966.6,223 908.5,223 		"/>
	</g>
	<polygon class="st4" points="552.2,223 552.2,231.3 834.9,231.3 834.9,223 826,223 767.9,223 757.4,223 699.3,223 688.8,223 
		630.7,223 620.2,223 562.1,223 	"/>
	<polygon class="st2" points="972.1,223 972.1,122.8 487.4,122.8 487.4,149.9 487.4,149.9 487.4,149.9 496.8,141.6 543.2,141.6 
		552.2,149.9 552.2,223 562.1,223 562.1,149.9 620.2,149.9 620.2,223 630.7,223 630.7,149.9 688.8,149.9 688.8,223 699.3,223 
		699.3,149.9 757.4,149.9 757.4,223 767.9,223 767.9,149.9 826,149.9 826,223 834.9,223 834.9,149.9 834.9,149.9 844.3,141.6 
		890.7,141.6 899.6,149.9 899.6,223 908.5,223 908.5,149.9 966.6,149.9 966.6,223 	"/>
	<path class="st4" d="M487.4,122.8h484.7c0-9.2-7.4-16.6-16.6-16.6H487.4V122.8z"/>
	<polygon class="st4" points="487.4,149.9 487.4,149.9 496.8,141.6 543.2,141.6 552.2,149.9 552.2,149.9 834.9,149.9 844.3,141.6 
		890.7,141.6 899.6,149.9 972.1,149.9 972.1,141.6 899.6,141.6 890.7,133.9 844.3,133.9 834.9,141.6 552.2,141.6 552.2,141.6 
		543.2,133.9 496.8,133.9 487.4,141.6 	"/>
</g>
<polygon class="st3" points="555.5,107 562.5,107 638.5,0 631.5,0 "/>
<polygon class="st3" points="502.5,107 509.5,107 585.5,0 578.5,0 "/>
</svg>
