<?xml version="1.0" encoding="utf-8"?>
<!-- Generator: Adobe Illustrator 21.0.0, SVG Export Plug-In . SVG Version: 6.00 Build 0)  -->
<svg version="1.1" xmlns="http://www.w3.org/2000/svg" xmlns:xlink="http://www.w3.org/1999/xlink" x="0px" y="0px"
	 viewBox="0 0 9656 602" style="enable-background:new 0 0 9656 602;" xml:space="preserve">
<style type="text/css">
	.st0{fill:url(#SVGID_1_);}
	.st1{fill:#DCE1E2;}
	.st2{fill:#D7F3F4;}
	.st3{fill:#33C4E5;}
	.st4{fill:#DCE2E2;}
	.st5{fill:#CCCCCC;}
	.st6{fill:#F2F2F2;}
</style>
<g id="Layer_2">
	<linearGradient id="SVGID_1_" gradientUnits="userSpaceOnUse" x1="-8" y1="226.5" x2="3629" y2="226.5">
		<stop  offset="0" style="stop-color:#FFFFFF"/>
		<stop  offset="0" style="stop-color:#299AD3"/>
		<stop  offset="1" style="stop-color:#0071BC"/>
	</linearGradient>
	<rect x="-8" y="0" class="st0" width="3637" height="453"/>
	<polygon class="st1" points="1317,229 1317,53 1293,53 1293,229 1278,229 1278,242 1293,242 1317,242 1333,242 1333,229 	"/>
	<polygon class="st1" points="858,229 858,53 834,53 834,229 818,229 818,242 834,242 858,242 873,242 873,229 	"/>
	<rect x="-8" y="165.5" class="st1" width="3157" height="6"/>
	<polygon class="st1" points="3559,86 3559,264.9 3542,226 3524,226 3524,45 3383,45 3383,198 3182,198 3182,119 3137,119 3137,198 
		3124,198 3124,119 3079,119 3079,226 2840,226 2872.7,301 2696,301 2696,368 2902,368 2998,368 3559,368 3604,368 3629,368 
		3629,86 	"/>
</g>
<g id="Layer_3">
	<g>
		<path class="st2" d="M579,278c0,0,30-1.5,53-7c0,0,25,7,53,7H579z"/>
		<path class="st2" d="M622,278c0,0,30-1.5,53-7c0,0,25,7,53,7H622z"/>
		<path class="st2" d="M663,278c0,0,30-1.5,53-7c0,0,25,7,53,7H663z"/>
	</g>
	<g>
		<path class="st2" d="M45,313c0,0,30-1.5,53-7c0,0,25,7,53,7H45z"/>
		<path class="st2" d="M88,313c0,0,30-1.5,53-7c0,0,25,7,53,7H88z"/>
		<path class="st2" d="M129,313c0,0,30-1.5,53-7c0,0,25,7,53,7H129z"/>
	</g>
	<path class="st2" d="M1453,271c-7.1,1.7-14.8,3-22.1,4c-11.4-1.9-18.9-4-18.9-4c-7.4,1.8-15.6,3.1-23.2,4.2
		c-11.9-1.9-19.8-4.2-19.8-4.2c-13.1,3.1-28.6,5-39.4,6c-19.2-1.9-33.6-6-33.6-6c-7.1,1.7-14.8,3-22.1,4c-11.4-1.9-18.9-4-18.9-4
		c-7.4,1.8-15.6,3.1-23.2,4.2c-11.9-1.9-19.8-4.2-19.8-4.2c-23,5.5-53,7-53,7h43h41h22h43h8h33h10h41h22h43h41
		C1478,278,1453,271,1453,271z"/>
	<path class="st2" d="M2110,326c-7.1,1.7-14.8,3-22.1,4c-11.4-1.9-18.9-4-18.9-4c-7.4,1.8-15.6,3.1-23.2,4.2
		c-11.9-1.9-19.8-4.2-19.8-4.2c-13.1,3.1-28.6,5-39.4,6c-19.2-1.9-33.6-6-33.6-6c-7.1,1.7-14.8,3-22.1,4c-11.4-1.9-18.9-4-18.9-4
		c-7.4,1.8-15.6,3.1-23.2,4.2c-11.9-1.9-19.8-4.2-19.8-4.2c-23,5.5-53,7-53,7h43h41h22h43h8h33h10h41h22h43h41
		C2135,333,2110,326,2110,326z"/>
</g>
<g id="Layer_4">
	<path class="st2" d="M9390.5,405c-107.4,0-282.2-47-389.5-47c-143,0-224.6,38-341,38c-93.8,0-230-32.2-323.8-32.2
		c-63.4,0-238.2,15.2-238.2,15.2s-199.1,26-265.5,26c-107.4,0-282.2-47-389.5-47c-143,0-224.6,38-341,38
		c-93.8,0-230-32.2-323.8-32.2c-63.4,0-238.2,15.2-238.2,15.2v0.1c-15.2,2-200.8,25.9-264.5,25.9c-107.4,0-282.2-47-389.5-47
		c-143,0-224.6,38-341,38c-93.8,0-230-32.2-323.8-32.2c-63.4,0-238.2,15.2-238.2,15.2s-199.1,26-265.5,26
		c-107.4,0-282.2-47-389.5-47c-143,0-224.6,38-341,38c-93.8,0-230-32.2-323.8-32.2c-63.4,0-238.2,15.2-238.2,15.2
		s-199.1,26-265.5,26c-107.4,0-282.2-47-389.5-47c-143,0-224.6,38-341,38c-93.8,0-230-32.2-323.8-32.2
		c-63.4,0-238.2,15.2-238.2,15.2v0.1c-15.2,2-200.8,25.9-264.5,25.9c-107.4,0-282.2-47-389.5-47c-143,0-224.6,38-341,38
		c-93.8,0-230-32.2-323.8-32.2C484.9,363.8,310,379,310,379v223h1557l1-6h1557l1558,6h1557l1-6h1557l1558,6V379
		C9656,379,9456.9,405,9390.5,405z"/>
</g>
<g id="Layer_5">
	<path class="st3" d="M4407.5,399c-107.4,0-282.2-47-389.5-47c-143,0-224.6,38-341,38c-93.8,0-230-32.2-323.8-32.2
		c-63.4,0-238.2,15.2-238.2,15.2s-199.1,26-265.5,26c-107.4,0-282.2-47-389.5-47c-143,0-224.6,38-341,38
		c-93.8,0-230-32.2-323.8-32.2c-63.4,0-238.2,15.2-238.2,15.2v0.1c-15.2,2-200.8,25.9-264.5,25.9c-107.4,0-282.2-47-389.5-47
		c-143,0-224.6,38-341,38c-93.8,0-230-32.2-323.8-32.2C174.9,357.8,0,373,0,373v223h1557h1h1557h1558V373
		C4673,373,4473.9,399,4407.5,399z"/>
	<path class="st3" d="M7235.5,399c-107.4,0-282.2-47-389.5-47c-143,0-224.6,38-341,38c-93.8,0-230-32.2-323.8-32.2
		c-63.4,0-238.2,15.2-238.2,15.2s-199.1,26-265.5,26c-107.4,0-282.2-47-389.5-47c-143,0-224.6,38-341,38
		c-93.8,0-230-32.2-323.8-32.2c-63.4,0-238.2,15.2-238.2,15.2v0.1c-15.2,2-200.8,25.9-264.5,25.9c-107.4,0-282.2-47-389.5-47
		c-143,0-224.6,38-341,38c-93.8,0-230-32.2-323.8-32.2c-63.4,0-238.2,15.2-238.2,15.2v223h1557h1h1557h1558V373
		C7501,373,7301.9,399,7235.5,399z"/>
</g>
<g id="Layer_1">
	<rect x="-8" y="448" class="st4" width="3637" height="148"/>
	<path class="st5" d="M741,470V345c0,0,0.9-6-17.5-6s-17.5,6-17.5,6v125h-2.9v38c0,0,7.8,4,20.4,4s20.4-4,20.4-4v-38H741z"/>
	<path class="st5" d="M989,470V345c0,0,0.9-6-17.5-6s-17.5,6-17.5,6v125h-2.9v38c0,0,7.8,4,20.4,4s20.4-4,20.4-4v-38H989z"/>
	<path class="st5" d="M1237,470V345c0,0,0.9-6-17.5-6s-17.5,6-17.5,6v125h-2.9v38c0,0,7.8,4,20.4,4s20.4-4,20.4-4v-38H1237z"/>
	<path class="st5" d="M1485,470V345c0,0,0.9-6-17.5-6s-17.5,6-17.5,6v125h-2.9v38c0,0,7.8,4,20.4,4s20.4-4,20.4-4v-38H1485z"/>
	<path class="st5" d="M1733,470V345c0,0,0.9-6-17.5-6s-17.5,6-17.5,6v125h-2.9v38c0,0,7.8,4,20.4,4s20.4-4,20.4-4v-38H1733z"/>
	<path class="st5" d="M1981,470V345c0,0,0.9-6-17.5-6s-17.5,6-17.5,6v125h-2.9v38c0,0,7.8,4,20.4,4s20.4-4,20.4-4v-38H1981z"/>
	<path class="st5" d="M2229,470V345c0,0,0.9-6-17.5-6s-17.5,6-17.5,6v125h-2.9v38c0,0,7.8,4,20.4,4s20.4-4,20.4-4v-38H2229z"/>
	<path class="st5" d="M2477,470V345c0,0,0.9-6-17.5-6s-17.5,6-17.5,6v125h-2.9v38c0,0,7.8,4,20.4,4s20.4-4,20.4-4v-38H2477z"/>
	<path class="st5" d="M2718,470V345c0,0,0.9-6-17.5-6s-17.5,6-17.5,6v125h-2.9v38c0,0,7.8,4,20.4,4s20.4-4,20.4-4v-38H2718z"/>
	<path class="st5" d="M2932,470V345c0,0,0.9-6-17.5-6s-17.5,6-17.5,6v125h-2.9v38c0,0,7.8,4,20.4,4s20.4-4,20.4-4v-38H2932z"/>
</g>
<g id="Layer_6">
	<path class="st6" d="M1503,141.2c-7.5,1.3-15.2,1.5-22.8,0.7c7-4.4,13.2-10.3,16.7-17.7c3.5-7.4,4-16.6,0.1-23.8
		c-4.1,16.8-19.1,30.5-36.3,32.9c-5,0.7-10.1,0.5-15,1.2s-10.1,2.3-13.6,5.9c4.6-0.6,9.3-0.8,14-0.5c1.8,0.1,4.1,0.7,4.2,2.5
		c0.1,0.8-0.4,1.6-0.9,2.3c-3.8,5.1-9.7,8.7-16,9.8c10.4,1,21.1-0.6,30.8-4.5c3.3-1.3,6.7-3,10.2-2.5c5,0.7,10.4,7.4,15.3,5.1
		C1494.5,150.3,1497,142.2,1503,141.2z"/>
</g>
<g id="Layer_7">
	<path class="st6" d="M1682.9,134c-15.1,2.6-30.7,3.1-45.9,1.4c14-8.9,26.6-20.7,33.7-35.7s8.1-33.4,0.2-48
		c-8.2,33.9-38.5,61.4-73.1,66.2c-10,1.4-20.2,1-30.3,2.4c-10,1.3-20.3,4.6-27.3,11.9c9.3-1.2,18.8-1.5,28.2-0.9
		c3.6,0.2,8.2,1.5,8.4,5.1c0.1,1.7-0.9,3.3-1.9,4.6c-7.8,10.3-19.5,17.6-32.3,19.8c21,2,42.5-1.2,62-9.1c6.6-2.7,13.5-5.9,20.6-5
		c10.1,1.3,21,14.8,30.9,10.2C1665.8,152.4,1670.8,136.1,1682.9,134z"/>
</g>
<g id="Layer_8">
	<path class="st6" d="M1994.5,307.5c-36.9,6.4-74.7,7.5-112,3.3c34.2-21.6,64.9-50.5,82.2-87.1c17.3-36.6,19.8-81.4,0.5-116.9
		c-20,82.7-93.9,149.6-178.2,161.3c-24.5,3.4-49.4,2.6-73.8,5.8c-24.5,3.2-49.5,11.3-66.6,29.1c22.8-2.9,45.8-3.7,68.8-2.3
		c8.8,0.5,20,3.7,20.6,12.5c0.3,4.2-2.1,8-4.6,11.3c-18.9,25.2-47.6,42.9-78.6,48.3c51.2,4.8,103.5-2.9,151.2-22.1
		c16.1-6.5,32.9-14.5,50.1-12.2c24.5,3.2,51.1,36.1,75.4,24.8C1952.8,352.4,1964.9,312.6,1994.5,307.5z"/>
</g>
</svg>
