<?xml version="1.0" encoding="utf-8"?>
<!-- Generator: Adobe Illustrator 21.0.0, SVG Export Plug-In . SVG Version: 6.00 Build 0)  -->
<svg version="1.1" id="Layer_1" xmlns="http://www.w3.org/2000/svg" xmlns:xlink="http://www.w3.org/1999/xlink" x="0px" y="0px"
	 viewBox="0 0 1297 866" style="enable-background:new 0 0 1297 866;" xml:space="preserve">
<style type="text/css">
	.st0{fill:none;}
	.st1{font-family:'FZCSK--GBK1-0';}
	.st2{font-size:25px;}
	.st3{fill:#F7F5EA;}
	.st4{fill:#B3B3B3;}
</style>
<rect x="167" y="718" class="st0" width="712" height="120"/>
<text transform="matrix(1 0 0 1 167 735.0898)"><tspan x="0" y="0" class="st1 st2">There are 30 athele suclpture set in XingHai Square. They </tspan><tspan x="0" y="30" class="st1 st2">were been created stronger and active that is represent </tspan><tspan x="0" y="60" class="st1 st2">the spirit of fighting in Dalian</tspan></text>
<rect x="170" y="2" class="st3" width="733" height="630"/>
<g>
	<path class="st4" d="M756.2,353.3l-133.5,86.7c-15.2,9-34.9,3.9-43.7-11.4v0c-8.8-15.1-3.7-34.4,11.3-43.3l126.2-74.7L756.2,353.3z
		"/>
	<path class="st4" d="M489.1,526.1L581.7,399c13.5-11.4,33.8-9.5,45,4.1l0,0c11.1,13.5,9.3,33.4-4.1,44.6L510.2,542L489.1,526.1z"/>
	<polygon class="st4" points="420.5,523.1 516.1,546 523.6,514.5 424.7,505.3 	"/>
	<path class="st4" d="M749.2,317.2l144.3,67.1c15.7,8.1,21.8,27.5,13.5,43.1v0c-8.2,15.4-27.2,21.4-42.7,13.4L705,379L749.2,317.2z"
		/>
	<path class="st4" d="M1037.4,451.9l-156.8-11c-16.8-5.4-26-23.6-20.4-40.3v0c5.5-16.6,23.4-25.6,40-20.2l139.5,45.2L1037.4,451.9z"
		/>
	<polygon class="st4" points="1071.3,511.6 1039.9,418.5 1009.2,428.8 1054,517.5 	"/>
	<polygon class="st4" points="690,249 571.8,301.2 523,213 523.1,212.4 575.4,195.7 705,189 	"/>
	<path class="st4" d="M775.7,361.4L775.7,361.4c-7.6,14.4-24.1,21.7-39.9,17.5l-62.6-16.7l-56.7-97.4l72.7-35.5l81.7,92.8
		C780.6,333,782.4,348.6,775.7,361.4z"/>
	<path class="st4" d="M569.7,192.5c-5.7,23.9-17.4,45.6-42,46.9c-24.6,1.4-35.3,2.4-35.3,2.4s-17.7-89.3,30.3-91.3
		C547.4,149.5,580.6,147.3,569.7,192.5z"/>
	<path class="st4" d="M473.1,300.3l94.1-46.7c15.3-3.5,30.5,6.1,33.9,21.3v0c3.5,15.3-6.1,30.5-21.3,33.9L480.4,332L473.1,300.3z"/>
	<polygon class="st4" points="320.1,341.9 378.2,311.3 396.3,337.2 342.8,374.4 	"/>
	<path class="st4" d="M491.6,332.7l-108.2,13l-5.4-34.3l109.5-13.2c9.3-1.1,17.7,5.3,19.2,14.5l0,0
		C508.2,322.5,501.4,331.6,491.6,332.7z"/>
	<path class="st4" d="M753.6,170.6l-104.7,8.6c-14.9,4.9-22.9,20.9-18.1,35.8l0,0c4.9,14.9,20.9,22.9,35.8,18.1l97-31.6L753.6,170.6
		z"/>
	<polygon class="st4" points="918.4,231.6 861.5,194.7 840.6,219.6 892.1,263 	"/>
	<path class="st4" d="M746.8,205.8l106.6,22.7l8.5-33.6l-107.8-23c-9.1-1.9-18.1,3.7-20.4,12.7v0
		C731.2,194.1,737.2,203.8,746.8,205.8z"/>
	
		<rect x="201.7" y="104" transform="matrix(-0.2266 0.974 -0.974 -0.2266 552.6685 182.1602)" class="st4" width="4.6" height="413"/>
</g>
</svg>
