<?xml version="1.0" encoding="utf-8"?>
<!-- Generator: Adobe Illustrator 21.0.0, SVG Export Plug-In . SVG Version: 6.00 Build 0)  -->
<svg version="1.1" id="Layer_1" xmlns="http://www.w3.org/2000/svg" xmlns:xlink="http://www.w3.org/1999/xlink" x="0px" y="0px"
	 viewBox="0 0 1071 732" style="enable-background:new 0 0 1071 732;" xml:space="preserve">
<style type="text/css">
	.st0{fill:#EF9D4D;}
	.st1{fill:#CCCCCC;}
	.st2{fill:#D2D7D8;}
	.st3{fill:#F2F2F2;}
	.st4{fill:#FFFFFF;}
</style>
<rect class="st0" width="1008" height="732"/>
<polygon class="st1" points="915.9,492.8 267.5,593.5 175.7,593.2 162.9,559.3 266.7,553.4 889.3,456.3 "/>
<g>
	<g>
		<path class="st2" d="M842.2,310.9l-134.3,87.4c-15.3,9.1-35.1,3.9-44-11.5v0c-8.8-15.2-3.7-34.7,11.4-43.7l126.9-75.4L842.2,310.9
			z"/>
		<path class="st2" d="M815.4,466.1l-142.9-68c-13.8-11.3-15.7-31.7-4.3-45.4v0c11.3-13.5,31.3-15.4,44.9-4.3l114.1,93.7
			L815.4,466.1z"/>
		<polygon class="st2" points="743.2,504.7 837.2,473.8 827.1,442.8 737.5,487.1 		"/>
	</g>
	<g>
		<g>
			<polygon class="st2" points="771.7,206.7 674.2,273.5 563.1,239.5 611.1,193.3 660.3,168 782.5,181.3 			"/>
			<path class="st2" d="M851.4,324.7L851.4,324.7c-9.4,13.4-26.9,18.5-42.1,12.3l-60.2-24.9l-43.8-104.8l77.2-26l69.3,103.5
				C859.9,296.9,859.7,312.8,851.4,324.7z"/>
			<path class="st2" d="M604.3,199.3c-5.6,24.1-17.2,46-41.9,47.6c-24.7,1.5-35.5,2.7-35.5,2.7s-18.4-89.9,29.9-92.3
				C581.5,156.1,614.9,153.7,604.3,199.3z"/>
		</g>
		<g>
			<path class="st2" d="M731.6,270.3L627,255.3c-14.6-5.8-21.8-22.4-16-37.1v0c5.8-14.7,22.4-21.9,37-16l95.5,37.5L731.6,270.3z"/>
			<polygon class="st2" points="654.7,278 635.7,328.6 610.5,322.5 623,270.3 			"/>
			<path class="st2" d="M738.8,271.1l-104.8,32.4l-11.5-33l106-32.7c9-2.8,18.5,2.1,21.6,10.9v0C753.4,258,748.3,268.2,738.8,271.1z
				"/>
			
				<rect x="800.1" y="142.6" transform="matrix(0.2029 -0.9792 0.9792 0.2029 296.5042 1065.0646)" class="st2" width="4.7" height="415.5"/>
		</g>
	</g>
</g>
<g>
	<g>
		<path class="st3" d="M669.2,341.2l-134.3,87.4c-15.3,9.1-35.1,3.9-44-11.5l0,0c-8.8-15.2-3.7-34.7,11.4-43.7L629.2,298
			L669.2,341.2z"/>
		<path class="st3" d="M642.4,496.3l-142.9-68c-13.8-11.3-15.7-31.7-4.3-45.4l0,0c11.3-13.5,31.3-15.4,44.9-4.3l114.1,93.7
			L642.4,496.3z"/>
		<polygon class="st3" points="570.2,534.9 664.2,504 654.1,473 564.4,517.3 		"/>
	</g>
	<g>
		<g>
			<polygon class="st3" points="598.7,236.9 501.2,303.8 390.1,269.8 438.1,223.5 487.2,198.3 609.5,211.6 			"/>
			<path class="st3" d="M678.3,354.9L678.3,354.9c-9.4,13.4-26.9,18.5-42.1,12.3L576,342.3l-43.8-104.8l77.2-26l69.3,103.5
				C686.9,327.2,686.7,343,678.3,354.9z"/>
			<path class="st3" d="M431.3,229.6c-5.6,24.1-17.2,46-41.9,47.6c-24.7,1.5-35.5,2.7-35.5,2.7s-18.4-89.9,29.9-92.3
				C408.5,186.4,441.9,183.9,431.3,229.6z"/>
		</g>
		<g>
			<path class="st3" d="M569.2,264.3l-102.9,24.2c-15.7-0.1-28.4-12.9-28.4-28.7v0c0.1-15.8,12.9-28.5,28.7-28.4l102.6,0.1
				L569.2,264.3z"/>
			<polygon class="st3" points="500.3,299.4 501,353.5 475.4,357.1 468,303.9 			"/>
			<path class="st3" d="M576.2,262.4l-85.8,68.3l-22.7-26.6l86.9-69.2c7.3-5.8,18-4.8,24.1,2.3v0C585.1,244.8,584,256.2,576.2,262.4
				z"/>
			
				<rect x="456.5" y="310.7" transform="matrix(0.9861 -0.1663 0.1663 0.9861 -42.8174 114.852)" class="st3" width="415.5" height="4.7"/>
		</g>
	</g>
</g>
<g>
	<g>
		<path class="st4" d="M484.1,377.3l-134.3,87.4c-15.3,9.1-35.1,3.9-44-11.5l0,0c-8.8-15.2-3.7-34.7,11.4-43.7l126.9-75.4
			L484.1,377.3z"/>
		<path class="st4" d="M457.4,532.5l-142.9-68c-13.8-11.3-15.7-31.7-4.3-45.4l0,0c11.3-13.5,31.3-15.4,44.9-4.3l114.1,93.7
			L457.4,532.5z"/>
		<polygon class="st4" points="385.1,571.1 479.1,540.2 469,509.2 379.4,553.5 		"/>
	</g>
	<g>
		<g>
			<polygon class="st4" points="397.1,279.5 314.6,364.3 199,352.9 237,298 280.2,263.6 402.7,252.5 			"/>
			<path class="st4" d="M498.3,379.5L498.3,379.5c-6.6,15-22.7,23.5-38.8,20.3l-63.9-12.5l-63.5-94.1l70.6-40.7l88.2,87.8
				C501.2,350.6,504.2,366.2,498.3,379.5z"/>
			<path class="st4" d="M231.5,305.3c-0.8,24.8-7.9,48.5-31.8,54.9s-34.3,9.6-34.3,9.6s-35.7-84.5,11.2-96.4
				C200.7,267.4,232.9,258.5,231.5,305.3z"/>
		</g>
		<g>
			<path class="st4" d="M350.7,395.4L252,357.6c-13-8.9-16.3-26.7-7.4-39.7l0,0c8.9-13,26.6-16.3,39.6-7.4l84.9,57.8L350.7,395.4z"
				/>
			<polygon class="st4" points="274.1,385.8 244.4,431 221.1,419.5 244.8,371.4 			"/>
			<path class="st4" d="M357.6,397.8l-109.3,8.3l-4-34.8l110.6-8.4c9.4-0.7,17.6,6.1,18.7,15.5v0
				C374.8,388.2,367.5,397.1,357.6,397.8z"/>
			<polygon class="st4" points="592.2,573.6 590.3,577.8 212.2,405 214.1,400.7 			"/>
		</g>
	</g>
</g>
</svg>
