<?xml version="1.0" encoding="utf-8"?>
<!-- Generator: Adobe Illustrator 21.0.0, SVG Export Plug-In . SVG Version: 6.00 Build 0)  -->
<svg version="1.1" id="Layer_1" xmlns="http://www.w3.org/2000/svg" xmlns:xlink="http://www.w3.org/1999/xlink" x="0px" y="0px"
	 viewBox="0 0 1421 648" style="enable-background:new 0 0 1421 648;" xml:space="preserve">
<style type="text/css">
	.st0{fill:#CCC7BA;}
	.st1{fill:#A58B8B;}
	.st2{fill:#CC9F69;}
	.st3{fill:#C18A53;}
	.st4{fill:#754C24;}
	.st5{fill:#A67C52;}
	.st6{fill:#B59E88;}
	.st7{fill:none;stroke:#C18A53;stroke-width:3.8738;stroke-miterlimit:10;}
	.st8{fill:none;stroke:#C18A53;stroke-width:4;stroke-miterlimit:10;}
</style>
<g>
	<rect x="943" y="301" class="st0" width="357" height="82"/>
	<rect x="96" y="383" class="st1" width="1230" height="224"/>
	<rect x="887" y="222" class="st0" width="56" height="161"/>
	<path class="st2" d="M888,607H533V213.5c0-98,79.5-177.5,177.5-177.5h0c98,0,177.5,79.5,177.5,177.5V607z"/>
	<rect x="556" y="516" class="st3" width="304" height="91"/>
	<rect x="934" y="442" class="st4" width="14" height="52"/>
	<rect x="1015" y="442" class="st4" width="14" height="52"/>
	<rect x="1055" y="442" class="st4" width="14" height="52"/>
	<rect x="1156" y="442" class="st4" width="14" height="52"/>
	<rect x="1196" y="442" class="st4" width="14" height="52"/>
	<rect x="473" y="442" transform="matrix(-1 -4.495527e-11 4.495527e-11 -1 959.9993 936)" class="st4" width="14" height="52"/>
	<rect x="392" y="442" transform="matrix(-1 -4.508495e-11 4.508495e-11 -1 797.9993 936)" class="st4" width="14" height="52"/>
	<rect x="352" y="442" transform="matrix(-1 -4.443524e-11 4.443524e-11 -1 717.9993 936)" class="st4" width="14" height="52"/>
	<rect x="251" y="442" transform="matrix(-1 -4.508495e-11 4.508495e-11 -1 515.9993 936)" class="st4" width="14" height="52"/>
	<rect x="211" y="442" transform="matrix(-1 -4.508495e-11 4.508495e-11 -1 435.9993 936)" class="st4" width="14" height="52"/>
	<rect x="934" y="316" class="st4" width="14" height="52"/>
	<rect x="1015" y="316" class="st4" width="14" height="52"/>
	<rect x="1055" y="316" class="st4" width="14" height="52"/>
	<rect x="1156" y="316" class="st4" width="14" height="52"/>
	<rect x="1196" y="316" class="st4" width="14" height="52"/>
	<g>
		<rect x="571" y="529" class="st5" width="27" height="79"/>
		<rect x="620.6" y="529" class="st5" width="27" height="79"/>
		<rect x="670.2" y="529" class="st5" width="27" height="79"/>
		<rect x="719.8" y="529" class="st5" width="27" height="79"/>
		<rect x="769.4" y="529" class="st5" width="27" height="79"/>
		<rect x="819" y="529" class="st5" width="27" height="79"/>
	</g>
	<rect x="943" y="249" class="st6" width="327" height="52"/>
	<rect x="121" y="301" transform="matrix(-1 -4.489932e-11 4.489932e-11 -1 599.0007 684)" class="st0" width="357" height="82"/>
	<rect x="478" y="222" transform="matrix(-1 -4.502011e-11 4.502011e-11 -1 1012.0007 605)" class="st0" width="56" height="161"/>
	<rect x="473" y="316" transform="matrix(-1 -4.495527e-11 4.495527e-11 -1 960.0007 684)" class="st4" width="14" height="52"/>
	<rect x="392" y="316" transform="matrix(-1 -4.508495e-11 4.508495e-11 -1 798.0007 684)" class="st4" width="14" height="52"/>
	<rect x="352" y="316" transform="matrix(-1 -4.443524e-11 4.443524e-11 -1 718.0007 684)" class="st4" width="14" height="52"/>
	<rect x="251" y="316" transform="matrix(-1 -4.508495e-11 4.508495e-11 -1 516.0007 684)" class="st4" width="14" height="52"/>
	<rect x="211" y="316" transform="matrix(-1 -4.508495e-11 4.508495e-11 -1 436.0007 684)" class="st4" width="14" height="52"/>
	<rect x="151" y="249" transform="matrix(-1 -4.489088e-11 4.489088e-11 -1 629.0007 550)" class="st6" width="327" height="52"/>
	<path class="st7" d="M711,71c-83.4,0-151,67.6-151,151h302C862,138.6,794.4,71,711,71z"/>
	<path class="st8" d="M711,88.5c-69.1,0-125.2,59.8-125.2,133.5h250.4C836.2,148.3,780.1,88.5,711,88.5z"/>
	<path class="st8" d="M711,115.3c-55.3,0-100,47.8-100,106.7H811C811,163.1,766.3,115.3,711,115.3z"/>
	<path class="st8" d="M711,143c-40.9,0-74.1,35.4-74.1,79h148.3C785.1,178.3,751.9,143,711,143z"/>
	<path class="st8" d="M711,170.2c-26.9,0-48.6,23.2-48.6,51.8h97.2C759.6,193.4,737.9,170.2,711,170.2z"/>
	<path class="st8" d="M711,193.1c-15,0-27.1,13-27.1,28.9h54.3C738.1,206,726,193.1,711,193.1z"/>
	<line class="st8" x1="710" y1="222" x2="709.9" y2="71.2"/>
	<line class="st8" x1="710" y1="222" x2="662.6" y2="78.8"/>
	<line class="st8" x1="710" y1="222" x2="620.1" y2="100.9"/>
	<line class="st8" x1="710" y1="222" x2="586.7" y2="135.2"/>
	<line class="st8" x1="710" y1="222" x2="565.7" y2="178.2"/>
	<line class="st8" x1="710" y1="222" x2="757.4" y2="78.8"/>
	<line class="st8" x1="710" y1="222" x2="799.9" y2="100.9"/>
	<line class="st8" x1="710" y1="222" x2="833.3" y2="135.2"/>
	<line class="st8" x1="710" y1="222" x2="854.3" y2="178.2"/>
	<line class="st8" x1="560" y1="222" x2="560" y2="507"/>
	<line class="st8" x1="586" y1="222" x2="586" y2="507"/>
	<line class="st8" x1="612" y1="222" x2="612" y2="507"/>
	<line class="st8" x1="637" y1="222" x2="637" y2="507"/>
	<line class="st8" x1="663" y1="222" x2="663" y2="507"/>
	<line class="st8" x1="684" y1="222" x2="684" y2="507"/>
	<line class="st8" x1="711" y1="222" x2="711" y2="507"/>
	<line class="st8" x1="862" y1="222" x2="862" y2="507"/>
	<line class="st8" x1="836" y1="222" x2="836" y2="507"/>
	<line class="st8" x1="810" y1="222" x2="810" y2="507"/>
	<line class="st8" x1="785" y1="222" x2="785" y2="507"/>
	<line class="st8" x1="759" y1="222" x2="759" y2="507"/>
	<line class="st8" x1="738" y1="222" x2="738" y2="507"/>
	<line class="st8" x1="560" y1="507" x2="862" y2="507"/>
	<line class="st8" x1="560" y1="480" x2="862" y2="480"/>
	<line class="st8" x1="560" y1="453" x2="862" y2="453"/>
	<line class="st8" x1="560" y1="426" x2="862" y2="426"/>
	<line class="st8" x1="560" y1="399" x2="862" y2="399"/>
	<line class="st8" x1="560" y1="372" x2="862" y2="372"/>
	<line class="st8" x1="560" y1="345" x2="862" y2="345"/>
	<line class="st8" x1="560" y1="318" x2="862" y2="318"/>
	<line class="st8" x1="560" y1="291" x2="862" y2="291"/>
	<line class="st8" x1="560" y1="264" x2="862" y2="264"/>
	<line class="st8" x1="560" y1="237" x2="862" y2="237"/>
</g>
</svg>
