<?xml version="1.0" encoding="utf-8"?>
<!-- Generator: Adobe Illustrator 21.0.0, SVG Export Plug-In . SVG Version: 6.00 Build 0)  -->
<svg version="1.1" id="Layer_1" xmlns="http://www.w3.org/2000/svg" xmlns:xlink="http://www.w3.org/1999/xlink" x="0px" y="0px"
	 viewBox="0 0 1440 1084.5" style="enable-background:new 0 0 1440 1084.5;" xml:space="preserve">
<style type="text/css">
	.st0{fill:#E8D9D4;}
	.st1{fill:none;}
	.st2{font-family:'FZCSK--GBK1-0';}
	.st3{font-size:15px;}
	.st4{fill:#808080;}
	.st5{fill:#454545;}
	.st6{fill:#B3B3B3;}
</style>
<rect y="0" class="st0" width="1440" height="1084.5"/>
<rect x="107.5" y="960.5" class="st1" width="428" height="32"/>
<text transform="matrix(1 0 0 1 107.5 970.7539)" class="st2 st3">Dalian Cultural Hall</text>
<g>
	<path class="st4" d="M499.5,678H203.3V367.7c0-81.8,66.3-148.1,148.1-148.1h0c81.8,0,148.1,66.3,148.1,148.1V678z"/>
	<path class="st5" d="M461.8,678H241V352.5c0-61,49.4-110.4,110.4-110.4h0c61,0,110.4,49.4,110.4,110.4V678z"/>
	<rect x="127.3" y="349.1" class="st4" width="34.2" height="329"/>
	
		<rect x="541.2" y="349.1" transform="matrix(-1 -4.494817e-11 4.494817e-11 -1 1116.5619 1027.0914)" class="st4" width="34.2" height="329"/>
	<rect x="108" y="653.5" class="st4" width="72.9" height="24.6"/>
	<rect x="521.8" y="653.5" class="st4" width="72.9" height="24.6"/>
	<rect x="82.7" y="678" class="st4" width="536.6" height="27.5"/>
	<rect x="82.7" y="723.4" class="st4" width="536.6" height="13.4"/>
	<rect x="113.9" y="705.6" class="st6" width="474.3" height="18.1"/>
	<path class="st4" d="M136.3,308.9c0,0,26-161.5,215.1-161.5s215.1,161.5,215.1,161.5h8.9c0,0-24.6-187.6-225.5-187.6
		S127.3,308.9,127.3,308.9H136.3z"/>
	<path class="st4" d="M602.9,328.2v-11.2h-6.7h-36.9c-9.3-43.6-49.1-159.3-207.9-159.3S152.8,273.4,143.4,317.1h-39.2h-4.5v11.2h4.5
		v9.7h-4.5v11.2h4.5h64h8.9v-15.6c0,0,24.6-142.2,174.2-142.2s171.9,142.2,171.9,142.2v15.6h11.2h61.8h6.7v-11.2h-6.7v-9.7H602.9z"
		/>
	<rect x="241.2" y="736.8" class="st5" width="220.3" height="116.1"/>
	<rect x="161.6" y="736.8" class="st4" width="79.6" height="116.1"/>
	<rect x="461.5" y="736.8" class="st4" width="79.6" height="116.1"/>
	<rect x="101.5" y="852.9" class="st4" width="499.8" height="13.4"/>
	<rect x="101.5" y="904.3" class="st4" width="499.8" height="13.4"/>
	<rect x="111.6" y="866.3" class="st6" width="479.5" height="38.1"/>
</g>
<g>
	<path class="st4" d="M1237.5,678H941.3V367.7c0-81.8,66.3-148.1,148.1-148.1h0c81.8,0,148.1,66.3,148.1,148.1V678z"/>
	<path class="st5" d="M1199.8,678H979V352.5c0-61,49.4-110.4,110.4-110.4h0c61,0,110.4,49.4,110.4,110.4V678z"/>
	<rect x="865.3" y="349.1" class="st4" width="34.2" height="329"/>
	
		<rect x="1279.2" y="349.1" transform="matrix(-1 -4.494817e-11 4.494817e-11 -1 2592.562 1027.0914)" class="st4" width="34.2" height="329"/>
	<rect x="846" y="653.5" class="st4" width="72.9" height="24.6"/>
	<rect x="1259.8" y="653.5" class="st4" width="72.9" height="24.6"/>
	<rect x="820.7" y="678" class="st4" width="536.6" height="27.5"/>
	<rect x="820.7" y="723.4" class="st4" width="536.6" height="13.4"/>
	<rect x="851.9" y="705.6" class="st6" width="474.3" height="18.1"/>
	<path class="st4" d="M874.3,308.9c0,0,26-161.5,215.1-161.5s215.1,161.5,215.1,161.5h8.9c0,0-24.6-187.6-225.5-187.6
		S865.3,308.9,865.3,308.9H874.3z"/>
	<path class="st4" d="M1340.9,328.2v-11.2h-6.7h-36.9c-9.3-43.6-49.1-159.3-207.9-159.3S890.8,273.4,881.4,317.1h-39.2h-4.5v11.2
		h4.5v9.7h-4.5v11.2h4.5h64h8.9v-15.6c0,0,24.6-142.2,174.2-142.2s171.9,142.2,171.9,142.2v15.6h11.2h61.8h6.7v-11.2h-6.7v-9.7
		H1340.9z"/>
	<rect x="979.2" y="736.8" class="st5" width="220.3" height="116.1"/>
	<rect x="899.6" y="736.8" class="st4" width="79.6" height="116.1"/>
	<rect x="1199.5" y="736.8" class="st4" width="79.6" height="116.1"/>
	<rect x="839.5" y="852.9" class="st4" width="499.8" height="13.4"/>
	<rect x="839.5" y="904.3" class="st4" width="499.8" height="13.4"/>
	<rect x="849.6" y="866.3" class="st6" width="479.5" height="38.1"/>
</g>
</svg>
