<?xml version="1.0" encoding="utf-8"?>
<!-- Generator: Adobe Illustrator 21.0.0, SVG Export Plug-In . SVG Version: 6.00 Build 0)  -->
<svg version="1.1" id="Layer_1" xmlns="http://www.w3.org/2000/svg" xmlns:xlink="http://www.w3.org/1999/xlink" x="0px" y="0px"
	 viewBox="0 0 860 892" style="enable-background:new 0 0 860 892;" xml:space="preserve">
<style type="text/css">
	.st0{fill:#A7D1BD;}
	.st1{fill:none;}
	.st2{font-family:'FZCSK--GBK1-0';}
	.st3{font-size:189px;}
	.st4{font-size:25px;}
	.st5{enable-background:new    ;}
	.st6{clip-path:url(#SVGID_2_);}
</style>
<rect x="79" y="75" class="st0" width="585" height="543"/>
<g>
	<rect x="95" y="34" class="st1" width="842" height="231"/>
	<text transform="matrix(1 0 0 1 94.6763 140.8506)" class="st2 st3">1899</text>
</g>
<rect x="117" y="219" class="st1" width="428" height="347"/>
<rect x="117" y="219" class="st1" width="389.8" height="294.2"/>
<text transform="matrix(1 0 0 1 116.9998 236.0898)"><tspan x="0" y="0" class="st2 st4">Zhongshan Square was been </tspan><tspan x="0" y="30" class="st2 st4">built up in 1899. Over area is </tspan><tspan x="0" y="60" class="st2 st4">22000 square meter. The radi</tspan><tspan x="353.5" y="60" class="st2 st4">-</tspan><tspan x="0" y="90" class="st2 st4">ate square was the centre of 10 </tspan><tspan x="0" y="120" class="st2 st4">avenues. City develop and </tspan><tspan x="0" y="150" class="st2 st4">expand from this site. And the </tspan><tspan x="0" y="180" class="st2 st4">arrangement have be use in de</tspan><tspan x="367.7" y="180" class="st2 st4">-</tspan><tspan x="0" y="210" class="st2 st4">veloping of Dalian.</tspan></text>
<g>
	<g>
		<g class="st5">
			<defs>
				<polygon id="SVGID_1_" class="st5" points="62.5,881.7 66.8,719.6 478.2,475.9 473.9,638.1 				"/>
			</defs>
			<clipPath id="SVGID_2_">
				<use xlink:href="#SVGID_1_"  style="overflow:visible;"/>
			</clipPath>
			<g class="st6">
				<g>
					<g>
						<g>
							<path d="M136,749l-18.4,9l2.8-32.9l18.4-9L136,749 M100.8,766.2l-18.4,9l2.5-29.7c0.2-1.7,1.1-3.2,2.7-4.3l15.9-7.8
								L100.8,766.2 M107.2,695.7c-1.2,0.7-1.9,1.4-2.2,2c-0.3,0.5-0.3,1.6,0.1,3.5c0,3.3-0.1,7-0.1,11.1c-0.3,3.8-0.5,7.1-0.4,9.7
								l-0.6,7.3l-16.3,8c-4.4-0.5-9.1-0.4-14.1,0.4c-0.8,0.1-1.4,0.3-1.9,0.7c-1.6,0.9-2.2,2.7-2.1,5.3c0.1,2.3-0.2,8.1-0.7,17.3
								l-0.5,6.3c-1,8.5-2.1,19-3.4,31.7c-0.5,3.5,0.4,4.5,2.6,3.2c0.6-0.3,1.2-0.8,1.9-1.4c0.5-0.1,1.2-0.4,1.9-0.9
								c1.2-0.7,2.6-1.7,4.3-3.2c0.1,0,0.2-0.1,0.3-0.1c0.5-0.3,0.9-0.7,1.4-1.2c2.5-1.9,3.9-4.9,4.3-9.1l0.6-6.8l18.4-9l-0.4,4.7
								c-0.9,8.1-1.8,16.4-2.5,24.7c-0.9,7.8-1.8,14.7-2.5,20.7c-0.9,5.2,0.2,6.8,3.3,5c0.2-0.1,0.4-0.2,0.6-0.4
								c3.9-2.6,7.6-5.4,11.3-8.5c2.3-2.1,3.6-5.2,3.9-9.4c0-9.3,0.8-22.1,2.4-38.2l0.6-6.8l18.4-9l-0.8,9.9
								c-0.5,3.7,0.4,4.8,2.8,3.4c0.4-0.2,0.8-0.5,1.3-0.9c0.3-0.1,0.8-0.4,1.6-0.8c3.4-2.6,5.7-4.6,7.2-6c2.8-2.7,4.3-5.8,4.3-9.1
								c-0.1-5.6,0.6-15.1,2-28.5l0.6-6.8c-0.2-1.2,0.5-2.7,1.9-4.5c1.8-2.5,2-4.8,0.6-6.8c-5-3.2-9.3-4.3-13.1-3.1
								c-1.7,1.2-4,5.5-7,12.9l-16.3,8l1.7-19.8c-0.1-1.6,0.7-3.3,2.4-5.2c1.8-2.9,1.7-4.8-0.3-5.9c-3.5,0.7-8.8,2.3-16.1,4.9
								C107.9,695.2,107.5,695.4,107.2,695.7"/>
							<path d="M212.6,646.4c-2.1,1.2-3,3.2-2.7,5.8c-0.2,2.1-0.2,4.5-0.2,7.1c0.2,7.2,0.2,11.9,0,14l-6.6,78.8l-17.2,8.4l5.4-64.2
								c-0.1-2.3,0.3-4,1.2-5.1c1.2-1.6,1.8-2.9,1.9-3.9c-0.2-1.2-0.9-1.9-2.2-1.9c-6.7,1.6-11.4,3.1-14.1,4.4
								c-0.6,0.1-1.1,0.3-1.5,0.6c-1.6,0.9-2.3,2.7-2.1,5.2c0.1,2,0.1,4.8,0.1,8.5c-0.3,3.8-0.5,7.8-0.6,11.8l-3.9,46.9
								c-0.2,2.8-1,5.3-2.2,7.6c-2.1,3.7-2.1,5.2,0,4.5c0.3-0.1,0.8-0.2,1.6-0.3c3.9,0.4,6.9,0.6,9,0.6c0.3-0.1,0.6-0.2,1-0.4
								c1.1-0.6,2.2-1.8,3.3-3.7c1.3-3,2.2-4.8,2.8-5.4l0.1-1l51.1-25.1l-0.7,8.9c-0.6,4.4,0.9,5.5,4.6,3.3c0.2-0.1,0.4-0.3,0.6-0.4
								c0.7-0.9,1.6-1.6,2.6-2.2c0.2-0.1,0.5-0.3,0.8-0.4c1.4-1,2.6-2,3.8-2.8c3.4-3.7,5.2-7.6,5.3-11.6c-0.1-2.3,0-6.5,0.3-12.6
								c0.6-14,1.3-23.3,2-28l2.4-29.2c0.1-1.4,0.5-2.6,1.1-3.5c0.3-0.5,0.6-1,0.9-1.4c2.1-3.4,1.9-5.3-0.7-5.7
								c-3.5,0.7-8.1,2-14,3.9c-0.6,0.2-1.1,0.4-1.6,0.6c-1.8,1.1-2.5,2.9-2.1,5.6c0.1,2.3,0.1,5.3,0,9c-0.3,3.8-0.5,7.8-0.6,11.8
								l-4.2,50.6l-17.2,8.4l7.6-90.8c-0.1-1.6,0.5-3.4,2-5.5c2.4-3.5,2.3-5.4-0.3-5.9c-5.1,1.5-10.4,3-16,4.4
								C213,646.2,212.8,646.3,212.6,646.4"/>
							<path d="M285.7,624.3c-0.6,0.4-1.1,0.8-1.5,1.4c-0.6,1-0.7,2.2-0.3,3.7c-0.1,4-0.2,8.4-0.3,13.2c-0.4,4.5-0.5,7.9-0.5,10.2
								l-0.8,9.9c-2.6,31.3-9.1,57.7-19.6,79.1c-1,2.1-1.3,3.5-1.1,4.1c0.2,0.2,0.6,0.1,1.1-0.1c0.6-0.3,1.3-1,2.2-2
								c20.3-23.6,31.6-52.9,34-87.7l1.8-21.4c-0.1-2.3,0.6-4.1,2-5.5l46.2-22.7c8.2-4,15.9-7.8,23.3-11.4c0.1-0.1,0.2-0.1,0.4-0.2
								c1.6-1,2-2.5,1.2-4.6c-3.3-4-7.3-6.1-12-6.1c-2,2.3-4.8,7.7-8.4,16.1l-49,24.1c-0.2-0.5-0.7-1-1.5-1.3
								c0.3,0.1,0.5,0.2,0.5,0.2c0,0-0.3-0.2-0.9-0.5c-4.4-0.5-9.4-0.2-15,0.8C286.8,623.8,286.2,624,285.7,624.3 M320.5,590.9
								c-1.1,0.9-1.7,1.5-1.7,1.8c-0.3,0.8-0.1,1.4,0.6,1.7c2,3.7,2.9,7.9,2.5,12.8c0.2,5.7,2.6,7.1,7.2,4.4c0.7-0.4,1.5-1,2.3-1.6
								c5.4-5,7.9-11.2,7.4-18.7C336.7,585.8,330.6,585.6,320.5,590.9"/>
							<path d="M391.3,557.1c-2.2,1.3-2.9,3.2-2.2,5.6c0,2.7,0,6-0.1,10c-0.3,4.2-0.5,8.1-0.6,11.8l-1.1,13l-0.8,0.4
								c-1.4,0.7-3.3,1.6-5.7,2.8c-2.4,0.9-4.2,1.4-5.2,1.6c-0.2,0.1-0.3,0.2-0.4,0.2c-0.5,0.3-0.8,0.6-0.8,0.9
								c0,0.4,0.1,0.6,0.3,0.8c0,0.4,0.2,0.7,0.7,1.2c0.2,0.6,0.5,0.8,0.7,0.6c0.1,0.8,0.6,0.9,1.4,0.4c0.2-0.1,0.4-0.2,0.6-0.4
								c0.2-0.3,0.8-0.6,1.6-1.1c1.1-0.6,2.6-1.4,4.6-2.4l2.9-1.4l-3.1,37c-1.1,0.9-2.5,1.9-4.2,3.1c-0.9,0.5-1.7,1-2.4,1.5
								c-1.5,0.9-2.6,1.5-3.3,1.9c-2.8,1.7-3.7,3.5-2.8,5.4c0.5,3.8,1.6,8.5,3.5,14.3c0.4,1.5,1,2.2,1.8,2.1c0.1,0,0.1-0.1,0.2-0.1
								c1-0.6,2-1.9,2.9-3.9l1.7-1.8c-0.2,0.1-0.3,0.2-0.3,0.3c-0.3,0.2,0.4-0.7,2.1-2.6c9.3-10.9,20-23.7,32.2-38.3
								c1.2-1.6,1.8-2.9,1.9-3.9c-0.4-0.7-1.1-0.7-2.2,0c-0.2,0.1-0.4,0.2-0.6,0.4c-0.6,0.6-1.4,1.4-2.5,2.2
								c-2.2,1.8-6.1,4.5-11.7,8.2l2.8-33.4l15.9-7.8c-0.3,0.5-0.6,1-0.9,1.4l-0.9,0.9c-0.3,0.5-0.6,1-0.9,1.4
								c-1.6,2.1-2.8,3.4-3.6,3.9c-0.2,0.1-0.4,0.2-0.6,0.2c-1.9,1.3-2.6,2.9-2,5c0.4,1.1,0.8,2.4,1.2,3.9c1.9,2.8,3,4.7,3.4,5.8
								c0.4,1.4,1.2,1.8,2.2,1.1c0.5-0.3,1.1-0.8,1.7-1.6l0.4-0.2c1.1-1.2,2-2.3,2.6-3.3c-5.9,20.6-15.2,39.3-27.8,56.2
								c-1.2,1.6-1.5,2.6-1,3c0.5,0.1,1.6-0.3,3.2-1.1c20.5-16.7,34.8-41.1,43-73.1l0.8-0.4c-6.3,31.4-20.2,58.4-41.7,81
								c-1.4,1.4-2,2.5-1.9,3.4c-0.1,0.7,0.7,0.6,2.4-0.2c30.1-19.1,49-49.7,56.7-91.8l0.8-0.4c-0.9,4.8-2,11.1-3.2,19.1
								c-0.6,3.6-1.2,7.9-1.9,12.9c-0.9,4.4-1.7,9.5-2.4,15.2c-1,5-4.2,9-9.4,12.1c-1.4,0.8-3,1.6-4.7,2.3c-0.6,0.2-1.1,0.4-1.5,0.6
								c-0.8,0.5-1.4,1.2-1.9,2c-0.6,1,0,1.3,1.9,1.1c3.9-0.3,5.9,2.4,6,8.1c0,3,1.1,3.8,3.3,2.5c0.3-0.2,0.5-0.3,0.8-0.5
								c13.9-10.2,21.1-20,21.7-29.6c1.3-9.3,2.6-18.3,3.8-26.9c0.9-7.8,1.7-13.7,2.3-17.6c-0.2-0.9,0.8-2.4,3.1-4.5
								c1.1-1.2,1.7-3.3,1.7-6.3c-4.4-3.5-9.4-5.2-14.8-5.2c-1.4,1-3.8,5.2-7.3,12.6l-20,9.8c0.9-1.1,2.2-3.1,4-6
								c11-16.4,18.1-27.2,21.1-32.4c2.7-4.3,5.9-7.7,9.5-10.2c2.7-1.7,3.6-3.6,2.4-5.7c-4.6-4.4-9.5-6.7-14.7-6.8
								c-0.1,0-0.1,0.1-0.2,0.1c-1.6,1-4.1,4.5-7.4,10.6l-18,8.8c-8.5,4.5-13.5,6.8-15.1,6.9c-0.1,0.1-0.2,0.1-0.3,0.2
								c-0.9,0.5-1.1,1.1-0.6,1.8l1.4,1.8c0.1,0.8,0.6,0.9,1.4,0.4c0.2-0.1,0.4-0.2,0.6-0.4c1.8-1.2,4.1-2.6,6.9-4.2
								c0.6-0.3,1.2-0.7,1.8-1l20-9.8c-6.1,10-14.5,23.1-25.2,39.4c-3.1-3.5-6.2-5.5-9.3-5.9c-1.7,1.5-4,5.8-7,12.9l-1.6,0.8l2.1-25
								c-0.2-1.2,0.8-3.2,2.8-5.9c2.7-3.6,2.6-5.8-0.2-6.4c-7.7,1.8-12.8,3.1-15.2,4C392.2,556.7,391.7,556.9,391.3,557.1"/>
						</g>
					</g>
				</g>
			</g>
		</g>
	</g>
</g>
</svg>
