<?xml version="1.0" encoding="utf-8"?>
<!-- Generator: Adobe Illustrator 21.0.0, SVG Export Plug-In . SVG Version: 6.00 Build 0)  -->
<svg version="1.1" id="Layer_1" xmlns="http://www.w3.org/2000/svg" xmlns:xlink="http://www.w3.org/1999/xlink" x="0px" y="0px"
	 viewBox="0 0 1439 1032" style="enable-background:new 0 0 1439 1032;" xml:space="preserve">
<style type="text/css">
	.st0{fill:#D8B080;}
	.st1{fill:#E6E6E6;}
	.st2{fill:#4D4D4D;}
	.st3{fill:#D5D6CE;}
	.st4{fill:#B8BFB6;}
	.st5{fill:#666666;}
	.st6{fill:#C9CCD1;}
	.st7{fill:#333333;}
	.st8{fill:#D85E4A;}
	.st9{font-family:'FZCSK--GBK1-0';}
	.st10{font-size:189px;}
	.st11{fill:none;}
	.st12{font-size:25px;}
</style>
<rect y="-1" class="st0" width="1439" height="690"/>
<polygon class="st1" points="980.2,276.9 980.2,1032.5 463.9,1032.5 463.9,276.9 570.5,276.9 570.5,309.6 872.3,309.6 872.3,276.9 
	"/>
<rect x="521.5" y="343.5" class="st2" width="399.8" height="626.1"/>
<rect x="444.8" y="244.2" class="st3" width="144.6" height="32.7"/>
<rect x="853.4" y="244.2" class="st3" width="144.6" height="32.7"/>
<rect x="432.2" y="234.1" class="st4" width="169.7" height="10.1"/>
<rect x="840.8" y="234.1" class="st4" width="169.7" height="10.1"/>
<rect x="871" y="205.2" class="st4" width="169.7" height="10.1"/>
<rect x="402" y="205.2" class="st4" width="169.7" height="10.1"/>
<polygon class="st4" points="1055.8,160 1040.7,205.2 955.2,205.2 721.4,106.6 487.5,205.2 402,205.2 383.2,160 418.4,160 
	721.4,40.5 1024.4,160 "/>
<polygon class="st2" points="487.5,205.2 571.8,205.2 571.8,215.3 554.2,215.3 554.2,234.1 601.9,234.1 601.9,244.2 589.4,244.2 
	589.4,276.9 570.5,276.9 570.5,309.6 721.4,309.6 721.4,106.6 "/>
<polygon class="st2" points="955.2,205.2 721.4,106.6 721.4,118.1 925.9,205.2 "/>
<polygon class="st5" points="871,205.2 925.9,205.2 721.4,118.1 721.4,309.6 872.3,309.6 872.3,276.9 853.4,276.9 853.4,244.2 
	840.8,244.2 840.8,234.1 888.6,234.1 888.6,215.3 871,215.3 "/>
<polygon class="st6" points="783,312.1 664.8,312.1 635.9,142.4 721.4,107.1 806.9,142.4 "/>
<polygon class="st1" points="759.2,312.1 686.7,312.1 667.3,129.8 721.4,105.9 775.4,129.8 "/>
<path class="st7" d="M521.5,343.5v626.1h399.8V343.5H521.5z M903.8,970H538.9V359.2h364.9L903.8,970L903.8,970z"/>
<rect x="537" y="357" class="st8" width="903" height="613"/>
<text transform="matrix(1 0 0 1 600.6763 549.8506)" class="st9 st10">1914</text>
<rect x="624" y="623" class="st11" width="428" height="347"/>
<rect x="622.6" y="608.4" class="st11" width="496.9" height="376.1"/>
<text transform="matrix(1 0 0 1 622.556 625.5315)"><tspan x="0" y="0" class="st9 st12">Dalian Hotel was done in 1914 by Japa</tspan><tspan x="464.7" y="0" class="st9 st12">-</tspan><tspan x="0" y="30" class="st9 st12">nese designers. 1945 was been use for </tspan><tspan x="0" y="60" class="st9 st12">command of police by Soviet Union. It is </tspan><tspan x="0" y="90" class="st9 st12">a major historic and cultural sites under </tspan><tspan x="0" y="120" class="st9 st12">state protection.</tspan></text>
</svg>
