<?xml version="1.0" encoding="utf-8"?>
<!-- Generator: Adobe Illustrator 21.0.0, SVG Export Plug-In . SVG Version: 6.00 Build 0)  -->
<svg version="1.1" id="Layer_1" xmlns="http://www.w3.org/2000/svg" xmlns:xlink="http://www.w3.org/1999/xlink" x="0px" y="0px"
	 viewBox="0 0 1080 732" style="enable-background:new 0 0 1080 732;" xml:space="preserve">
<style type="text/css">
	.st0{fill:#CCCCCC;}
	.st1{fill:#939393;}
	.st2{fill:#353535;}
	.st3{fill:#686868;}
	.st4{fill:none;}
	.st5{font-family:'FZCSK--GBK1-0';}
	.st6{font-size:15px;}
	.st7{fill:#808080;}
	.st8{fill:#3C404C;}
</style>
<polygon class="st0" points="764,275 12,631 12,440 764,84 "/>
<polygon class="st0" points="1080,16.4 764,165.4 764,221 1080,72 "/>
<polygon class="st0" points="764,539 754,563 275,564 764,348 "/>
<polygon class="st0" points="764,45 12,401 12,330 764,-26 "/>
<rect y="564" class="st1" width="881" height="11"/>
<rect y="574" class="st2" width="881" height="11"/>
<rect y="585" class="st1" width="881" height="11"/>
<rect y="595" class="st2" width="881" height="11"/>
<rect y="606" class="st1" width="881" height="11"/>
<rect y="616" class="st2" width="881" height="11"/>
<rect y="627" class="st1" width="881" height="11"/>
<rect y="637" class="st2" width="881" height="11"/>
<rect y="648" class="st1" width="881" height="11"/>
<rect y="658" class="st2" width="881" height="11"/>
<rect x="57" y="16" class="st3" width="104" height="501"/>
<rect x="39" class="st3" width="144" height="16"/>
<rect x="41" y="511" class="st2" width="135" height="27"/>
<rect x="41" y="520" class="st1" width="135" height="8"/>
<rect x="40" y="700" class="st4" width="428" height="32"/>
<text transform="matrix(1 0 0 1 40 710.2539)" class="st5 st6">Dalian Cultural Hall</text>
<rect x="26.5" y="526.8" class="st2" width="164" height="37.4"/>
<g>
	<rect x="291.8" y="51" class="st7" width="16.5" height="22.2"/>
	<g>
		<path class="st7" d="M345,235h-87V103.5c0-24,19.5-43.5,43.5-43.5h0c24,0,43.5,19.5,43.5,43.5V235z"/>
		<path class="st7" d="M335.5,227.7h-68V115.3c0-18.8,15.2-34,34-34h0c18.8,0,34,15.2,34,34V227.7z"/>
		<rect x="258" y="240" class="st7" width="87" height="8"/>
	</g>
</g>
<rect x="292.8" y="285" class="st7" width="16.5" height="18.2"/>
<path class="st7" d="M362.3,564H240.7V336.5c0-24,19.5-43.5,43.5-43.5h34.7c24,0,43.5,19.5,43.5,43.5V564z"/>
<path class="st7" d="M349,564H254V348.4c0-18.8,15.2-34,34-34h27.1c18.8,0,34,15.2,34,34V564z"/>
<polygon class="st0" points="966,-28 764,67.4 764,123 1080,-26 1080,-28 "/>
<g>
	<rect x="444" y="16" class="st3" width="104" height="501"/>
	<rect x="424" class="st3" width="144" height="16"/>
	<rect x="428" y="511" class="st2" width="135" height="27"/>
	<rect x="428" y="520" class="st1" width="135" height="8"/>
	<rect x="413.5" y="526.8" class="st2" width="164" height="37.4"/>
	<rect x="537" y="16" class="st8" width="5" height="495"/>
	<rect x="529" y="16" class="st8" width="5" height="495"/>
	<rect x="521" y="16" class="st8" width="5" height="495"/>
	<rect x="507" y="16" class="st8" width="5" height="495"/>
	<rect x="490" y="16" class="st8" width="5" height="495"/>
	<rect x="444" y="16" class="st8" width="104" height="4"/>
</g>
<rect x="150" y="16" class="st8" width="5" height="495"/>
<rect x="142" y="16" class="st8" width="5" height="495"/>
<rect x="134" y="16" class="st8" width="5" height="495"/>
<rect x="120" y="16" class="st8" width="5" height="495"/>
<rect x="103" y="16" class="st8" width="5" height="495"/>
<rect x="57" y="16" class="st8" width="104" height="4"/>
</svg>
