<?xml version="1.0" encoding="utf-8"?>
<!-- Generator: Adobe Illustrator 21.0.0, SVG Export Plug-In . SVG Version: 6.00 Build 0)  -->
<svg version="1.1" id="Layer_1" xmlns="http://www.w3.org/2000/svg" xmlns:xlink="http://www.w3.org/1999/xlink" x="0px" y="0px"
	 viewBox="0 0 991 1815" style="enable-background:new 0 0 991 1815;" xml:space="preserve">
<style type="text/css">
	.st0{fill:#B0B3C6;}
	.st1{fill:#AAAFB5;}
	.st2{fill:#878D93;}
	.st3{fill:#CCC6C0;}
	.st4{fill:#999999;}
	.st5{fill:#CCCCCC;}
	.st6{fill:none;}
	.st7{font-family:'FZCSK--GBK1-0';}
	.st8{font-size:15px;}
	.st9{fill:#5E9177;}
	.st10{fill:#7A9386;}
	.st11{fill:#474B59;}
	.st12{fill:#3D3230;}
	.st13{fill:#808080;}
	.st14{fill:#D85E4A;}
</style>
<rect y="561" class="st0" width="991" height="223"/>
<polygon class="st1" points="991,1102.2 -4,1576.2 -4,1145 991,671 "/>
<polygon class="st1" points="991,1251.3 -4,1725.3 -4,1609 991,1135 "/>
<path class="st2" d="M762,1595H517v-276.8c0-43.9,35.6-79.5,79.5-79.5h86c43.9,0,79.5,35.6,79.5,79.5V1595z"/>
<rect x="476" y="561" class="st3" width="42" height="1034"/>
<rect x="762" y="561" class="st3" width="42" height="1034"/>
<rect x="221" y="1595" class="st4" width="770" height="14"/>
<rect x="221" y="1609" class="st5" width="770" height="14"/>
<rect x="221" y="1623" class="st4" width="770" height="14"/>
<rect x="221" y="1637" class="st5" width="770" height="14"/>
<rect x="221" y="1651" class="st4" width="770" height="14"/>
<rect x="221" y="1665" class="st5" width="770" height="14"/>
<rect x="221" y="1679" class="st4" width="770" height="14"/>
<rect x="221" y="1693" class="st5" width="770" height="14"/>
<rect x="221" y="1707" class="st4" width="770" height="14"/>
<rect x="221" y="1721" class="st5" width="770" height="14"/>
<rect y="533" class="st4" width="991" height="28"/>
<rect x="262" y="1766" class="st6" width="428" height="32"/>
<text transform="matrix(1 0 0 1 262 1776.2539)" class="st7 st8">Dalian Post Administrative Bureau</text>
<rect x="333.9" y="681" class="st9" width="115.9" height="222"/>
<rect x="581.9" y="681" class="st9" width="115.9" height="222"/>
<rect x="333.9" y="1149" class="st9" width="115.9" height="215"/>
<rect x="828.9" y="1149" class="st9" width="115.9" height="215"/>
<rect x="132.9" y="1149" class="st9" width="115.9" height="215"/>
<rect x="133.2" y="681" class="st9" width="115.9" height="222"/>
<rect x="829.2" y="681" class="st9" width="115.9" height="222"/>
<rect y="219" class="st4" width="991" height="296"/>
<path class="st10" d="M719,1595H560v-212.5c0-43.9,35.6-79.5,79.5-79.5l0,0c43.9,0,79.5,35.6,79.5,79.5V1595z"/>
<path class="st11" d="M731.7,1595h-184v-227c0-43.9,35.6-79.5,79.5-79.5h25c43.9,0,79.5,35.6,79.5,79.5V1595z"/>
<rect x="24" y="458" class="st5" width="967" height="24"/>
<rect y="561" class="st12" width="991" height="23"/>
<rect x="-4" y="1031" class="st5" width="995" height="15"/>
<rect x="640" y="116" class="st13" width="15" height="311"/>
<polygon class="st14" points="869,127 655,233 655,106 869,0 "/>
<circle class="st13" cx="647.5" cy="106.5" r="19.5"/>
</svg>
