<?xml version="1.0" encoding="utf-8"?>
<!-- Generator: Adobe Illustrator 21.0.0, SVG Export Plug-In . SVG Version: 6.00 Build 0)  -->
<svg version="1.1" id="Layer_1" xmlns="http://www.w3.org/2000/svg" xmlns:xlink="http://www.w3.org/1999/xlink" x="0px" y="0px"
	 viewBox="0 0 625 1172.5" style="enable-background:new 0 0 625 1172.5;" xml:space="preserve">
<style type="text/css">
	.st0{fill:#BDCCD4;}
	.st1{opacity:0.48;fill:url(#XMLID_4_);enable-background:new    ;}
	.st2{opacity:0.48;fill:url(#XMLID_5_);enable-background:new    ;}
	.st3{fill:#FFFFFF;}
</style>
<g id="pillar">
	<path class="st0" d="M429.7,208.8c0,0-3.1,13.9-39.9,24.7c-24.9,7.3-47.1-6.9-62.1-31.6v-2.6c7.4,4.2,16.6,6.9,27.8,6.9
		c76.5,0,66.5-76.1,66.5-76.1h-13c0,52.7-22,61.8-52,61.8c-26,0-40.7-20.6-44.2-26.1c-0.3-1-0.6-2.2-0.8-3.2V66h-13v96.5
		c-0.3,1-0.5,2.2-0.8,3.2C294.7,171.3,280,192,254,192c-30,0-52-9.2-52-61.8h-13c0,0-10,76.1,66.5,76.1c11.2,0,20.3-2.7,27.8-6.9
		v2.6c-15,24.7-37.2,38.8-62.1,31.6c-36.8-10.8-39.9-24.7-39.9-24.7l-19.4-5.7c0,0,1.5,30,55.8,46c30,8.8,51.1-3.1,65.6-20.5v617.3
		l-9.3,21.3v252.2c0,0,8,11.4,31.5,11.4c26.5,0,31.5-11.4,31.5-11.4V866.1l-9.3-20.4V228.6c14.5,17.4,35.6,29.3,65.6,20.5
		c54.2-16,55.8-46,55.8-46L429.7,208.8z"/>
</g>
<g id="light">
	<g id="XMLID_41_">
		
			<linearGradient id="XMLID_4_" gradientUnits="userSpaceOnUse" x1="450.6" y1="496.162" x2="450.6" y2="715.8886" gradientTransform="matrix(1 0 0 -1 0 888)">
			<stop  offset="0" style="stop-color:#F7F6EF;stop-opacity:0"/>
			<stop  offset="4.014838e-02" style="stop-color:#F7F5E3;stop-opacity:4.014838e-02"/>
			<stop  offset="0.3115" style="stop-color:#FAEE93;stop-opacity:0.3115"/>
			<stop  offset="0.5526" style="stop-color:#FCE854;stop-opacity:0.5526"/>
			<stop  offset="0.7547" style="stop-color:#FEE426;stop-opacity:0.7547"/>
			<stop  offset="0.9101" style="stop-color:#FFE20A;stop-opacity:0.9101"/>
			<stop  offset="1" style="stop-color:#FFE100"/>
			<stop  offset="1" style="stop-color:#3D2F5C"/>
		</linearGradient>
		<circle id="XMLID_42_" class="st1" cx="450.6" cy="270.8" r="174.8"/>
	</g>
	<g id="XMLID_1_">
		
			<linearGradient id="XMLID_5_" gradientUnits="userSpaceOnUse" x1="174.6" y1="496.162" x2="174.6" y2="715.8886" gradientTransform="matrix(1 0 0 -1 0 888)">
			<stop  offset="0" style="stop-color:#F7F6EF;stop-opacity:0"/>
			<stop  offset="4.014838e-02" style="stop-color:#F7F5E3;stop-opacity:4.014838e-02"/>
			<stop  offset="0.3115" style="stop-color:#FAEE93;stop-opacity:0.3115"/>
			<stop  offset="0.5526" style="stop-color:#FCE854;stop-opacity:0.5526"/>
			<stop  offset="0.7547" style="stop-color:#FEE426;stop-opacity:0.7547"/>
			<stop  offset="0.9101" style="stop-color:#FFE20A;stop-opacity:0.9101"/>
			<stop  offset="1" style="stop-color:#FFE100"/>
			<stop  offset="1" style="stop-color:#3D2F5C"/>
		</linearGradient>
		<circle id="XMLID_2_" class="st2" cx="174.6" cy="270.8" r="174.8"/>
	</g>
</g>
<g id="dengpao">
	<circle class="st3" cx="306.5" cy="284.5" r="50.5"/>
	<circle class="st3" cx="306.5" cy="50.5" r="50.5"/>
	<circle class="st3" cx="430.5" cy="101.5" r="50.5"/>
	<circle class="st3" cx="174.5" cy="101.5" r="50.5"/>
	<circle class="st3" cx="430.5" cy="209.5" r="50.5"/>
	<circle class="st3" cx="174.5" cy="209.5" r="50.5"/>
</g>
</svg>
